<svg id="Layer_1" data-name="Layer 1" xmlns="http://www.w3.org/2000/svg" viewBox="0 0 64 64"><defs><style>.cls-1{fill:#6a6a6a;}</style></defs><path id="Path_3140" data-name="Path 3140" class="cls-1" d="M61,17.3V34.6l-4.5.8a4.9,4.9,0,0,1-4.8-.8c-2.7-2.5-12.2-12-12.2-12a3.8,3.8,0,0,0-4.3-.2l-7.5,3.9A3.5,3.5,0,0,1,23,25.1a4.2,4.2,0,0,1-.4-1.5,3.4,3.4,0,0,1,2.1-3.1c3.4-2.1,10.6-6.1,13.6-7.7s3.1-1,5.6,1.1l5.8,4.9a3.2,3.2,0,0,0,2.3.5ZM23.2,46.6a3,3,0,0,0-1.4-4,3.4,3.4,0,0,0-2.2-.2,2.8,2.8,0,0,0-.7-3,3,3,0,0,0-3-.8,3.2,3.2,0,0,0-.7-3.1,3.4,3.4,0,0,0-4.8.1C9,37,8.1,39.4,9.4,40.9s2.7.5,3.8.3-1.3,2.1-.1,3.5,2.7.6,3.8.3-1.2,2.3-.1,3.6,2.9.6,4,.2c-.4,1.2-1.4,2.5-.1,3.9s4.1.8,5.5-.6a3.5,3.5,0,0,0,.4-4.8h-.1A3.3,3.3,0,0,0,23.2,46.6Zm25.9-9L38.2,26.7a3.6,3.6,0,0,0-3.9-.7l-5,2.3A9.9,9.9,0,0,1,26,29.4a5.9,5.9,0,0,1-5.8-5.7,6,6,0,0,1,2.7-4.9c2.3-1.6,7.6-4.3,7.6-4.3a6.6,6.6,0,0,0-5.1-2.1c-3.5,0-10.8,4.8-10.8,4.8a6.1,6.1,0,0,1-5.1.2l-5.7-2V35.2a22,22,0,0,1,3.1,1,8.2,8.2,0,0,1,1.6-2.5,6.5,6.5,0,0,1,8.7-.1,6,6,0,0,1,1.3,2.5,4.9,4.9,0,0,1,2.4,1.4,5.6,5.6,0,0,1,1.3,2.4A5.6,5.6,0,0,1,26,44a5.8,5.8,0,0,1,2.5,1.5,5.6,5.6,0,0,1,1.5,5h0l1.3,1.4a2.5,2.5,0,0,0,3.6,0,2.4,2.4,0,0,0,0-3.5h0c-.1,0-3.6-3.7-3.3-3.9s4.7,4.3,4.8,4.4A2.5,2.5,0,1,0,40,45.2a.5.5,0,0,1-.3-.3s-4.5-3.9-4.1-4.2a44.1,44.1,0,0,1,5.8,4.7,2.4,2.4,0,0,0,3.5,0A2.5,2.5,0,0,0,45,42s-4.2-4.4-3.9-4.7,4.5,3.9,4.5,3.9a2.5,2.5,0,0,0,3.6-3.5Z"/></svg>