<svg id="Layer_1" data-name="Layer 1" xmlns="http://www.w3.org/2000/svg" viewBox="0 0 64 64"><defs><style>.cls-1{fill:#6a6a6a;}</style></defs><path id="Path_3137" data-name="Path 3137" class="cls-1" d="M55.9,27.5H47.5V47.8h3a4.9,4.9,0,0,1-4.7,3.4H38.9a8.6,8.6,0,0,0-8.5,8.6v1.7h3.4V59.8a5.2,5.2,0,0,1,5.1-5.2h6.9a8.5,8.5,0,0,0,8.3-6.8h1.8A5.1,5.1,0,0,0,61,42.7V32.6A5.1,5.1,0,0,0,55.9,27.5Z"/><path id="Path_3138" data-name="Path 3138" class="cls-1" d="M8.3,47.8h8.4V27.5H8.3a5.1,5.1,0,0,0-5.1,5.1V42.8A5,5,0,0,0,8.3,47.8Z"/><path id="Path_3139" data-name="Path 3139" class="cls-1" d="M32.1,10.4A15.5,15.5,0,0,1,47.3,24.1h6.8a22.1,22.1,0,0,0-44.1,0h6.9A15.5,15.5,0,0,1,32.1,10.4Z"/></svg>