<svg id="Layer_1" data-name="Layer 1" xmlns="http://www.w3.org/2000/svg" viewBox="0 0 64 64"><defs><style>.cls-1{fill:#fff;}</style></defs><g id="list"><path id="Path_1989" data-name="Path 1989" class="cls-1" d="M42.3,9.9V7H21.7V9.9H12.5V57h39V9.9Zm-17.6,0H39.3v2.9H24.7ZM48.6,54.1H15.4V12.8h6.3v2.9H42.3V12.8h6.3Z"/><path id="Path_1990" data-name="Path 1990" class="cls-1" d="M27.1,19.2H18.3V28h8.8ZM24.2,25H21.3V22.1h2.9Z"/><path id="Path_1991" data-name="Path 1991" class="cls-1" d="M32,22.1H45.7V25H32Z"/><path id="Path_1992" data-name="Path 1992" class="cls-1" d="M27.1,31.3H18.3v8.8h8.8Zm-2.9,5.8H21.3V34.2h2.9Z"/><path id="Path_1993" data-name="Path 1993" class="cls-1" d="M32,34.2H45.7v2.9H32Z"/><path id="Path_1994" data-name="Path 1994" class="cls-1" d="M32,46.1H45.7v3H32Z"/><path id="Path_1995" data-name="Path 1995" class="cls-1" d="M21.5,47.6l-1.8-1.9-2.1,2,3.9,4L28,45.3l-2.1-2.1Z"/></g></svg>