<svg id="Layer_1" data-name="Layer 1" xmlns="http://www.w3.org/2000/svg" viewBox="0 0 64 64"><defs><style>.cls-1{fill:#fff;}</style></defs><g id="Group_2499" data-name="Group 2499"><g id="smartphone_1_2" data-name="smartphone 1 2"><path id="Path_1963-2" data-name="Path 1963-2" class="cls-1" d="M26.2,12.7h-.7c-.1,0-.1-.1-.2-.2h0v-.6c0-.1,0-.2.1-.2v-.2l.3-.3.4-.2a1.7,1.7,0,0,1,1,.3v.2a.3.3,0,0,1,.1.2,1.1,1.1,0,0,1,0,.8h-.1a.3.3,0,0,1-.1.2A1.1,1.1,0,0,1,26.2,12.7Z"/><path id="Path_1964-2" data-name="Path 1964-2" class="cls-1" d="M42.3,5.2H21.7a4.8,4.8,0,0,0-4.8,4.7V54.1a4.8,4.8,0,0,0,4.8,4.7H42.3a4.8,4.8,0,0,0,4.8-4.7V9.9A4.8,4.8,0,0,0,42.3,5.2ZM21.7,7.3H42.3A2.6,2.6,0,0,1,45,9.9v.7H31.2a1.1,1.1,0,0,0-1,1.1,1.1,1.1,0,0,0,1,1H45V50.2H19V12.7h2.8a1,1,0,0,0,1-1,1,1,0,0,0-1-1.1H19V9.9A2.6,2.6,0,0,1,21.7,7.3ZM45,54.1a2.7,2.7,0,0,1-2.7,2.6H21.7A2.6,2.6,0,0,1,19,54.1V52.3H45Z"/><path id="Path_1969-2" data-name="Path 1969-2" class="cls-1" d="M33.3,55.6H30.7a1,1,0,0,1-1-1.1,1,1,0,0,1,1-1h2.6a1,1,0,0,1,1,1,1,1,0,0,1-1,1.1Z"/></g><g id="Group_2498" data-name="Group 2498"><rect id="Rectangle_2762" data-name="Rectangle 2762" class="cls-1" x="30.6" y="20.8" width="1.2" height="1.2"/><rect id="Rectangle_2763" data-name="Rectangle 2763" class="cls-1" x="34.2" y="20.8" width="1.2" height="1.2"/><path id="Path_1972" data-name="Path 1972" class="cls-1" d="M38.5,28.1V23.8a5.9,5.9,0,0,0-1.9-4.3l1.7-1.7-1-1-1.9,1.9a5.5,5.5,0,0,0-5.3,0l-1.9-1.9-1,1,1.7,1.7A5.9,5.9,0,0,0,27,23.8v4.3h1.4V24.5h8.7v3.6Zm-10-5a4.3,4.3,0,0,1,5-3.6A4.2,4.2,0,0,1,37,23.1Z"/></g><path id="Path_3033" data-name="Path 3033" class="cls-1" d="M38.3,41.2h0A2,2,0,0,1,37,39.1a2.2,2.2,0,0,1,1.2-2h0a.6.6,0,0,0,.1-.8,3.8,3.8,0,0,0-3.1-1.6H35A3.8,3.8,0,0,0,36,32a.6.6,0,0,0-.6-.6A3.8,3.8,0,0,0,33,32.7a3.4,3.4,0,0,0-.9,2.4h0l-1.4-.4a4.3,4.3,0,0,0-2,.7,4,4,0,0,0-1.9,3.9,8.7,8.7,0,0,0,1.1,4.1A9.1,9.1,0,0,0,29,45a2.5,2.5,0,0,0,1.8,1h0l1.5-.4.7-.2a1.9,1.9,0,0,1,1,.3,2.4,2.4,0,0,0,1.2.3c.9,0,1.8-.7,2.6-2.1l.7-1.2a2.4,2.4,0,0,0,.2-.8A.8.8,0,0,0,38.3,41.2Zm-2.5-2.1a3.1,3.1,0,0,0,.7,2.1,2.6,2.6,0,0,0,.9.9l-.6,1.3h0c-.6.9-1.2,1.4-1.6,1.4l-.8-.2a3.2,3.2,0,0,0-1.4-.3l-1.2.2a1.7,1.7,0,0,1-1,.3h0c-.5,0-1.3-.7-1.9-1.9a9.2,9.2,0,0,1-1-3.6,3.2,3.2,0,0,1,1.3-2.9,2.7,2.7,0,0,1,1.4-.5l1.1.3a2,2,0,0,0,1.1.3,1.7,1.7,0,0,0,1-.3,3.2,3.2,0,0,1,1.4-.3h0a3,3,0,0,1,1.8.6,3.4,3.4,0,0,0-1.2,2.6Zm-1.1-6.3a2.3,2.3,0,0,1-.6,1.2l-.8.5a2.7,2.7,0,0,1,1.4-1.7Z"/></g></svg>