<svg id="Layer_1" data-name="Layer 1" xmlns="http://www.w3.org/2000/svg" viewBox="0 0 64 64"><defs><style>.cls-1{fill:#fff;}</style></defs><g id="sitemap"><path id="Path_1987" data-name="Path 1987" class="cls-1" d="M53.5,44.3H51.7V33.4a2.9,2.9,0,0,0-2.8-2.8H33.4V22.8h9.3a1.5,1.5,0,0,0,1.4-1.5h0V9a1.4,1.4,0,0,0-1.4-1.4H21.3A1.4,1.4,0,0,0,19.9,9h0V21.3a1.5,1.5,0,0,0,1.4,1.5h9.3v7.8H15.1a2.9,2.9,0,0,0-2.8,2.8V44.3H10.5a2.9,2.9,0,0,0-2.9,2.8v6.4a2.9,2.9,0,0,0,2.9,2.9h6.4a2.9,2.9,0,0,0,2.8-2.9V47.1a2.9,2.9,0,0,0-2.8-2.8H15.1V33.4H30.6V44.3H28.9A2.9,2.9,0,0,0,26,47.1v6.4a2.9,2.9,0,0,0,2.9,2.9h6.2A2.9,2.9,0,0,0,38,53.5V47.1a2.9,2.9,0,0,0-2.9-2.8H33.4V33.4H48.9V44.3H47.1a2.9,2.9,0,0,0-2.8,2.8v6.4a2.9,2.9,0,0,0,2.8,2.9h6.4a2.9,2.9,0,0,0,2.9-2.9V47.1A2.9,2.9,0,0,0,53.5,44.3ZM22.8,10.5H41.2v9.4H22.8Zm-5.9,43H10.5V47.1h6.4Zm18.2,0H28.9V47.1h6.2Zm18.4,0H47.1V47.1h6.4Z"/><path id="Path_1988" data-name="Path 1988" class="cls-1" d="M38,15.2a1.4,1.4,0,0,0-1.4-1.4H27.4A1.4,1.4,0,0,0,26,15.2a1.5,1.5,0,0,0,1.4,1.5h9.2A1.5,1.5,0,0,0,38,15.2Z"/></g></svg>