<svg id="Layer_1" data-name="Layer 1" xmlns="http://www.w3.org/2000/svg" viewBox="0 0 64 64"><defs><style>.cls-1{fill:#fff;}</style></defs><g id="Group_2396" data-name="Group 2396"><path id="Path_2003" data-name="Path 2003" class="cls-1" d="M56,9.1A1.1,1.1,0,0,0,54.9,8H49.2a1.1,1.1,0,0,0-1.1,1.1v1.7H35.8v-.2a4,4,0,0,0-5-2.4,4.1,4.1,0,0,0-2.4,2.4v.2H15.9V9.1A1.1,1.1,0,0,0,14.8,8H9.1A1.1,1.1,0,0,0,8,9.1v5.7a1.1,1.1,0,0,0,1.1,1.1h5.7a1.1,1.1,0,0,0,1.1-1.1V13h7.4l-1,.6A18.7,18.7,0,0,0,13.8,28v.2h-.2a3.9,3.9,0,0,0-2.5,5,4.1,4.1,0,0,0,5.1,2.4,3.9,3.9,0,0,0,2.4-5,4.1,4.1,0,0,0-2.4-2.4H16V28A16.4,16.4,0,0,1,28.1,13.5h.2l.2.3a4,4,0,0,0,5.2,1.8,4.5,4.5,0,0,0,1.8-1.8v-.3h.3A16.4,16.4,0,0,1,48,28v.2h-.2a3.9,3.9,0,1,0,2.7,7.4,3.9,3.9,0,0,0-.1-7.4h-.2V28a18.7,18.7,0,0,0-8.5-14.4l-1-.6h7.4v1.8a1.1,1.1,0,0,0,1.1,1.1h5.7A1.1,1.1,0,0,0,56,14.8ZM13.7,13.7H10.2V10.2h3.5ZM16.6,32a1.8,1.8,0,0,1-1.7,1.8,1.8,1.8,0,0,1,0-3.6A1.8,1.8,0,0,1,16.6,32ZM32,13.7a1.8,1.8,0,0,1-1.8-1.8,1.8,1.8,0,0,1,3.6,0A1.8,1.8,0,0,1,32,13.7ZM50.9,32a1.8,1.8,0,0,1-1.8,1.8,1.8,1.8,0,0,1,0-3.6A1.8,1.8,0,0,1,50.9,32Zm2.9-18.3H50.3V10.2h3.5Z"/><path id="Path_2004" data-name="Path 2004" class="cls-1" d="M44.3,37.1,32.9,20c0-.1,0-.1-.1-.1a1.1,1.1,0,0,0-1.5-.2l-.2.3h0L19.7,37.1a1.1,1.1,0,0,0,.1,1.4,19.1,19.1,0,0,1,5.3,10.7v.2h-.2l-.6.6a6.7,6.7,0,0,0-2,4.8A1.1,1.1,0,0,0,23.4,56H40.6a1,1,0,0,0,1-1.1,7.1,7.1,0,0,0-1.9-4.8l-.6-.6h-.2v-.2a18.5,18.5,0,0,1,5.3-10.7A1.1,1.1,0,0,0,44.3,37.1ZM32,36a1.7,1.7,0,0,1,1.8,1.7A1.8,1.8,0,1,1,32,35.9h0Zm7.2,17.4.2.4H24.6l.2-.4a4.8,4.8,0,0,1,4.4-3.2h5.7a4.7,4.7,0,0,1,4.3,3.2Zm2.7-15.6a20.9,20.9,0,0,0-5,10.2v.3h-.4a4.5,4.5,0,0,0-1.6-.3H29.1a4.5,4.5,0,0,0-1.6.3h-.4V48a20.9,20.9,0,0,0-5-10.2v-.2l8.9-13.4v9.7h-.2a3.9,3.9,0,0,0-2.4,5,3.8,3.8,0,0,0,5,2.4,3.9,3.9,0,0,0,2.4-5A4.1,4.1,0,0,0,33.3,34h-.2V24.2L42,37.6Z"/></g></svg>