<svg id="Layer_1" data-name="Layer 1" xmlns="http://www.w3.org/2000/svg" viewBox="0 0 64 64"><defs><style>.cls-1{fill:#fff;}</style></defs><g id="task"><path id="Path_1974" data-name="Path 1974" class="cls-1" d="M24.4,21.5H16.9a1.4,1.4,0,0,0-1.4,1.4,1.4,1.4,0,0,0,1.4,1.4h7.5a1.4,1.4,0,0,0,1.4-1.4,1.4,1.4,0,0,0-1.4-1.4Z"/><path id="Path_1975" data-name="Path 1975" class="cls-1" d="M24.4,29.1H16.9a1.4,1.4,0,0,0-1.4,1.4,1.4,1.4,0,0,0,1.4,1.4h7.5a1.4,1.4,0,0,0,1.4-1.4,1.4,1.4,0,0,0-1.4-1.4Z"/><path id="Path_1976" data-name="Path 1976" class="cls-1" d="M24.4,36.6H16.9a1.4,1.4,0,0,0,0,2.8h7.5a1.4,1.4,0,1,0,0-2.8Z"/><path id="Path_1977" data-name="Path 1977" class="cls-1" d="M44.7,33.8V20.9a7.1,7.1,0,0,0-2.1-5L36.9,10h0a6.7,6.7,0,0,0-5-2.1H13.7a4.3,4.3,0,0,0-4.3,4.2V48.7A4.3,4.3,0,0,0,13.7,53H35.5A11.2,11.2,0,1,0,51.1,36.8a10.9,10.9,0,0,0-6.4-3ZM12.3,48.7V12.1a1.4,1.4,0,0,1,1.4-1.4H31.9a4.3,4.3,0,0,1,3,1.3l5.7,5.9h0a4.1,4.1,0,0,1,1.2,3V33.8a11.2,11.2,0,0,0-9.7,12.5,10.7,10.7,0,0,0,1.3,3.8H13.7A1.4,1.4,0,0,1,12.3,48.7Zm31,4.6A8.4,8.4,0,0,1,35,44.8a8.4,8.4,0,1,1,16.7.1,8.4,8.4,0,0,1-8.4,8.4Z"/><path id="Path_1978" data-name="Path 1978" class="cls-1" d="M46.5,41.5a1.4,1.4,0,0,0-2,.2l-2.4,2.9-.5-1.1a1.4,1.4,0,0,0-1.9-.6,1.4,1.4,0,0,0-.6,1.9l1.5,3a1.2,1.2,0,0,0,1.1.7h.1c.5,0,.9-.1,1.1-.5l3.8-4.5a1.4,1.4,0,0,0-.2-2Z"/><path id="Path_1979" data-name="Path 1979" class="cls-1" d="M32,24.3h1.5a1.4,1.4,0,0,0,1.4-1.4,1.5,1.5,0,0,0-1.4-1.4H32a1.5,1.5,0,0,0-1.5,1.4A1.5,1.5,0,0,0,32,24.3Z"/><path id="Path_1980" data-name="Path 1980" class="cls-1" d="M34.9,30.5a1.4,1.4,0,0,0-1.4-1.4H32a1.5,1.5,0,0,0-1.5,1.4A1.5,1.5,0,0,0,32,31.9h1.5a1.5,1.5,0,0,0,1.4-1.4Z"/></g></svg>