<svg id="Layer_1" data-name="Layer 1" xmlns="http://www.w3.org/2000/svg" viewBox="0 0 64 64"><defs><style>.cls-1{fill:#fff;}</style></defs><g id="Group_2397" data-name="Group 2397"><path id="Path_2005" data-name="Path 2005" class="cls-1" d="M5.1,55.5H58.9v-1a9.2,9.2,0,0,0-4.7-7.9l-.7-.4.5-.5a5.8,5.8,0,0,0-.2-8.3,5.9,5.9,0,0,0-8.3,8.3l.5.5-.6.4a8.6,8.6,0,0,0-4,4.4l-.5,1.2L40.4,51a8.6,8.6,0,0,0-4-4.4l-.6-.4.5-.5a5.9,5.9,0,0,0-.3-8.3,5.9,5.9,0,0,0-8.3,8.3l.5.5-.6.4a8.6,8.6,0,0,0-4,4.4l-.5,1.2L22.6,51a8.6,8.6,0,0,0-4-4.4l-.6-.4.5-.5A5.9,5.9,0,0,0,10,37.6a5.8,5.8,0,0,0,0,8.1l.5.5-.7.4a9.2,9.2,0,0,0-4.7,7.9ZM46,41.6a3.8,3.8,0,1,1,3.8,3.8A3.8,3.8,0,0,1,46,41.6ZM43,52.7a7,7,0,0,1,13.5,0l.2.8H42.8ZM28.2,41.6A3.8,3.8,0,1,1,32,45.4,3.8,3.8,0,0,1,28.2,41.6Zm-3,11.1a7.1,7.1,0,0,1,8.5-5,7.3,7.3,0,0,1,5.1,5l.2.8H25.1ZM10.4,41.6a3.8,3.8,0,1,1,3.8,3.8A3.9,3.9,0,0,1,10.4,41.6ZM7.5,52.7a7,7,0,0,1,8.5-5,7.2,7.2,0,0,1,5,5l.2.8H7.3Z"/><path id="Path_2006" data-name="Path 2006" class="cls-1" d="M22.9,28.2H41.1v-1a9.2,9.2,0,0,0-4.7-8l-.6-.3.5-.5a5.9,5.9,0,0,0-.3-8.3,5.8,5.8,0,0,0-8.3.2,6,6,0,0,0,0,8.1l.5.5-.6.3a9.2,9.2,0,0,0-4.7,8Zm5.3-13.9A3.8,3.8,0,1,1,32,18.1a3.8,3.8,0,0,1-3.8-3.8Zm-3,11.1a7.1,7.1,0,0,1,8.5-5,7.2,7.2,0,0,1,5.1,5v.7H25.1Z"/><path id="Path_2007" data-name="Path 2007" class="cls-1" d="M54,31.4V16.5H43.9v2.1h8V31.4Z"/><path id="Path_2008" data-name="Path 2008" class="cls-1" d="M20.1,16.5H10V31.4h2.1V18.6h8Z"/></g></svg>