<svg id="Layer_1" data-name="Layer 1" xmlns="http://www.w3.org/2000/svg" viewBox="0 0 64 64"><defs><style>.cls-1{fill:#fff;}</style></defs><g id="data"><g id="Group_2398" data-name="Group 2398"><path id="Path_2009" data-name="Path 2009" class="cls-1" d="M52.7,39.8a5.7,5.7,0,0,0-5.5,4.1H41.8v-6h5.5a11,11,0,0,0,3.2-21.5A12.5,12.5,0,0,0,38.4,6.9a12.7,12.7,0,0,0-6.3,1.7,10.9,10.9,0,0,0-15.5.7,10.8,10.8,0,0,0-2.9,7,11,11,0,0,0,3,21.6h5.5v6H16.8A5.7,5.7,0,1,0,5.9,47a5.7,5.7,0,0,0,7,3.9A5.7,5.7,0,0,0,16.8,47h7a1.6,1.6,0,0,0,1.5-1.6h0V37.9h5.2v9.3a5.7,5.7,0,1,0,6.9,3.9,5.5,5.5,0,0,0-3.9-3.9V37.9h5.2v7.5A1.6,1.6,0,0,0,40.2,47h7a5.7,5.7,0,1,0,5.4-7.2ZM11.3,48a2.6,2.6,0,1,1,2.6-2.6A2.5,2.5,0,0,1,11.3,48Zm23.3,4.6a2.6,2.6,0,1,1-5.2,0,2.6,2.6,0,0,1,5.2,0ZM16.7,34.8a7.9,7.9,0,0,1-1.2-15.7,1.6,1.6,0,0,0,1.3-1.7v-.7a7.9,7.9,0,0,1,13.9-5.1,1.5,1.5,0,0,0,2.1.2,9.5,9.5,0,0,1,14.9,6.1,1.8,1.8,0,0,0,1.2,1.3,7.9,7.9,0,0,1,6.2,9.3,8,8,0,0,1-7.8,6.3ZM52.7,48a2.6,2.6,0,1,1,0-5.1,2.6,2.6,0,0,1,0,5.1Z"/></g></g></svg>