<svg id="Layer_1" data-name="Layer 1" xmlns="http://www.w3.org/2000/svg" viewBox="0 0 64 64"><defs><style>.cls-1{fill:#fff;}</style></defs><g id="code"><g id="Group_2388" data-name="Group 2388"><g id="Group_2387" data-name="Group 2387"><path id="Path_1960" data-name="Path 1960" class="cls-1" d="M9,10.4V48.2H23.8v2.7H21v2.7H43V50.9H40.2V48.2H55V10.4ZM37.5,50.9h-11V48.2h11Zm14.8-5.4H11.7V40.1H52.3v5.4Zm0-8.1H11.7V13.1H52.3V37.4Z"/></g></g><g id="Group_2390" data-name="Group 2390"><g id="Group_2389" data-name="Group 2389"><path id="Path_1961" data-name="Path 1961" class="cls-1" d="M27.3,20.4l-1.9-1.9-6.8,6.7L25.4,32l1.9-1.9-4.9-4.9Z"/></g></g><g id="Group_2392" data-name="Group 2392"><g id="Group_2391" data-name="Group 2391"><path id="Path_1962" data-name="Path 1962" class="cls-1" d="M38.6,18.5l-1.9,1.9,4.9,4.8-4.9,4.9L38.6,32l6.8-6.8Z"/></g></g><g id="Group_2394" data-name="Group 2394"><g id="Group_2393" data-name="Group 2393"><rect id="Rectangle_2759" data-name="Rectangle 2759" class="cls-1" x="24" y="23.9" width="16.1" height="2.7" transform="matrix(0.19, -0.98, 0.98, 0.19, 1, 51.71)"/></g></g></g></svg>