<svg id="Layer_1" data-name="Layer 1" xmlns="http://www.w3.org/2000/svg" viewBox="0 0 64 64"><defs><style>.cls-1{fill:#fff;}.cls-2{isolation:isolate;}</style></defs><g id="ux"><path id="Path_1981" data-name="Path 1981" class="cls-1" d="M8.5,11.2V52.8h47V11.2ZM39.7,14l-5.2,6.2H11.2V14ZM52.8,50H11.2V23H35.8l7.4-9.1h9.6Z"/><path id="Path_1982" data-name="Path 1982" class="cls-1" d="M14.4,15.7h2.8v2.8H14.4Z"/><path id="Path_1983" data-name="Path 1983" class="cls-1" d="M19.5,15.7h2.7v2.8H19.5Z"/><path id="Path_1984" data-name="Path 1984" class="cls-1" d="M24.6,15.7h2.7v2.8H24.6Z"/><g class="cls-2"><path class="cls-1" d="M24,30.3v5.6a2.9,2.9,0,0,1-.9,2.2,3.6,3.6,0,0,1-2.4.8,3.2,3.2,0,0,1-2.3-.8,2.7,2.7,0,0,1-.9-2.2V30.3h1.7v5.6a1.9,1.9,0,0,0,.4,1.2,1.5,1.5,0,0,0,1.1.4c1,0,1.5-.5,1.5-1.6V30.3Z"/><path class="cls-1" d="M27.3,38.8H25.6V30.3h1.7Z"/><path class="cls-1" d="M29.4,39.5H28.1l3.1-9.2h1.3Z"/><path class="cls-1" d="M39.9,30.3v5.6a2.9,2.9,0,0,1-.9,2.2,4,4,0,0,1-4.8,0,3,3,0,0,1-.9-2.2V30.3h1.8v5.6a1.5,1.5,0,0,0,.4,1.2,1.4,1.4,0,0,0,1.1.4c1,0,1.5-.5,1.5-1.6V30.3Z"/><path class="cls-1" d="M44.4,33.2,46,30.3h2l-2.5,4.2,2.6,4.3H46l-1.6-3-1.7,3h-2l2.5-4.3-2.5-4.2h2.1Z"/></g></g></svg>