<svg id="Layer_1" data-name="Layer 1" xmlns="http://www.w3.org/2000/svg" viewBox="0 0 64 64"><defs><style>.cls-1{fill:#fff;}</style></defs><g id="settings"><path id="Path_1985" data-name="Path 1985" class="cls-1" d="M32,20.1A11.9,11.9,0,1,0,43.9,32h0A11.9,11.9,0,0,0,32,20.1Zm0,20.8A8.9,8.9,0,1,1,40.9,32h0A8.9,8.9,0,0,1,32,40.9Z"/><path id="Path_1986" data-name="Path 1986" class="cls-1" d="M55.7,26.3l-3.9-.8a14.8,14.8,0,0,0-1.2-2.9l2.1-3.3a1.5,1.5,0,0,0-.2-1.9l-5.9-5.9a1.5,1.5,0,0,0-1.9-.2l-3.3,2.1a14.8,14.8,0,0,0-2.9-1.2l-.8-3.9a1.6,1.6,0,0,0-1.5-1.1H27.8a1.6,1.6,0,0,0-1.5,1.1l-.8,3.9a14.8,14.8,0,0,0-2.9,1.2l-3.3-2.1a1.5,1.5,0,0,0-1.9.2l-5.9,5.9a1.5,1.5,0,0,0-.2,1.9l2.1,3.3a14.8,14.8,0,0,0-1.2,2.9l-3.9.8a1.6,1.6,0,0,0-1.1,1.5v8.4a1.4,1.4,0,0,0,1.1,1.4l3.9.9a14.8,14.8,0,0,0,1.2,2.9l-2.1,3.3a1.5,1.5,0,0,0,.2,1.9l5.9,5.9a1.5,1.5,0,0,0,1.9.2l3.3-2.1a14.8,14.8,0,0,0,2.9,1.2l.8,3.9a1.6,1.6,0,0,0,1.5,1.1h8.4a1.4,1.4,0,0,0,1.4-1.1l.9-3.9a14.8,14.8,0,0,0,2.9-1.2l3.3,2.1a1.5,1.5,0,0,0,1.9-.2l5.9-5.9a1.5,1.5,0,0,0,.2-1.9l-2.1-3.3a14.8,14.8,0,0,0,1.2-2.9l3.9-.9a1.4,1.4,0,0,0,1.1-1.4V27.8A1.6,1.6,0,0,0,55.7,26.3ZM53.9,35l-3.5.8a1.5,1.5,0,0,0-1.2,1,15.2,15.2,0,0,1-1.6,4,1.6,1.6,0,0,0,0,1.5l2,3-4.3,4.3-3-2a1.6,1.6,0,0,0-1.5,0,15.2,15.2,0,0,1-4,1.6,1.5,1.5,0,0,0-1,1.2L35,53.9H29l-.8-3.5a1.5,1.5,0,0,0-1-1.2,15.2,15.2,0,0,1-4-1.6,1.6,1.6,0,0,0-1.5,0l-3,2-4.3-4.3,2-3a1.6,1.6,0,0,0,0-1.5,15.2,15.2,0,0,1-1.6-4,1.5,1.5,0,0,0-1.2-1L10.1,35V29l3.5-.8a1.3,1.3,0,0,0,1.1-1,20,20,0,0,1,1.7-4,1.6,1.6,0,0,0,0-1.5l-2-3,4.3-4.3,3,2a1.6,1.6,0,0,0,1.5,0,15.2,15.2,0,0,1,4-1.6,1.5,1.5,0,0,0,1-1.2l.8-3.5h6l.8,3.5a1.5,1.5,0,0,0,1,1.2,15.2,15.2,0,0,1,4,1.6,1.6,1.6,0,0,0,1.5,0l3-2,4.3,4.3-2,3a1.6,1.6,0,0,0,0,1.5,15.2,15.2,0,0,1,1.6,4,1.5,1.5,0,0,0,1.2,1l3.5.8Z"/></g></svg>