<svg id="Layer_1" data-name="Layer 1" xmlns="http://www.w3.org/2000/svg" viewBox="0 0 64 64"><defs><style>.cls-1{fill:#fff;}</style></defs><g id="smartphone"><path id="Path_1963" data-name="Path 1963" class="cls-1" d="M26.2,12.7h-.7c-.1,0-.1-.1-.2-.2h0v-.6c0-.1,0-.2.1-.2v-.2l.3-.3.4-.2a1.7,1.7,0,0,1,1,.3v.2a.3.3,0,0,1,.1.2,1.1,1.1,0,0,1,0,.8h-.1a.3.3,0,0,1-.1.2A1.1,1.1,0,0,1,26.2,12.7Z"/><path id="Path_1964" data-name="Path 1964" class="cls-1" d="M42.3,5.2H21.7a4.8,4.8,0,0,0-4.8,4.7V54.1a4.8,4.8,0,0,0,4.8,4.7H42.3a4.8,4.8,0,0,0,4.8-4.7V9.9A4.8,4.8,0,0,0,42.3,5.2ZM21.7,7.3H42.3A2.6,2.6,0,0,1,45,9.9v.7H31.2a1.1,1.1,0,0,0-1,1.1,1.1,1.1,0,0,0,1,1H45V50.2H19V12.7h2.8a1,1,0,0,0,1-1,1,1,0,0,0-1-1.1H19V9.9A2.6,2.6,0,0,1,21.7,7.3ZM45,54.1a2.7,2.7,0,0,1-2.7,2.6H21.7A2.6,2.6,0,0,1,19,54.1V52.3H45Z"/><path id="Path_1965" data-name="Path 1965" class="cls-1" d="M29.8,28.8H22.4a1,1,0,0,1-1-1V20.4a1,1,0,0,1,1-1.1h7.4a1.1,1.1,0,0,1,1.1,1.1v7.4A1.1,1.1,0,0,1,29.8,28.8Zm-6.3-2.1h5.3V21.4H23.5Z"/><path id="Path_1966" data-name="Path 1966" class="cls-1" d="M41.6,28.8H34.2a1.1,1.1,0,0,1-1.1-1V20.4a1.1,1.1,0,0,1,1.1-1.1h7.4a1,1,0,0,1,1,1.1v7.4A1,1,0,0,1,41.6,28.8Zm-6.4-2.1h5.3V21.4H35.2Z"/><path id="Path_1967" data-name="Path 1967" class="cls-1" d="M29.8,40.5H22.4a1,1,0,0,1-1-1.1V32a1,1,0,0,1,1-1h7.4a1.1,1.1,0,0,1,1.1,1v7.4A1.1,1.1,0,0,1,29.8,40.5Zm-6.3-2.1h5.3V33.1H23.5Z"/><path id="Path_1968" data-name="Path 1968" class="cls-1" d="M41.6,40.5H34.2a1.1,1.1,0,0,1-1.1-1.1V32a1.1,1.1,0,0,1,1.1-1h7.4a1,1,0,0,1,1,1v7.4A1,1,0,0,1,41.6,40.5Zm-6.4-2.1h5.3V33.1H35.2Z"/><path id="Path_1969" data-name="Path 1969" class="cls-1" d="M33.3,55.6H30.7a1,1,0,0,1-1-1.1,1,1,0,0,1,1-1h2.6a1,1,0,0,1,1,1,1,1,0,0,1-1,1.1Z"/><path id="Path_1970" data-name="Path 1970" class="cls-1" d="M35.5,45.1h-7a1.1,1.1,0,0,1-1-1,1.1,1.1,0,0,1,1-1.1h7a1.1,1.1,0,0,1,1,1.1,1.1,1.1,0,0,1-1,1Z"/></g></svg>