<svg id="Layer_1" data-name="Layer 1" xmlns="http://www.w3.org/2000/svg" viewBox="0 0 64 64"><defs><style>.cls-1{fill:#fff;}</style></defs><g id="backup"><rect id="Rectangle_2764" data-name="Rectangle 2764" class="cls-1" x="22.2" y="40.3" width="2.1" height="2.14"/><rect id="Rectangle_2765" data-name="Rectangle 2765" class="cls-1" x="26.4" y="40.3" width="1.1" height="2.14"/><rect id="Rectangle_2766" data-name="Rectangle 2766" class="cls-1" x="29.6" y="40.3" width="1.1" height="2.14"/><path id="Path_1998" data-name="Path 1998" class="cls-1" d="M15.6,26.8a6,6,0,0,0,.5,2.4l1.6-.7a4.7,4.7,0,0,1-.4-1.7,4.4,4.4,0,0,1,4.4-4.3V20.8A6,6,0,0,0,15.6,26.8Z"/><path id="Path_1999" data-name="Path 1999" class="cls-1" d="M9.6,36.3h1.7A1.8,1.8,0,0,1,13,34.6V32.9A3.4,3.4,0,0,0,9.6,36.3Z"/><path id="Path_2000" data-name="Path 2000" class="cls-1" d="M57.9,16.5V13a.8.8,0,0,0-.7-.8l-1.1-.3.6-1a.8.8,0,0,0-.1-1L54.1,7.4a.8.8,0,0,0-1-.1l-1,.6-.3-1.1a.8.8,0,0,0-.8-.7H47.5a.8.8,0,0,0-.8.7l-.3,1.1-1-.6a.8.8,0,0,0-1,.1L41.9,9.9a.9.9,0,0,0-.1,1l.4.6-2.4-.2A12,12,0,0,0,28.2,20a9.4,9.4,0,0,0-13.4.3,9.5,9.5,0,0,0-2.3,9.1A6.9,6.9,0,0,0,13,43.2h6.1V55.3a2.6,2.6,0,0,0,2.6,2.6H42.4a2.6,2.6,0,0,0,2.5-2.6h0V43.2H51a6.9,6.9,0,0,0,6.8-7A6.9,6.9,0,0,0,51,29.4h-.8a11.6,11.6,0,0,0,1.7-6c0-.3-.1-.5-.1-.7h0l.3-1.1,1,.6a.9.9,0,0,0,1-.1l2.5-2.5a.8.8,0,0,0,.1-1l-.6-1,1.1-.3A.8.8,0,0,0,57.9,16.5ZM43.2,44.1H20.8V39.8a.9.9,0,0,1,.9-.9H31.8a1,1,0,0,1,.8.5l.8,1.5a2.5,2.5,0,0,0,2.3,1.5h6.7a.8.8,0,0,1,.8.8Zm-.8,12.1H21.7a.9.9,0,0,1-.9-.9V45.8H43.2v9.5a.9.9,0,0,1-.8.9ZM51,31.1a5.2,5.2,0,0,1,5.2,5.2A5.2,5.2,0,0,1,51,41.5H44.3a2.5,2.5,0,0,0-1.9-.9H35.7a.9.9,0,0,1-.8-.4l-.8-1.6a2.4,2.4,0,0,0-2.3-1.4H21.6a2.5,2.5,0,0,0-2.5,2.6v1.7H13a5.2,5.2,0,0,1-5.2-5.2A5.3,5.3,0,0,1,13,31.1h.7a.8.8,0,0,0,.9-.8.6.6,0,0,0-.1-.4A7.8,7.8,0,0,1,28,22.3a.8.8,0,0,0,1.2.2.6.6,0,0,0,.3-.6A10.4,10.4,0,0,1,39.8,13h.8v3.4a.8.8,0,0,0,.7.8l1.1.3-.6,1a.9.9,0,0,0,.1,1l2.5,2.5a.9.9,0,0,0,1,.1l1-.6.3,1.1a.8.8,0,0,0,.8.7h2.6a9.7,9.7,0,0,1-2.2,6.3.8.8,0,0,0,.2,1.2c.1.2.3.2.5.2Zm5.2-15.3-1.6.4a.9.9,0,0,0-.7,1,.4.4,0,0,1,.1.3l.9,1.4-1.5,1.5L52,19.5a1,1,0,0,0-1.2.3c0,.1-.1.2-.1.3l-.4,1.5H48.2l-.4-1.5a.9.9,0,0,0-1-.7h-.3l-1.4.9-1.5-1.5.9-1.4a.9.9,0,0,0-.3-1.2H44l-1.6-.4V13.7l1.5-.4a.9.9,0,0,0,.7-1.1V12l-.9-1.4,1.5-1.5,1.4.9a.9.9,0,0,0,1.2-.3.4.4,0,0,0,.1-.3l.4-1.6h2.1l.4,1.6a.9.9,0,0,0,1.1.7H52l1.4-.9,1.5,1.5L54,12a1,1,0,0,0,.3,1.2h.3l1.6.4Z"/><path id="Path_2001" data-name="Path 2001" class="cls-1" d="M49.3,11.3a3.5,3.5,0,0,0-3.5,3.4,3.5,3.5,0,0,0,3.5,3.5,3.5,3.5,0,0,0,3.4-3.5,3.4,3.4,0,0,0-3.4-3.4Zm0,5.2a1.8,1.8,0,0,1-1.8-1.8A1.8,1.8,0,0,1,49.3,13,1.8,1.8,0,0,1,51,14.7h0A1.8,1.8,0,0,1,49.3,16.5Z"/><path id="Path_2002" data-name="Path 2002" class="cls-1" d="M32.5,23.5a.9.9,0,0,0-1,0l-6.9,5.2a.8.8,0,0,0-.2,1.2,1,1,0,0,0,.7.4h3.5v4.3a.7.7,0,0,0,.8.8h5.2a.8.8,0,0,0,.9-.8V30.3h3.4a.9.9,0,0,0,.9-.9.8.8,0,0,0-.4-.7Zm2.1,5a.9.9,0,0,0-.9.9v4.3H30.3V29.4a.9.9,0,0,0-.9-.9H27.7L32,25.3l4.3,3.2Z"/></g></svg>