<svg id="Layer_1" data-name="Layer 1" xmlns="http://www.w3.org/2000/svg" viewBox="0 0 1280 715"><defs><style>.cls-1,.cls-3{fill:none;stroke-miterlimit:10;stroke-width:5px;}.cls-1{stroke:#e2e2e2;stroke-dasharray:6;}.cls-2{fill:#ededed;}.cls-3{stroke:#82c35b;}.cls-4{fill:#2f3293;}.cls-12,.cls-18,.cls-5,.cls-6{isolation:isolate;}.cls-12,.cls-18,.cls-6{font-size:14.33px;font-family:Roboto-Regular, Roboto;}.cls-12,.cls-6{fill:#484848;}.cls-7{letter-spacing:-0.02em;}.cls-8{letter-spacing:-0.01em;}.cls-9{letter-spacing:-0.01em;}.cls-10{letter-spacing:-0.01em;}.cls-11{letter-spacing:0em;}.cls-12,.cls-32{letter-spacing:-0.01em;}.cls-13{letter-spacing:-0.01em;}.cls-14{letter-spacing:-0.01em;}.cls-15{letter-spacing:-0.01em;}.cls-16{letter-spacing:0.01em;}.cls-17{letter-spacing:-0.02em;}.cls-18{fill:#fff;}.cls-19{letter-spacing:-0.01em;}.cls-20{letter-spacing:0.01em;}.cls-21{letter-spacing:-0.06em;}.cls-22{letter-spacing:0em;}.cls-23{letter-spacing:-0.01em;}.cls-24{letter-spacing:-0.04em;}.cls-25{letter-spacing:-0.05em;}.cls-26{letter-spacing:-0.05em;}.cls-27{letter-spacing:0.01em;}.cls-28{letter-spacing:0.02em;}.cls-29{letter-spacing:-0.05em;}.cls-30{letter-spacing:-0.01em;}.cls-31{letter-spacing:0em;}.cls-33{letter-spacing:-0.16em;}.cls-34{letter-spacing:0em;}.cls-35{letter-spacing:-0.01em;}.cls-36{letter-spacing:-0.02em;}.cls-37{letter-spacing:-0.01em;}.cls-38{letter-spacing:-0.11em;}.cls-39{letter-spacing:-0.02em;}.cls-40{letter-spacing:-0.01em;}.cls-41{letter-spacing:-0.01em;}.cls-42{letter-spacing:0.02em;}</style></defs><g id="Group_95" data-name="Group 95"><line id="Line_2" data-name="Line 2" class="cls-1" x1="331.4" y1="232.9" x2="331.4" y2="309.4"/><line id="Line_1" data-name="Line 1" class="cls-1" x1="141.6" y1="427" x2="141.6" y2="503.5"/><circle id="Ellipse_26" data-name="Ellipse 26" class="cls-2" cx="141.6" cy="368.4" r="77.4"/><g id="Group_96" data-name="Group 96"><g id="Group_90" data-name="Group 90"><path id="Path_54" data-name="Path 54" class="cls-3" d="M48.7,368a93.8,93.8,0,0,1,185.4-19.8"/><circle id="Ellipse_27" data-name="Ellipse 27" class="cls-3" cx="48.4" cy="374.6" r="6.6"/></g></g><g id="Group_97" data-name="Group 97"><g id="Group_90-2" data-name="Group 90-2"><path id="Path_54-2" data-name="Path 54-2" class="cls-3" d="M236.3,374.1c0,49.5,42,89.6,93.7,89.6,45,0,82.6-30.3,91.7-70.7"/><circle id="Ellipse_27-2" data-name="Ellipse 27-2" class="cls-3" cx="235.9" cy="367.5" r="6.6"/></g></g><circle id="Ellipse_28" data-name="Ellipse 28" class="cls-2" cx="331.4" cy="368.4" r="77.4"/><path id="Rectangle_46" data-name="Rectangle 46" class="cls-4" d="M277.1,183.4H386.7a27.4,27.4,0,0,1,27.4,27.3h0a27.4,27.4,0,0,1-27.4,27.4H277.1a27.4,27.4,0,0,1-27.3-27.4h0A27.3,27.3,0,0,1,277.1,183.4Z"/><path id="Rectangle_47" data-name="Rectangle 47" class="cls-4" d="M84.8,488H194.4a27.4,27.4,0,0,1,27.4,27.3h0a27.4,27.4,0,0,1-27.4,27.4H84.8a27.4,27.4,0,0,1-27.4-27.4h0A27.4,27.4,0,0,1,84.8,488Z"/><g id="We_protect_your_data_and_devices_by_deploying_multiple_firewalls_and_security_protocols._We_make_sure_your_data_is_always_protected_and_encrypted_at_rest_and_in_transit." data-name="We protect your data and devices by deploying multiple firewalls and security protocols. We make sure your data is always protected and encrypted at rest and in transit." class="cls-5"><text class="cls-6" transform="translate(34.1 586.8)"><tspan class="cls-7">W</tspan><tspan x="12.5" y="0">e p</tspan><tspan class="cls-8" x="31.7" y="0">r</tspan><tspan x="36.4" y="0">otect </tspan><tspan class="cls-9" x="72.6" y="0">y</tspan><tspan x="79.3" y="0">our data and d</tspan><tspan class="cls-10" x="171.1" y="0">e</tspan><tspan class="cls-11" x="178.6" y="0">vices</tspan></text><text class="cls-12" transform="translate(30.6 608.3)">b<tspan class="cls-11" x="8" y="0">y depl</tspan><tspan class="cls-13" x="45.5" y="0">o</tspan><tspan class="cls-11" x="53.6" y="0">ying multiple fi</tspan><tspan class="cls-14" x="146.6" y="0">r</tspan><tspan class="cls-11" x="151.3" y="0">ewalls and</tspan></text><text class="cls-6" transform="translate(17.3 629.8)">security p<tspan class="cls-15" x="61.8" y="0">r</tspan><tspan x="66.5" y="0">o</tspan><tspan class="cls-8" x="74.7" y="0">t</tspan><tspan x="79.2" y="0">ocols. </tspan><tspan class="cls-7" x="121.3" y="0">W</tspan><tspan x="133.8" y="0">e ma</tspan><tspan class="cls-8" x="165.3" y="0">k</tspan><tspan x="172.4" y="0">e su</tspan><tspan class="cls-14" x="198.8" y="0">r</tspan><tspan class="cls-11" x="203.5" y="0">e, </tspan><tspan class="cls-13" x="217.5" y="0">y</tspan><tspan class="cls-11" x="224.2" y="0">our</tspan></text><text class="cls-6" transform="translate(14 651.3)">data is alw<tspan class="cls-13" x="68.4" y="0">a</tspan><tspan x="76.1" y="0">ys p</tspan><tspan class="cls-15" x="101.8" y="0">r</tspan><tspan x="106.5" y="0">otected and enc</tspan><tspan class="cls-16" x="208.8" y="0">r</tspan><tspan class="cls-11" x="213.7" y="0">ypted,</tspan></text><text class="cls-6" transform="translate(74.6 672.8)">at <tspan class="cls-14" x="16" y="0">r</tspan><tspan class="cls-11" x="20.7" y="0">est and in t</tspan><tspan class="cls-17" x="90.9" y="0">r</tspan><tspan x="95.5" y="0">ansit.</tspan></text></g><g id="Industry_Leading_Security" data-name="Industry Leading Security" class="cls-5"><text class="cls-18" transform="translate(87 509.2)">Indust<tspan class="cls-16" x="39.9" y="0">r</tspan><tspan class="cls-11" x="44.8" y="0">y Leading</tspan></text><text class="cls-18" transform="translate(114.2 527.1)">Security</text></g><g id="Performance_and_High_availability" data-name="Performance and High availability" class="cls-5"><text class="cls-18" transform="translate(277.1 205.7)"><tspan class="cls-19">P</tspan><tspan class="cls-11" x="9" y="0">e</tspan><tspan class="cls-20" x="16.5" y="0">r</tspan><tspan x="21.5" y="0">formance and</tspan></text><text class="cls-18" transform="translate(282.1 223.7)">High <tspan class="cls-13" x="33.2" y="0">av</tspan><tspan x="47.7" y="0">ailability</tspan></text></g><g id="As_we_use_only_the_top_cloud_service_provider_we_guarantee_the_availability_of_our_application_at_all_times._Also_as_we_deploy_our_application_at_a_data_center_closest_to_your_region_we_assure_that_you_won_t_have_any_network_latency." data-name="As we use only the top cloud service provider we guarantee the availability of our application at all times. Also as we deploy our application at a data center closest to your region we assure that you won t have any network latency." class="cls-5"><text class="cls-6" transform="translate(216.8 43.3)">As we use only the <tspan class="cls-15" x="122.3" y="0">t</tspan><tspan x="126.8" y="0">op cloud se</tspan><tspan class="cls-16" x="200.2" y="0">r</tspan><tspan x="205.2" y="0">vice</tspan></text><text class="cls-6" transform="translate(192.9 64.8)">p<tspan class="cls-8" x="8" y="0">r</tspan><tspan class="cls-13" x="12.8" y="0">o</tspan><tspan x="20.8" y="0">vide</tspan><tspan class="cls-21" x="46.9" y="0">r</tspan><tspan class="cls-22" x="50.9" y="0">, we gua</tspan><tspan class="cls-17" x="102.9" y="0">r</tspan><tspan x="107.5" y="0">antee the </tspan><tspan class="cls-13" x="170.4" y="0">av</tspan><tspan x="184.9" y="0">ailability of our</tspan></text><text class="cls-6" transform="translate(187 86.3)">application at all times. Also as we depl<tspan class="cls-13" x="251.1" y="0">o</tspan><tspan class="cls-11" x="259.2" y="0">y our</tspan></text><text class="cls-6" transform="translate(196.9 107.8)">application at a data center closest <tspan class="cls-8" x="226.7" y="0">t</tspan><tspan x="231.2" y="0">o </tspan><tspan class="cls-13" x="242.9" y="0">y</tspan><tspan class="cls-11" x="249.6" y="0">our</tspan></text><text class="cls-6" transform="translate(200.7 129.3)"><tspan class="cls-23">r</tspan><tspan x="4.7" y="0">egion, we assu</tspan><tspan class="cls-23" x="98.7" y="0">r</tspan><tspan x="103.4" y="0">e that </tspan><tspan class="cls-9" x="143.1" y="0">y</tspan><tspan x="149.8" y="0">ou wo</tspan><tspan class="cls-24" x="188.4" y="0">n</tspan><tspan x="195.7" y="0">’t h</tspan><tspan class="cls-13" x="214.7" y="0">a</tspan><tspan class="cls-10" x="222.4" y="0">v</tspan><tspan x="229.3" y="0">e any</tspan></text><text class="cls-6" transform="translate(280.4 150.8)">network latenc<tspan class="cls-25" x="93.8" y="0">y</tspan><tspan x="99.8" y="0">.</tspan></text></g><line id="Line_2-2" data-name="Line 2-2" class="cls-1" x1="710.1" y1="232.9" x2="710.1" y2="309.4"/><line id="Line_1-2" data-name="Line 1-2" class="cls-1" x1="521.5" y1="427" x2="521.5" y2="503.5"/><circle id="Ellipse_26-2" data-name="Ellipse 26-2" class="cls-2" cx="521.5" cy="368.4" r="77.4"/><circle id="Ellipse_28-2" data-name="Ellipse 28-2" class="cls-2" cx="710.1" cy="368.4" r="77.4"/><path id="Rectangle_46-2" data-name="Rectangle 46-2" class="cls-4" d="M655.8,183.4H765.4a27.4,27.4,0,0,1,27.4,27.3h0a27.4,27.4,0,0,1-27.4,27.4H655.8a27.4,27.4,0,0,1-27.4-27.4h0A27.4,27.4,0,0,1,655.8,183.4Z"/><path id="Path_56" data-name="Path 56" class="cls-4" d="M476.6,488h85.7a27.4,27.4,0,1,1,0,54.7H476.6a27.4,27.4,0,0,1,0-54.7Z"/><g id="Be_it_100_or_100_000_users_Mentor_ERP_s_architecture_is_very_robust_and_it_has_the_capacity_to_handle_your_needs_effortlessly._Plenty_of_provisions_available_to_accommodate_new_features_as_your_Institution_needs_expand." data-name="Be it 100 or 100 000 users Mentor ERP s architecture is very robust and it has the capacity to handle your needs effortlessly. Plenty of provisions available to accommodate new features as your Institution needs expand." class="cls-5"><text class="cls-6" transform="translate(391.3 586.8)">Be it 100 or 100,000 users, Men<tspan class="cls-8" x="200.2" y="0">t</tspan><tspan x="204.8" y="0">or ERP</tspan><tspan class="cls-26" x="247.4" y="0">’</tspan><tspan class="cls-22" x="249.4" y="0">s</tspan></text><text class="cls-6" transform="translate(392.7 608.3)">a<tspan class="cls-23" x="7.8" y="0">r</tspan><tspan x="12.5" y="0">chitectu</tspan><tspan class="cls-23" x="63.8" y="0">r</tspan><tspan x="68.5" y="0">e is </tspan><tspan class="cls-10" x="94" y="0">v</tspan><tspan x="100.9" y="0">e</tspan><tspan class="cls-27" x="108.5" y="0">r</tspan><tspan x="113.5" y="0">y </tspan><tspan class="cls-8" x="123.8" y="0">r</tspan><tspan x="128.5" y="0">obust and it has the</tspan></text><text class="cls-6" transform="translate(385.9 629.8)">capacity <tspan class="cls-15" x="57.1" y="0">t</tspan><tspan x="61.7" y="0">o handle </tspan><tspan class="cls-13" x="119.7" y="0">y</tspan><tspan x="126.4" y="0">our needs effo</tspan><tspan class="cls-28" x="218.7" y="0">r</tspan><tspan x="223.9" y="0">tlessl</tspan><tspan class="cls-29" x="257.9" y="0">y</tspan><tspan x="264" y="0">.</tspan></text><text class="cls-6" transform="translate(371.1 651.3)">Plenty of p<tspan class="cls-15" x="67.8" y="0">r</tspan><tspan class="cls-13" x="72.5" y="0">o</tspan><tspan x="80.6" y="0">visions </tspan><tspan class="cls-13" x="128.9" y="0">av</tspan><tspan x="143.4" y="0">ailable </tspan><tspan class="cls-15" x="188.6" y="0">t</tspan><tspan x="193.2" y="0">o accommodate</tspan></text><text class="cls-6" transform="translate(419.8 672.8)">new <tspan class="cls-30" x="29.8" y="0">f</tspan><tspan x="34.6" y="0">eatu</tspan><tspan class="cls-23" x="62.6" y="0">r</tspan><tspan x="67.3" y="0">es as </tspan><tspan class="cls-13" x="104.6" y="0">y</tspan><tspan x="111.3" y="0">our Institution</tspan></text><text class="cls-6" transform="translate(473.5 694.3)">needs expand.</text></g><g id="Scalable" class="cls-5"><text class="cls-18" transform="translate(492.6 521.1)">Scalable</text></g><g id="Cost-effective_delivery_model" data-name="Cost-effective delivery model" class="cls-5"><text class="cls-18" transform="translate(666.6 205.7)">Cost-ef<tspan class="cls-30" x="46.1" y="0">f</tspan><tspan class="cls-31" x="50.9" y="0">ecti</tspan><tspan class="cls-10" x="74.2" y="0">v</tspan><tspan x="81" y="0">e</tspan></text><text class="cls-18" transform="translate(664.7 223.7)">deli<tspan class="cls-10" x="22.6" y="0">v</tspan><tspan x="29.5" y="0">e</tspan><tspan class="cls-16" x="37.1" y="0">r</tspan><tspan x="42.1" y="0">y model</tspan></text></g><g id="Mentor_ERP_being_Cloud-based_Software_as_a_Service_there_is_no_hardware_or_software_to_install_or_maintain._System_maintenance_is_shouldered_by_Mentor_ERP_you_pay_only_for_what_you_use._There_is_NO_HIDDEN_COST_we_help_you_minimiise_your_operational_exp" data-name="Mentor ERP being Cloud-based Software as a Service there is no hardware or software to install or maintain. System maintenance is shouldered by Mentor ERP you pay only for what you use. There is NO HIDDEN COST we help you minimiise your operational exp" class="cls-5"><text class="cls-6" transform="translate(572.5 43.3)">Men<tspan class="cls-15" x="28" y="0">t</tspan><tspan x="32.6" y="0">or ERP being Cloud-based Softwa</tspan><tspan class="cls-23" x="245.6" y="0">r</tspan><tspan x="250.3" y="0">e as</tspan></text><text class="cls-6" transform="translate(566.3 64.8)">a Se<tspan class="cls-16" x="27.4" y="0">r</tspan><tspan x="32.4" y="0">vice, the</tspan><tspan class="cls-23" x="84.5" y="0">r</tspan><tspan class="cls-31" x="89.2" y="0">e is no ha</tspan><tspan class="cls-23" x="150.1" y="0">r</tspan><tspan x="154.8" y="0">dwa</tspan><tspan class="cls-23" x="181.5" y="0">r</tspan><tspan x="186.2" y="0">e, or softwa</tspan><tspan class="cls-23" x="260.5" y="0">r</tspan><tspan x="265.2" y="0">e </tspan><tspan class="cls-15" x="276.4" y="0">t</tspan><tspan x="280.9" y="0">o</tspan></text><text class="cls-6" transform="translate(576.1 86.3)">install or maintain. System maintenance is</text><text class="cls-6" transform="translate(557.4 107.8)">shoulde<tspan class="cls-14" x="50.5" y="0">r</tspan><tspan class="cls-11" x="55.2" y="0">ed </tspan><tspan class="cls-32" x="74.5" y="0">b</tspan><tspan class="cls-22" x="82.4" y="0">y Men</tspan><tspan class="cls-15" x="120.8" y="0">t</tspan><tspan x="125.3" y="0">or ER</tspan><tspan class="cls-33" x="158.9" y="0">P</tspan><tspan class="cls-34" x="165.6" y="0">, </tspan><tspan class="cls-35" x="172" y="0">y</tspan><tspan x="178.7" y="0">ou p</tspan><tspan class="cls-35" x="206.4" y="0">a</tspan><tspan x="214" y="0">y only for what</tspan></text><text class="cls-6" transform="translate(558.2 129.3)"><tspan class="cls-13">y</tspan><tspan class="cls-11" x="6.7" y="0">ou use.</tspan><tspan class="cls-36" x="53" y="0"> </tspan><tspan x="56.2" y="0">The</tspan><tspan class="cls-37" x="80.3" y="0">r</tspan><tspan x="85" y="0">e is NO HIDDEN COS</tspan><tspan class="cls-38" x="216.7" y="0">T</tspan><tspan x="223.7" y="0">, we help </tspan><tspan class="cls-9" x="282.6" y="0">y</tspan><tspan class="cls-31" x="289.2" y="0">ou</tspan></text><text class="cls-6" transform="translate(592.7 150.8)">minimiise <tspan class="cls-9" x="65.5" y="0">y</tspan><tspan class="cls-31" x="72.2" y="0">our ope</tspan><tspan class="cls-39" x="120.5" y="0">r</tspan><tspan class="cls-31" x="125" y="0">ational expenses.</tspan></text></g><g id="Group_60" data-name="Group 60"><g id="cloud-computing"><path id="Path_20" data-name="Path 20" class="cls-4" d="M734.3,380.3a6.5,6.5,0,0,0-6.3,4.8H717.7a6.5,6.5,0,0,0-4.5-4.6V374h17a10.4,10.4,0,0,0,.8-20.7,9.2,9.2,0,0,0-10.1-8.3l-1.8.4a11,11,0,0,0-22,.3v.8h-.9a13.8,13.8,0,1,0,0,27.5h13.6v6.5a6.8,6.8,0,0,0-4.6,4.6H694.9a6.5,6.5,0,1,0-4.5,7.9,6.4,6.4,0,0,0,4.5-4.5h10.3a6.6,6.6,0,0,0,8,4.5,6.4,6.4,0,0,0,4.5-4.5H728a6.5,6.5,0,0,0,12.5-3.5A6.4,6.4,0,0,0,734.3,380.3Zm-48.5-20.1a10.4,10.4,0,0,1,10.4-10.3h4.4v-4.2a7.5,7.5,0,0,1,7.5-7.6,7.6,7.6,0,0,1,7.6,7.6h0v5.8l2.7-2a6,6,0,0,1,3.4-1.1,5.8,5.8,0,0,1,5.8,5.8v.6l-.2,1.9h2.8a7,7,0,0,1,0,13.9h-34A10.5,10.5,0,0,1,685.8,360.2Zm2.9,29.6a3.1,3.1,0,1,1,3-3h0A3.1,3.1,0,0,1,688.7,389.8Zm22.8,0a3.1,3.1,0,1,1,0-6.1,3,3,0,0,1,3,3.1h0a3,3,0,0,1-3,3Zm22.8,0a3.1,3.1,0,1,1,3-3h0a3.1,3.1,0,0,1-3,3Z"/></g></g><line id="Line_2-3" data-name="Line 2-3" class="cls-1" x1="1090" y1="232.9" x2="1090" y2="309.4"/><line id="Line_1-3" data-name="Line 1-3" class="cls-1" x1="901.4" y1="427" x2="901.4" y2="503.5"/><circle id="Ellipse_26-3" data-name="Ellipse 26-3" class="cls-2" cx="901.4" cy="368.4" r="77.4"/><circle id="Ellipse_28-3" data-name="Ellipse 28-3" class="cls-2" cx="1090" cy="368.4" r="77.4"/><path id="Rectangle_46-3" data-name="Rectangle 46-3" class="cls-4" d="M1035.7,183.4h109.6a27.3,27.3,0,0,1,27.3,27.3h0a27.4,27.4,0,0,1-27.3,27.4H1035.7a27.4,27.4,0,0,1-27.4-27.4h0A27.4,27.4,0,0,1,1035.7,183.4Z"/><path id="Path_55" data-name="Path 55" class="cls-4" d="M836.2,488H963.7a27.4,27.4,0,1,1,0,54.7H836.2a27.4,27.4,0,1,1,0-54.7Z"/><g id="We_can_configure_and_personalise_Mentor_ERP_to_match_your_organisation_s_branding._We_would_help_integrate_Mentor_ERP_with_any_of_your_existing_applications_payment_gateways_bio-metric_systems_SMS_Gateways_and_GPS_navigation_systems." data-name="We can configure and personalise Mentor ERP to match your organisation s branding. We would help integrate Mentor ERP with any of your existing applications payment gateways bio-metric systems SMS Gateways and GPS navigation systems." class="cls-5"><text class="cls-6" transform="translate(792.2 586.8)"><tspan class="cls-7">W</tspan><tspan x="12.5" y="0">e can configu</tspan><tspan class="cls-23" x="98.4" y="0">r</tspan><tspan x="103.1" y="0">e and personalise</tspan></text><text class="cls-6" transform="translate(738.7 608.3)">Men<tspan class="cls-15" x="28" y="0">t</tspan><tspan class="cls-31" x="32.6" y="0">or ERP </tspan><tspan class="cls-15" x="78.7" y="0">t</tspan><tspan x="83.2" y="0">o match </tspan><tspan class="cls-35" x="139" y="0">y</tspan><tspan x="145.6" y="0">our o</tspan><tspan class="cls-23" x="178.3" y="0">r</tspan><tspan class="cls-34" x="183" y="0">ganisatio</tspan><tspan class="cls-24" x="241.8" y="0">n</tspan><tspan class="cls-26" x="249.1" y="0">’</tspan><tspan x="251.2" y="0">s b</tspan><tspan class="cls-36" x="270.2" y="0">r</tspan><tspan class="cls-34" x="274.7" y="0">anding.</tspan></text><text class="cls-6" transform="translate(731.9 629.8)"><tspan class="cls-7">W</tspan><tspan x="12.5" y="0">e would help integ</tspan><tspan class="cls-39" x="127.9" y="0">r</tspan><tspan x="132.4" y="0">ate Men</tspan><tspan class="cls-15" x="184.1" y="0">t</tspan><tspan class="cls-31" x="188.6" y="0">or ERP with any of </tspan><tspan class="cls-9" x="307.9" y="0">y</tspan><tspan class="cls-31" x="314.6" y="0">our</tspan></text><text class="cls-6" transform="translate(735.8 651.3)">existing applications, p<tspan class="cls-35" x="145.4" y="0">a</tspan><tspan x="153.1" y="0">yment gatew</tspan><tspan class="cls-35" x="235.1" y="0">a</tspan><tspan x="242.8" y="0">ys, bio-metric</tspan></text><text class="cls-6" transform="translate(792.7 672.8)">systems, SMS Gatew<tspan class="cls-35" x="133.8" y="0">a</tspan><tspan x="141.5" y="0">ys and GPS</tspan></text><text class="cls-6" transform="translate(836 694.3)">n<tspan class="cls-35" x="7.9" y="0">a</tspan><tspan x="15.6" y="0">vigation systems.</tspan></text></g><g id="Flexible_Consultative_approach" data-name="Flexible Consultative approach" class="cls-5"><text class="cls-18" transform="translate(873.9 509.2)">Flexible,</text><text class="cls-18" transform="translate(828.2 527.1)">Consultati<tspan class="cls-40" x="64.8" y="0">v</tspan><tspan x="71.7" y="0">e app</tspan><tspan class="cls-15" x="106.7" y="0">r</tspan><tspan class="cls-31" x="111.4" y="0">oach</tspan></text></g><g id="Mobile_Friendly" data-name="Mobile Friendly" class="cls-5"><text class="cls-18" transform="translate(1042.4 215.3)">Mobile <tspan class="cls-41" x="46.8" y="0">F</tspan><tspan x="54.6" y="0">riendly</tspan></text></g><g id="Access_Mentor_ERP_on_the_go_with_our_state_of_the_art_mobile_version_for_iOS_and_Android_with_all_the_security_and_robustness.Helps_you_actively_engage_in_day_to_day_activities_tracking_attendance_applying_leave_etc._made_it_easier_with_our_mobile_app" data-name="Access Mentor ERP on the go with our state of the art mobile version for iOS and Android with all the security and robustness.Helps you actively engage in day to day activities tracking attendance applying leave etc. made it easier with our mobile app" class="cls-5"><text class="cls-6" transform="translate(942.8 43.3)">Access Men<tspan class="cls-15" x="78.3" y="0">t</tspan><tspan class="cls-31" x="82.8" y="0">or ERP on the go with our state of</tspan></text><text class="cls-6" transform="translate(941.3 64.8)">the a<tspan class="cls-42" x="31.5" y="0">r</tspan><tspan x="36.7" y="0">t mobile </tspan><tspan class="cls-10" x="91.8" y="0">v</tspan><tspan x="98.7" y="0">ersion for iOS and And</tspan><tspan class="cls-15" x="241.3" y="0">r</tspan><tspan x="246" y="0">oid, with</tspan></text><text class="cls-6" transform="translate(934.3 86.3)">all the security and <tspan class="cls-15" x="123.1" y="0">r</tspan><tspan class="cls-31" x="127.8" y="0">obustness.Helps </tspan><tspan class="cls-35" x="238.3" y="0">y</tspan><tspan x="245" y="0">ou acti</tspan><tspan class="cls-10" x="288.1" y="0">v</tspan><tspan class="cls-31" x="295" y="0">ely</tspan></text><text class="cls-6" transform="translate(927.5 107.8)">engage in d<tspan class="cls-35" x="73.5" y="0">a</tspan><tspan x="81.2" y="0">y </tspan><tspan class="cls-15" x="91.6" y="0">t</tspan><tspan class="cls-31" x="96.1" y="0">o d</tspan><tspan class="cls-9" x="115.9" y="0">a</tspan><tspan x="123.6" y="0">y activities, t</tspan><tspan class="cls-36" x="202" y="0">r</tspan><tspan class="cls-34" x="206.6" y="0">acking attendance,</tspan></text><text class="cls-6" transform="translate(955 129.3)">applying le<tspan class="cls-9" x="68.2" y="0">a</tspan><tspan class="cls-10" x="75.9" y="0">v</tspan><tspan x="82.7" y="0">e, etc., made it easier with our</tspan></text><text class="cls-6" transform="translate(1053.5 150.8)">mobile app.</text></g><g id="Group_50" data-name="Group 50"><g id="smartphone"><g id="Group_45" data-name="Group 45"><g id="Group_44" data-name="Group 44"><path id="Path_25" data-name="Path 25" class="cls-4" d="M1105.3,342.9h-30.4a4.9,4.9,0,0,0-4.9,4.9v45.8a4.9,4.9,0,0,0,4.9,4.9h30.4a4.9,4.9,0,0,0,4.9-4.9V347.8A4.9,4.9,0,0,0,1105.3,342.9Zm1.6,50.7a1.6,1.6,0,0,1-1.6,1.6h-30.4a1.6,1.6,0,0,1-1.6-1.6v-8h33.6Zm0-11.3h-33.6V353h33.6Zm0-32.5h-33.6v-2a1.6,1.6,0,0,1,1.6-1.6h30.4a1.6,1.6,0,0,1,1.6,1.6Z"/></g></g><g id="Group_47" data-name="Group 47"><g id="Group_46" data-name="Group 46"><path id="Path_26" data-name="Path 26" class="cls-4" d="M1099,361.3a1.7,1.7,0,0,0-2.3,0l-9.3,9.3-3.9-3.9a1.6,1.6,0,0,0-2.3,0,1.7,1.7,0,0,0,0,2.3l5.1,5a1.5,1.5,0,0,0,2.3,0l10.4-10.4a1.5,1.5,0,0,0,0-2.3Z"/></g></g><g id="Group_49" data-name="Group 49"><g id="Group_48" data-name="Group 48"><path id="Path_27" data-name="Path 27" class="cls-4" d="M1094.5,388.8h-8.7a1.6,1.6,0,1,0,0,3.2h8.7a1.6,1.6,0,1,0,0-3.2Z"/></g></g></g></g><g id="Group_98" data-name="Group 98"><g id="Group_90-3" data-name="Group 90-3"><path id="Path_54-3" data-name="Path 54-3" class="cls-3" d="M427.4,368a93.8,93.8,0,0,1,185.4-19.8"/><circle id="Ellipse_27-3" data-name="Ellipse 27-3" class="cls-3" cx="427.1" cy="374.6" r="6.6"/></g></g><g id="Group_51" data-name="Group 51"><g id="partnership-handshake"><path id="Path_22" data-name="Path 22" class="cls-4" d="M935.5,359.4l-12-15.6a1.5,1.5,0,0,0-1.9-.3l-7.7,4.9H903.4l-7.8,2.3-8.2-2.3-7.8-5a1.5,1.5,0,0,0-1.9.3l-13.2,16.4a1.5,1.5,0,0,0,.1,2l7,6,6.2,8.4a4.9,4.9,0,0,0,.2,7,5.1,5.1,0,0,0,2.9,1.3v.7a4.9,4.9,0,0,0,4.9,5h.1a4.9,4.9,0,0,0,4.9,5h.8a5.1,5.1,0,0,0,5.5,4.5,5.7,5.7,0,0,0,3-1.5l.7-.7.3.2a5,5,0,0,0,8.5-3.6,5,5,0,0,0,5-4.9h0a5,5,0,0,0,5-4.9v-.2a5,5,0,0,0,5.1-4.9,5.3,5.3,0,0,0-.8-2.7l4.5-9.6,6.9-5.9A1.5,1.5,0,0,0,935.5,359.4Zm-56.4-12.8,5.7,3.6-12.4,15-4.9-4.3Zm.8,31.8,1.7-1.7h.2a1.7,1.7,0,0,1,1.2-.5h.2a1.8,1.8,0,0,1,1.5.7,2.1,2.1,0,0,1-.1,3l-1.6,1.7a2.2,2.2,0,0,1-3.1-3.1Zm4.4,8.8a2.3,2.3,0,0,1,0-3.1h0l3.3-3.3a2.3,2.3,0,0,1,2.5-.4,2.2,2.2,0,0,1,1.2,2.2,2.1,2.1,0,0,1-.7,1.3l-3.2,3.3a2.3,2.3,0,0,1-3.1,0Zm5,5a2.2,2.2,0,0,1,0-3h0l3.4-3.3a2.1,2.1,0,0,1,2.6-.4,2.3,2.3,0,0,1,1,2.2,2.4,2.4,0,0,1-.7,1.3l-3.2,3.2a2.1,2.1,0,0,1-3.1,0Zm5.7,4.4a2.2,2.2,0,0,1,0-3h0l1.8-1.7c0-.1.1-.1.1-.2h0l1-.4h.4a2,2,0,0,1,1.5.6c.1.1.1.2.2.2a2.3,2.3,0,0,1-.3,2.9l-1.6,1.7a2.3,2.3,0,0,1-3.1,0ZM921.2,381a2.2,2.2,0,0,1-3,0h0a.1.1,0,0,0-.1-.1l-9-9.1a1.3,1.3,0,0,0-2,0,1.2,1.2,0,0,0,0,1.9h0l9.1,9.3h0a2.2,2.2,0,0,1,0,3,2.1,2.1,0,0,1-3.1,0l-6.1-6.2a1.4,1.4,0,0,0-1.9,0,1.4,1.4,0,0,0-.1,2l6.1,6.1a.1.1,0,0,0,.1.1,2.3,2.3,0,0,1,0,3.1,2.2,2.2,0,0,1-3.1-.1l-3.3-3.3a1.4,1.4,0,0,0-2,2h0l3.2,3.2a.1.1,0,0,0,.1.1,2.1,2.1,0,0,1,0,3.1,2.2,2.2,0,0,1-3,0l-.3-.3c-.1,0-.2-.1-.1-.2s.1-.2.1-.3.1-.3.2-.4a5.5,5.5,0,0,0,.2-2.2,4.9,4.9,0,0,0-4.2-4.2,4.9,4.9,0,0,0-1.2-4.5,4.8,4.8,0,0,0-3.6-1.6h-.1a4.8,4.8,0,0,0-4.8-5H888a5,5,0,0,0-5.6-4.2,5.8,5.8,0,0,0-2.6,1.3l-5.4-7.4,13-15.8,4.1,1.2-5.4,9.5a5.1,5.1,0,0,0,1.9,6.8h.2l.6.2a4.8,4.8,0,0,0,5.9-2.2l3.6-6.2,6.2.4,16.7,16.7a2.1,2.1,0,0,1,0,3.1Zm.6-6.5-15.7-15.6h0l-.8-.3-7.7-.6a1.4,1.4,0,0,0-1.3.7l-4,7a2.1,2.1,0,0,1-2.9.8,2.1,2.1,0,0,1-.8-2.9l5.2-9.3,2.2-.6h0l8-2.4h9.6l12,15.3Zm5.7-10.2-11.2-14.1,5.7-3.6,10.4,13.5Z"/></g></g><g id="Group_99" data-name="Group 99"><g id="Group_90-4" data-name="Group 90-4"><path id="Path_54-4" data-name="Path 54-4" class="cls-3" d="M615,374.1c0,49.5,41.9,89.6,93.7,89.6,45,0,82.6-30.3,91.6-70.7"/><circle id="Ellipse_27-4" data-name="Ellipse 27-4" class="cls-3" cx="614.6" cy="367.5" r="6.6"/></g></g><g id="Group_100" data-name="Group 100"><g id="Group_90-5" data-name="Group 90-5"><path id="Path_54-5" data-name="Path 54-5" class="cls-3" d="M807.3,368a93.8,93.8,0,0,1,185.4-19.8"/><circle id="Ellipse_27-5" data-name="Ellipse 27-5" class="cls-3" cx="806.9" cy="374.6" r="6.6"/></g></g><g id="Group_101" data-name="Group 101"><g id="Group_90-6" data-name="Group 90-6"><path id="Path_54-6" data-name="Path 54-6" class="cls-3" d="M994.8,374.1c0,49.5,42,89.6,93.8,89.6,45,0,82.5-30.3,91.6-70.7"/><circle id="Ellipse_27-6" data-name="Ellipse 27-6" class="cls-3" cx="994.5" cy="367.5" r="6.6"/></g></g><g id="Group_2353" data-name="Group 2353"><path id="Path_1927" data-name="Path 1927" class="cls-4" d="M153.3,356.7h-.8v-2.6a5.7,5.7,0,0,0-5.7-5.6h-4.5a5.6,5.6,0,0,0-5.7,5.6v2.6h-.9a6.2,6.2,0,0,0-6,6.1v12a6.2,6.2,0,0,0,6,6.1h17.6a6.2,6.2,0,0,0,6.1-6.1v-12A6.2,6.2,0,0,0,153.3,356.7Zm-13.1-2.6a2,2,0,0,1,2.1-2h4.5a2,2,0,0,1,2.1,2v2.6h-8.7Zm15.6,20.7a2.5,2.5,0,0,1-2.5,2.5H135.7a2.5,2.5,0,0,1-2.4-2.5v-12a2.5,2.5,0,0,1,2.4-2.5h17.6a2.5,2.5,0,0,1,2.5,2.5Z"/><path id="Path_1928" data-name="Path 1928" class="cls-4" d="M144.5,362.2a5,5,0,0,0-1.8,9.6v2a1.9,1.9,0,0,0,1.8,1.8,1.8,1.8,0,0,0,1.8-1.8v-2a4.9,4.9,0,0,0,2.9-6.4A5.1,5.1,0,0,0,144.5,362.2Zm0,3.6a1.4,1.4,0,0,1,1.4,1.4,1.4,1.4,0,0,1-1.4,1.4,1.3,1.3,0,0,1-1.3-1.4h0A1.3,1.3,0,0,1,144.5,365.8Z"/><path id="Path_1929" data-name="Path 1929" class="cls-4" d="M143.5,394.7a27.9,27.9,0,0,1-27.9-27.9,28.3,28.3,0,0,1,6.3-17.6v6.7a1.7,1.7,0,0,0,1.7,1.6,1.7,1.7,0,0,0,1.6-1.6V344.7H112.8a1.4,1.4,0,0,0-1.5,1.6,1.6,1.6,0,0,0,1.5,1.6h6a31.1,31.1,0,0,0,24.7,50,1.7,1.7,0,0,0,1.7-1.6,1.6,1.6,0,0,0-1.6-1.6Z"/><path id="Path_1930" data-name="Path 1930" class="cls-4" d="M176.1,383.7h-6.5a30.3,30.3,0,0,0,5-16.8,31.1,31.1,0,0,0-31.1-31.1,1.7,1.7,0,0,0-1.6,1.7,1.7,1.7,0,0,0,1.6,1.6,27.7,27.7,0,0,1,27.8,27.8,26.6,26.6,0,0,1-4.2,14.8v-7.1a1.6,1.6,0,0,0-1.6-1.6h0a1.6,1.6,0,0,0-1.6,1.6v12.3h12.3a1.7,1.7,0,0,0,1.6-1.7A1.6,1.6,0,0,0,176.1,383.7Z"/></g><g id="Group_2354" data-name="Group 2354"><path id="Path_1931" data-name="Path 1931" class="cls-4" d="M324.7,349.7a1.9,1.9,0,0,1-1.9-1.8,1.6,1.6,0,0,1,.6-1.3l4.5-4.6-5.2-5.2a1.9,1.9,0,0,1,0-2.6,2,2,0,0,1,2.7,0h0l7.8,7.8-7.2,7.2A1.9,1.9,0,0,1,324.7,349.7Z"/><path id="Path_1932" data-name="Path 1932" class="cls-4" d="M331.3,396.5a28.3,28.3,0,0,1-2.6-56.5,2,2,0,0,1,2,1.7,1.9,1.9,0,0,1-1.7,2.1,24.4,24.4,0,1,0,19.6,7,1.9,1.9,0,0,1,0-2.6,2,2,0,0,1,2.7,0h0a28.3,28.3,0,0,1-20,48.3Z"/><path id="Path_1933" data-name="Path 1933" class="cls-4" d="M331.9,371.2l-11.1-6.9a1.9,1.9,0,1,1,2-3.2h0l8.4,5.3,10.1-11.1a2,2,0,0,1,2.7-.1,1.9,1.9,0,0,1,.1,2.6h0Z"/><path id="Path_1934" data-name="Path 1934" class="cls-4" d="M330.6,388.9a1.8,1.8,0,0,1-1.9-1.8v-4.5a1.9,1.9,0,1,1,3.7,0v4.5a1.8,1.8,0,0,1-1.8,1.8Z"/><path id="Path_1935" data-name="Path 1935" class="cls-4" d="M351.2,370.2h-4.8a1.9,1.9,0,1,1,0-3.7h4.8a1.8,1.8,0,0,1,1.8,1.8A1.8,1.8,0,0,1,351.2,370.2Z"/><path id="Path_1936" data-name="Path 1936" class="cls-4" d="M316.3,370.2h-4.8a1.8,1.8,0,0,1-1.8-1.9,1.8,1.8,0,0,1,1.8-1.8h4.8a1.9,1.9,0,1,1,0,3.7Z"/></g><g id="Group_2355" data-name="Group 2355"><path id="Path_1937" data-name="Path 1937" class="cls-4" d="M550.2,390.9H501.8V341.5a1.8,1.8,0,0,1,1.9-1.8,1.8,1.8,0,0,1,1.8,1.8v45.8h44.7a1.8,1.8,0,0,1,0,3.6Z"/><path id="Path_1938" data-name="Path 1938" class="cls-4" d="M523.3,382.6a1.8,1.8,0,0,1-1.8-1.8V370.7h-9.7a1.8,1.8,0,0,1-1.9-1.8,1.9,1.9,0,0,1,1.9-1.9h13.4v13.8A1.8,1.8,0,0,1,523.3,382.6Z"/><path id="Path_1939" data-name="Path 1939" class="cls-4" d="M532.8,383.1a1.9,1.9,0,0,1-1.8-1.9V360.6H512.1a1.9,1.9,0,0,1-1.8-1.9,1.8,1.8,0,0,1,1.8-1.8h22.5v24.3A1.9,1.9,0,0,1,532.8,383.1Z"/><path id="Path_1940" data-name="Path 1940" class="cls-4" d="M543.2,383a1.9,1.9,0,0,1-1.9-1.8V349.5H511.4a1.9,1.9,0,0,1-1.8-1.9,1.8,1.8,0,0,1,1.8-1.8H545v35.4A1.8,1.8,0,0,1,543.2,383Z"/></g></g></svg>