<svg id="Layer_1" data-name="Layer 1" xmlns="http://www.w3.org/2000/svg" viewBox="0 0 64 64"><defs><style>.cls-1{fill:#fff;}</style></defs><g id="phone"><path id="Path_1" data-name="Path 1" class="cls-1" d="M46,62.8a17.1,17.1,0,0,1-5.9-1.1A63.3,63.3,0,0,1,17.2,47.2,63.3,63.3,0,0,1,2.7,24.3,17.2,17.2,0,0,1,10.8,3.1,17,17,0,0,1,19,1a1.8,1.8,0,0,1,1.9,1.5l3,14.2a1.8,1.8,0,0,1-.5,1.8l-5.2,5.1A51.4,51.4,0,0,0,40.8,46.2L46,41a1.8,1.8,0,0,1,1.7-.6l14.1,3.1a2,2,0,0,1,1.6,1.9,16.7,16.7,0,0,1-2.1,8.2,17.4,17.4,0,0,1-12.8,9ZM17.5,4.9a13.6,13.6,0,0,0-11.9,15A10.8,10.8,0,0,0,6.3,23,58.6,58.6,0,0,0,41.4,58.1,13.5,13.5,0,0,0,58.7,50a11.6,11.6,0,0,0,.7-3.1L47.9,44.4l-5.4,5.4a1.8,1.8,0,0,1-2.2.4A54.5,54.5,0,0,1,14.2,24a1.8,1.8,0,0,1,.3-2.1L20,16.5Z"/></g></svg>