<svg width="64" height="64" xmlns="http://www.w3.org/2000/svg">
 <defs>
  <style>.cls-1{fill:none;}.cls-2{fill:#2f3293;}</style>
 </defs>
 <g>
  <title>background</title>
  <rect fill="none" id="canvas_background" height="602" width="802" y="-1" x="-1"/>
 </g>
 <g>
  <title>Layer 1</title>
  <g stroke="null" id="Ellipse_1">
   <circle stroke="null" id="svg_1" r="9.279211" cy="36.5" cx="-74.720804" class="cls-1"/>
   <path stroke="null" id="svg_2" d="m-8.139461,63.4a-9.309337,30.9 0 1 1 -9.27921,-30.9a-9.309337,30.9 0 0 1 9.27921,30.9zm0,-58.9a-8.465773,28.1 0 1 0 -8.435645,28a-8.465773,28.1 0 0 0 8.435645,-28z" class="cls-2"/>
  </g>
  <g id="Group_1154">
   <path d="m28.1,28.3a5.1,5.1 0 0 0 1.7,4.2a4.7,4.7 0 0 0 3.5,1.5l2.6,0a0.6,0.6 0 0 1 0.5,0.2l4.2,4.2c0.2,0.2 0.1,0.3 -0.1,0.5l-7.9,7.9c-0.3,0.3 -0.4,0.2 -0.6,0l-6.2,-6.2c-2,-2 -3.9,-4 -5.9,-5.9a0.4,0.4 0 0 1 0,-0.6l7.2,-7.1c0.1,-0.1 0.2,-0.4 0.4,-0.3s0.6,0.3 0.6,0.7l0,0.9z" class="cls-2" id="Path_864"/>
   <path d="m33.2,27.7l2.4,0a1,1 0 0 0 0.9,-0.4c0.2,-0.3 0.5,-0.6 0.7,-0.6s0.5,0.4 0.7,0.6l6.8,6.8c0.3,0.2 0.3,0.3 0,0.6l-2.2,2.2c-0.2,0.2 -0.3,0.2 -0.5,0l-4.7,-4.8c-0.2,-0.2 -0.4,-0.3 -0.6,-0.2l-3.7,0a3.1,3.1 0 0 1 -2.8,-2.9l0,-1.1c0,-0.2 0.1,-0.2 0.3,-0.2l2.7,0z" class="cls-2" id="Path_865"/>
   <path d="m42.5,21.3c0.1,0.1 0.2,0.1 0.2,0.2c2.5,2.4 5,4.9 7.4,7.4c0.2,0.1 0.2,0.2 0,0.4l-3.4,3.4c-0.2,0.2 -0.3,0.2 -0.4,0l-7.4,-7.4c-0.2,-0.1 -0.2,-0.2 0,-0.4l3.5,-3.4c0,-0.1 0.1,-0.1 0.1,-0.2z" class="cls-2" id="Path_866"/>
   <path d="m18.2,32.9l-0.2,-0.2l-3.4,-3.4c-0.2,-0.1 -0.2,-0.2 0,-0.4c2.5,-2.4 4.9,-4.9 7.4,-7.4c0.1,-0.1 0.2,-0.1 0.4,0s2.2,2.3 3.4,3.4s0.1,0.2 0,0.4c-2.5,2.5 -5,4.9 -7.4,7.4c-0.1,0.1 -0.2,0.1 -0.2,0.2z" class="cls-2" id="Path_867"/>
  </g>
 </g>
</svg>