<svg id="Layer_1" data-name="Layer 1" xmlns="http://www.w3.org/2000/svg" viewBox="0 0 64 64"><defs><style>.cls-1{fill:#cecece;}.cls-2{fill:#2f3293;}.cls-3{fill:#82c35b;}</style></defs><g id="Group_1149" data-name="Group 1149"><path id="Path_849" data-name="Path 849" class="cls-1" d="M32.6,15.9A23.1,23.1,0,1,0,55.7,39,23.2,23.2,0,0,0,32.6,15.9Zm0,42.6A19.5,19.5,0,1,1,52,39h0A19.4,19.4,0,0,1,32.6,58.5Z"/><g id="Group_1145" data-name="Group 1145"><circle id="Ellipse_36" data-name="Ellipse 36" class="cls-2" cx="30.5" cy="6.5" r="5.4"/><path id="Path_850" data-name="Path 850" class="cls-2" d="M36.2,11a7.2,7.2,0,0,1-10.1,1.2,8,8,0,0,1-1.3-1.3,9.3,9.3,0,0,0-3.5,7.2V19A3.6,3.6,0,0,0,25,22.1H36.1a3.5,3.5,0,0,0,3.6-3.2A9.1,9.1,0,0,0,36.2,11Z"/></g><g id="Group_1146" data-name="Group 1146"><circle id="Ellipse_37" data-name="Ellipse 37" class="cls-2" cx="53.8" cy="37.4" r="5.4"/><path id="Path_851" data-name="Path 851" class="cls-2" d="M59.5,41.8a7.3,7.3,0,0,1-10.2,1.3,7.4,7.4,0,0,1-1.2-1.3A9.1,9.1,0,0,0,44.6,49v.9A3.7,3.7,0,0,0,48.2,53H59.3A3.7,3.7,0,0,0,63,49.8v-1A9.5,9.5,0,0,0,59.5,41.8Z"/></g><g id="Group_1147" data-name="Group 1147"><circle id="Ellipse_38" data-name="Ellipse 38" class="cls-2" cx="10.7" cy="37.4" r="5.4"/><path id="Path_852" data-name="Path 852" class="cls-2" d="M16.4,41.8A7.3,7.3,0,0,1,6.2,43.1a8,8,0,0,1-1.3-1.3A9.1,9.1,0,0,0,1.5,49v.9A3.6,3.6,0,0,0,5.1,53H16.2a3.6,3.6,0,0,0,3.6-3.2,3.4,3.4,0,0,0,.1-1A9.5,9.5,0,0,0,16.4,41.8Z"/></g><g id="Group_1148" data-name="Group 1148"><path id="Path_853" data-name="Path 853" class="cls-3" d="M39.6,36.7a6.3,6.3,0,0,0-6.3-6.3h-.1A6.3,6.3,0,0,0,27,36.6a6.2,6.2,0,0,0,2.9,5.5,1.9,1.9,0,0,1,1,1.7h0a.4.4,0,0,0,.4.4h3.9a.4.4,0,0,0,.4-.4h0A2.4,2.4,0,0,1,36.7,42,6.2,6.2,0,0,0,39.6,36.7Z"/><rect id="Rectangle_1326" data-name="Rectangle 1326" class="cls-3" x="30.9" y="44.9" width="4.7" height="1.25" rx="0.2"/><rect id="Rectangle_1327" data-name="Rectangle 1327" class="cls-3" x="30.9" y="46.8" width="4.7" height="1.25" rx="0.2"/><rect id="Rectangle_1328" data-name="Rectangle 1328" class="cls-3" x="32.9" y="27.9" width="0.7" height="1.6" rx="0.1"/><rect id="Rectangle_1329" data-name="Rectangle 1329" class="cls-3" x="30" y="28.5" width="0.7" height="1.6" rx="0.1" transform="translate(-9.6 15.7) rotate(-25.2)"/><rect id="Rectangle_1330" data-name="Rectangle 1330" class="cls-3" x="27.6" y="29.9" width="0.7" height="1.6" rx="0.1" transform="translate(-13.3 25.9) rotate(-41)"/><rect id="Rectangle_1331" data-name="Rectangle 1331" class="cls-3" x="35.5" y="28.9" width="1.6" height="0.7" rx="0.1" transform="translate(-5.6 49.6) rotate(-64.8)"/><rect id="Rectangle_1332" data-name="Rectangle 1332" class="cls-3" x="37.8" y="30.4" width="1.6" height="0.7" rx="0.1" transform="translate(-9.9 39.7) rotate(-48.9)"/></g></g></svg>