<svg id="Layer_1" data-name="Layer 1" xmlns="http://www.w3.org/2000/svg" viewBox="0 0 64 64"><defs><style>.cls-1{fill:#cecece;}.cls-2{fill:#2f3293;}.cls-3{fill:#fff;}.cls-4{fill:#82c35b;}</style></defs><g id="Group_1150" data-name="Group 1150"><path id="Path_854" data-name="Path 854" class="cls-1" d="M31.8,12.1A22.9,22.9,0,1,0,54.6,34.9,22.8,22.8,0,0,0,31.8,12.1Zm0,42.1A19.3,19.3,0,1,1,51,34.9h0A19.3,19.3,0,0,1,31.8,54.2Z"/><circle id="Ellipse_39" data-name="Ellipse 39" class="cls-2" cx="31.8" cy="13.8" r="10"/><circle id="Ellipse_40" data-name="Ellipse 40" class="cls-2" cx="12.2" cy="49.4" r="10"/><circle id="Ellipse_41" data-name="Ellipse 41" class="cls-2" cx="52.3" cy="49.4" r="10"/><path id="Path_855" data-name="Path 855" class="cls-3" d="M35.5,10.6H34.2v-2H29.4v2H28a1.2,1.2,0,0,0-1.1,1.2v4A1.1,1.1,0,0,0,28,17h7.5a1.1,1.1,0,0,0,1.1-1.2h0v-4A1.2,1.2,0,0,0,35.5,10.6ZM30.3,9.3h3v1.3h-3Z"/><path id="Path_856" data-name="Path 856" class="cls-3" d="M17.3,48.1v-.5l-5.2-3.8L7,47.6v.5H8.2v4.1H7.5v1h9.1v-1h-.7V48.1Zm-4.1,4.1H10.9V50h2.3Z"/><path id="Path_857" data-name="Path 857" class="cls-3" d="M56.4,52.7l-1.7-3.2a.3.3,0,0,1-.1-.2l1.7-2.1a1.5,1.5,0,0,0-.2-2.2,1.5,1.5,0,0,0-2.1.3h-.1l-1.4,2.4h-.4l-3.5-.5a.7.7,0,0,0-.7.4h0c0,.2,0,.3.5.5l3,1.5-1.5,2.6-1.7.4,3.3,2.4V53.3L53.2,51l2.3,2.2c.4.3.5.3.7.3a.5.5,0,0,0,.2-.8Z"/><path id="Path_858" data-name="Path 858" class="cls-4" d="M26.9,28.6h9.5V27.2h-11v13h1.5Z"/><path id="Path_859" data-name="Path 859" class="cls-4" d="M28.1,29.6v13H39v-13Zm8.7,8.8H30.4V37.1h6.4Zm0-2.3H30.4V34.8h6.4Zm0-2.4H30.4V32.4h6.4Z"/></g></svg>