<svg id="Layer_1" data-name="Layer 1" xmlns="http://www.w3.org/2000/svg" viewBox="0 0 64 64"><defs><style>.cls-1{fill:#2f3293;}.cls-2{fill:#82c35b;}</style></defs><g id="Group_1151" data-name="Group 1151"><path id="Path_28" data-name="Path 28" class="cls-1" d="M40.3,36.7V31.8l-3.9-.5a16.2,16.2,0,0,0-2.1-5.1l2.4-3.1-3.4-3.5-3.2,2.5a11.6,11.6,0,0,0-5-2.1l-.5-4H19.7l-.5,4a12.6,12.6,0,0,0-5.1,2.1L11,19.6,7.5,23.1,10,26.2a12.6,12.6,0,0,0-2.1,5.1l-4,.5v4.9l4,.5a11.6,11.6,0,0,0,2.1,5L7.5,45.4,11,48.8l3.1-2.4a16.2,16.2,0,0,0,5.1,2.1l.5,3.9h4.9l.5-3.9a14.8,14.8,0,0,0,5-2.1l3.2,2.4,3.4-3.4-2.4-3.2a14.8,14.8,0,0,0,2.1-5ZM22.1,43.9a9.7,9.7,0,1,1,9.7-9.7A9.7,9.7,0,0,1,22.1,43.9Z"/><path id="Path_848" data-name="Path 848" class="cls-1" d="M56.3,51V48.2L54.1,48a7.4,7.4,0,0,0-1.2-2.9l1.4-1.7-1.9-2-1.8,1.4a7.7,7.7,0,0,0-2.8-1.2l-.3-2.2H44.8l-.3,2.2a8.1,8.1,0,0,0-2.9,1.2l-1.7-1.4-2,2,1.4,1.7A7.4,7.4,0,0,0,38.1,48l-2.2.2V51l2.2.3a7.7,7.7,0,0,0,1.2,2.8l-1.4,1.7,2,2,1.7-1.4a8.1,8.1,0,0,0,2.9,1.2l.3,2.2h2.7l.3-2.2a7.7,7.7,0,0,0,2.8-1.2l1.8,1.4,1.9-2-1.4-1.7a7.7,7.7,0,0,0,1.2-2.8ZM46.1,55a5.4,5.4,0,1,1,5.4-5.4h0A5.4,5.4,0,0,1,46.1,55Z"/><g id="Group_1144" data-name="Group 1144"><path id="Path_846" data-name="Path 846" class="cls-2" d="M55.1,13.2l.6-.7a1,1,0,0,0-.2-1.4,1.1,1.1,0,0,0-1.4.1h0l-.7.9a12,12,0,0,0-5.2-1.5V8.5a2.6,2.6,0,0,0,1.4-3.4A2.6,2.6,0,1,0,44.8,7a2.6,2.6,0,0,0,1.4,1.5v2.2A12,12,0,0,0,41,12.2l-.7-.9a1,1,0,0,0-1.4-.2,1,1,0,0,0-.2,1.4h0l.6.7A13.3,13.3,0,1,0,55.1,34.7a13.3,13.3,0,0,0,2.8-18.6,12.8,12.8,0,0,0-2.8-2.9ZM47.2,34.3A10.3,10.3,0,1,1,57.5,24h0A10.3,10.3,0,0,1,47.2,34.3Z"/><path id="Path_847" data-name="Path 847" class="cls-2" d="M53.5,23.7H49.8a2.7,2.7,0,0,0-1.9-2.3h0V16.7c0-.3-.4-.6-.7-.6a.7.7,0,0,0-.7.6v4.7h0a2.6,2.6,0,0,0,1.4,5.1A2.5,2.5,0,0,0,49.6,25h3.9a.7.7,0,0,0,.7-.6.7.7,0,0,0-.7-.7Z"/></g></g></svg>