<svg id="Layer_1" data-name="Layer 1" xmlns="http://www.w3.org/2000/svg" xmlns:xlink="http://www.w3.org/1999/xlink" viewBox="0 0 554.2 359"><defs><style>.cls-1,.cls-2,.cls-3{fill:none;}.cls-2,.cls-3{stroke:#e5e5e5;stroke-miterlimit:10;stroke-width:2px;}.cls-3{stroke-dasharray:2.94 2.94;}.cls-4{fill:#efefef;}.cls-5{fill:#82c35b;}.cls-6{fill:#0c131e;}.cls-7{fill:#bcbcbc;}.cls-8{fill:#2f3293;}.cls-9{clip-path:url(#clip-path);}.cls-10{fill:#eee;}.cls-11{fill:#364153;}.cls-12{fill:#3698d8;}.cls-13{fill:#fa9f18;}.cls-14{fill:#fefefe;}.cls-15{fill:#fff;}.cls-16{fill:#b7b7b5;}.cls-17{fill:#52ab54;}.cls-18{fill:#ea4943;}</style><clipPath id="clip-path"><path class="cls-1" d="M363.4,345.5H185.5a10,10,0,0,1-9.9-9.8h0V218.9a10,10,0,0,1,9.8-9.9h178a9.8,9.8,0,0,1,9.8,9.8h0V335.6A9.8,9.8,0,0,1,363.4,345.5Z"/></clipPath></defs><g id="Group_2352" data-name="Group 2352"><g id="Group_2309" data-name="Group 2309"><g id="Group_2308" data-name="Group 2308"><line id="Line_45" data-name="Line 45" class="cls-2" x1="276.3" y1="57.8" x2="276.3" y2="59.6"/><line id="Line_46" data-name="Line 46" class="cls-3" x1="276.3" y1="63.2" x2="276.3" y2="211.7"/><line id="Line_47" data-name="Line 47" class="cls-2" x1="276.3" y1="213.5" x2="276.3" y2="215.4"/></g></g><g id="Group_2311" data-name="Group 2311"><g id="Group_2310" data-name="Group 2310"><line id="Line_48" data-name="Line 48" class="cls-2" x1="379.8" y1="64.3" x2="379" y2="65.9"/><line id="Line_49" data-name="Line 49" class="cls-3" x1="377.5" y1="69.2" x2="313.5" y2="203.2"/><line id="Line_50" data-name="Line 50" class="cls-2" x1="312.8" y1="204.8" x2="312" y2="206.5"/></g></g><g id="Group_2313" data-name="Group 2313"><g id="Group_2312" data-name="Group 2312"><line id="Line_51" data-name="Line 51" class="cls-2" x1="464.3" y1="116.9" x2="463.1" y2="118.2"/><line id="Line_52" data-name="Line 52" class="cls-3" x1="460.6" y1="120.7" x2="356.5" y2="226.7"/><line id="Line_53" data-name="Line 53" class="cls-2" x1="355.1" y1="227.9" x2="353.9" y2="229.2"/></g></g><g id="Group_2315" data-name="Group 2315"><g id="Group_2314" data-name="Group 2314"><line id="Line_54" data-name="Line 54" class="cls-2" x1="509.7" y1="215.4" x2="508" y2="215.8"/><line id="Line_55" data-name="Line 55" class="cls-3" x1="504.5" y1="216.7" x2="360.7" y2="253.9"/><line id="Line_56" data-name="Line 56" class="cls-2" x1="359" y1="254.4" x2="357.2" y2="254.9"/></g></g><circle id="Ellipse_63" data-name="Ellipse 63" class="cls-4" cx="375" cy="65.8" r="42.6"/><circle id="Ellipse_64" data-name="Ellipse 64" class="cls-4" cx="457.4" cy="122.9" r="42.6"/><circle id="Ellipse_65" data-name="Ellipse 65" class="cls-4" cx="507.4" cy="209.9" r="42.6"/><circle id="Ellipse_66" data-name="Ellipse 66" class="cls-4" cx="274.4" cy="46.6" r="42.6"/><g id="Group_2317" data-name="Group 2317"><g id="Group_2316" data-name="Group 2316"><line id="Line_57" data-name="Line 57" class="cls-2" x1="173.2" y1="64.3" x2="173.9" y2="65.9"/><line id="Line_58" data-name="Line 58" class="cls-3" x1="175.5" y1="69.2" x2="239.4" y2="203.2"/><line id="Line_59" data-name="Line 59" class="cls-2" x1="240.2" y1="204.8" x2="240.9" y2="206.5"/></g></g><g id="Group_2319" data-name="Group 2319"><g id="Group_2318" data-name="Group 2318"><line id="Line_60" data-name="Line 60" class="cls-2" x1="89.8" y1="116.9" x2="91.1" y2="118.2"/><line id="Line_61" data-name="Line 61" class="cls-3" x1="93.5" y1="120.7" x2="197.8" y2="226.7"/><line id="Line_62" data-name="Line 62" class="cls-2" x1="199" y1="227.9" x2="200.3" y2="229.2"/></g></g><g id="Group_2321" data-name="Group 2321"><g id="Group_2320" data-name="Group 2320"><line id="Line_63" data-name="Line 63" class="cls-2" x1="44.4" y1="215.4" x2="46.2" y2="215.8"/><line id="Line_64" data-name="Line 64" class="cls-3" x1="49.6" y1="216.7" x2="193.5" y2="253.9"/><line id="Line_65" data-name="Line 65" class="cls-2" x1="195.2" y1="254.4" x2="196.9" y2="254.9"/></g></g><path id="Path_1775" data-name="Path 1775" class="cls-5" d="M425.8,345a160.7,160.7,0,1,0-298.3,0Z"/><circle id="Ellipse_67" data-name="Ellipse 67" class="cls-4" cx="45.4" cy="209.9" r="42.6"/><path id="Path_1776" data-name="Path 1776" class="cls-6" d="M385.7,339.6a14.8,14.8,0,0,0,.1-2.1V219.3A23.2,23.2,0,0,0,362.6,196H186.2A23.2,23.2,0,0,0,163,219.2h0V337.5a14.8,14.8,0,0,0,.1,2.1Z"/><path id="Path_1777" data-name="Path 1777" class="cls-7" d="M363.4,345.5H185.5a10,10,0,0,1-9.9-9.8h0V218.9a10,10,0,0,1,9.8-9.9h178a9.8,9.8,0,0,1,9.8,9.8h0V335.6A9.8,9.8,0,0,1,363.4,345.5Z"/><g id="Group_2323" data-name="Group 2323"><g id="Group_2322" data-name="Group 2322"><circle id="Ellipse_68" data-name="Ellipse 68" class="cls-8" cx="42.2" cy="184.7" r="0.6"/><path id="Path_1778" data-name="Path 1778" class="cls-8" d="M50,181.6H40.8a2.3,2.3,0,0,0-2.4,2.3h0v17a2.3,2.3,0,0,0,2.4,2.3H50a2.3,2.3,0,0,0,2.3-2.3h0v-17a2.1,2.1,0,0,0-2.1-2.3Zm1.1,19.2a1.1,1.1,0,0,1-1.1,1.1H40.8a1.1,1.1,0,0,1-1.1-1.1h0v-.3H51.1Zm0-1.5H39.7V183.7c0-.6.4-1,1.1-1.1H50a1.1,1.1,0,0,1,1.1,1.1h0Z"/><path id="Path_1779" data-name="Path 1779" class="cls-8" d="M44.5,185.3h1.7a.5.5,0,0,0,.6-.6.6.6,0,0,0-.6-.6H44.5a.6.6,0,0,0-.6.6A.6.6,0,0,0,44.5,185.3Z"/><path id="Path_1780" data-name="Path 1780" class="cls-8" d="M47.2,190.9a2,2,0,0,0,.6-1.4,2.3,2.3,0,0,0-2.3-2.3,2.3,2.3,0,0,0-2.3,2.3,2,2,0,0,0,.6,1.4,3.8,3.8,0,0,0-1.8,3.2v.3a.7.7,0,0,0,.5.7h6a.7.7,0,0,0,.7-.6h0v-.3A4.3,4.3,0,0,0,47.2,190.9Zm-1.8-2.5a1.1,1.1,0,1,1-1.1,1.1h0a1.1,1.1,0,0,1,1.1-1.1Zm-2.3,5.4a2.1,2.1,0,0,1,2.3-2,2.4,2.4,0,0,1,2.3,2Z"/><path id="Path_1781" data-name="Path 1781" class="cls-8" d="M48.3,196.4h-6a.6.6,0,0,0,0,1.2h6a.6.6,0,1,0,0-1.2Z"/></g></g><g id="Group_2324" data-name="Group 2324"><path id="Path_1782" data-name="Path 1782" class="cls-8" d="M364.4,71.2l1.9-5.7h1l-2.5,6.9H364l-2.6-6.9h1Z"/><path id="Path_1783" data-name="Path 1783" class="cls-8" d="M368.1,65.9a.8.8,0,0,1,.2-.4h.7a.8.8,0,0,1,.2.4.5.5,0,0,1-.5.5h-.4A.8.8,0,0,1,368.1,65.9Zm1,6.5h-.9V67.3h.9Z"/><path id="Path_1784" data-name="Path 1784" class="cls-8" d="M373.5,71a.5.5,0,0,0-.3-.5l-.9-.4a2.3,2.3,0,0,1-1.1-.3l-.6-.5a1.4,1.4,0,0,1-.2-.6,1.4,1.4,0,0,1,.6-1.1,1.7,1.7,0,0,1,1.3-.4,1.9,1.9,0,0,1,1.5.4,1.7,1.7,0,0,1,.5,1.2h-.9a.6.6,0,0,0-.3-.6,1.1,1.1,0,0,0-.8-.3,1,1,0,0,0-.7.2.6.6,0,0,0,0,1,1.6,1.6,0,0,0,.9.3l1.1.4.6.5a1.4,1.4,0,0,1,.2.7,1.4,1.4,0,0,1-.6,1.1,2.3,2.3,0,0,1-1.4.4l-1.1-.2-.8-.6a2.9,2.9,0,0,1-.2-.9h.9a.9.9,0,0,0,.3.7l.9.3.8-.2A.6.6,0,0,0,373.5,71Z"/><path id="Path_1785" data-name="Path 1785" class="cls-8" d="M375.5,65.9a.6.6,0,0,1,.1-.4h.8a.6.6,0,0,1,.1.4c.1.3-.1.5-.4.5H376c-.2,0-.5-.2-.5-.4Zm1,6.5h-.9V67.3h.9Z"/><path id="Path_1786" data-name="Path 1786" class="cls-8" d="M379.1,66v1.3h.9v.6h-.9v3.2a.4.4,0,0,0,.1.5l.4.2h.4v.7h-.6a1,1,0,0,1-.9-.4,1.5,1.5,0,0,1-.3-1V67.9h-1v-.6h1V66Z"/><path id="Path_1787" data-name="Path 1787" class="cls-8" d="M380.7,69.8a3.5,3.5,0,0,1,.3-1.4,2.4,2.4,0,0,1,.8-.9,2.7,2.7,0,0,1,1.2-.3,1.8,1.8,0,0,1,1.7.7,2.6,2.6,0,0,1,.7,1.9h0a2.8,2.8,0,0,1-.3,1.3,3.9,3.9,0,0,1-.8,1l-1.2.3a2.1,2.1,0,0,1-1.7-.7,3.1,3.1,0,0,1-.7-2Zm.9.1a2.3,2.3,0,0,0,.4,1.4,1.5,1.5,0,0,0,1.9.2l.2-.2a2.8,2.8,0,0,0,.4-1.5,2.3,2.3,0,0,0-.4-1.4,1.3,1.3,0,0,0-1.1-.5,1.2,1.2,0,0,0-1,.5,2.6,2.6,0,0,0-.4,1.5Z"/><path id="Path_1788" data-name="Path 1788" class="cls-8" d="M389,68.1h-.5a1.2,1.2,0,0,0-1.1.8v3.6h-.9V67.3h.8v.6a1.2,1.2,0,0,1,1.2-.7h.4Z"/><path id="Path_1789" data-name="Path 1789" class="cls-8" d="M348.5,76.4l2.3,5.7,2.3-5.7h1.1v6.9h-.9V77.7l-2.3,5.6h-.7l-2.2-5.5v5.5h-.9V76.4Z"/><path id="Path_1790" data-name="Path 1790" class="cls-8" d="M358.9,83.3a.7.7,0,0,1-.1-.5,2,2,0,0,1-1.5.6A1.6,1.6,0,0,1,356,83a1.5,1.5,0,0,1-.4-1.1,1.2,1.2,0,0,1,.6-1.2,3.4,3.4,0,0,1,1.7-.5h.8v-.4a.7.7,0,0,0-.2-.7,1.3,1.3,0,0,0-.8-.3,1.1,1.1,0,0,0-.8.3.5.5,0,0,0-.3.5h-.9a1.9,1.9,0,0,1,.2-.7,1.6,1.6,0,0,1,.8-.6l1-.2a1.9,1.9,0,0,1,1.4.5,1.7,1.7,0,0,1,.5,1.2v2.3a5,5,0,0,0,.2,1.2h-.9Zm-1.5-.6.8-.2.5-.6v-1h-.6c-1.1,0-1.7.3-1.7.9a.7.7,0,0,0,.3.6,1.1,1.1,0,0,0,.7.3Z"/><path id="Path_1791" data-name="Path 1791" class="cls-8" d="M361.8,78.2v.7a1.8,1.8,0,0,1,1.5-.8c1.1,0,1.6.6,1.6,1.9v3.4h-.8V80a1.6,1.6,0,0,0-.3-.9.8.8,0,0,0-.8-.2,1,1,0,0,0-.7.2,1.5,1.5,0,0,0-.5.6v3.7H361V78.2Z"/><path id="Path_1792" data-name="Path 1792" class="cls-8" d="M369.5,83.3a4.3,4.3,0,0,1-.1-.5,2,2,0,0,1-1.4.6,1.6,1.6,0,0,1-1.3-.4,1.6,1.6,0,0,1-.5-1.1,1.4,1.4,0,0,1,.6-1.2,3.4,3.4,0,0,1,1.7-.5h.9v-.4a1.1,1.1,0,0,0-.3-.7,1.1,1.1,0,0,0-.8-.3,1.3,1.3,0,0,0-.8.3.5.5,0,0,0-.3.5h-.9a1.1,1.1,0,0,1,.3-.7,1.9,1.9,0,0,1,.7-.6l1.1-.2a1.9,1.9,0,0,1,1.4.5,1.7,1.7,0,0,1,.5,1.2v2.3a2.5,2.5,0,0,0,.2,1.2h-1Zm-1.4-.6.8-.2.5-.6v-1h-.7c-1.1,0-1.6.3-1.6.9a.7.7,0,0,0,.3.6A.9.9,0,0,0,368.1,82.7Z"/><path id="Path_1793" data-name="Path 1793" class="cls-8" d="M371.5,80.7a2.7,2.7,0,0,1,.5-1.9,2,2,0,0,1,2.7-.3l.3.3v-.6h.8v5a2.2,2.2,0,0,1-3.3,1.9,1.6,1.6,0,0,1-.8-.6l.5-.5a1.7,1.7,0,0,0,1.4.7,2.1,2.1,0,0,0,1-.4,1.7,1.7,0,0,0,.3-1v-.5a1.6,1.6,0,0,1-1.4.6,1.5,1.5,0,0,1-1.5-.7A2.9,2.9,0,0,1,371.5,80.7Zm.8.1a2.3,2.3,0,0,0,.4,1.4,1.2,1.2,0,0,0,1,.5,1.3,1.3,0,0,0,1.2-.8V79.6a1.1,1.1,0,0,0-1.2-.7.9.9,0,0,0-1,.5A2.3,2.3,0,0,0,372.3,80.8Z"/><path id="Path_1794" data-name="Path 1794" class="cls-8" d="M379.3,83.4a2,2,0,0,1-1.7-.6,2.6,2.6,0,0,1-.7-1.9h0a3.2,3.2,0,0,1,.3-1.4,2.4,2.4,0,0,1,.8-.9,1.5,1.5,0,0,1,1.1-.4,2,2,0,0,1,1.6.7,3.1,3.1,0,0,1,.6,1.9V81h-3.5a2,2,0,0,0,.4,1.3,1.5,1.5,0,0,0,1.1.4,1.2,1.2,0,0,0,.8-.2l.6-.5.5.5A2.1,2.1,0,0,1,379.3,83.4Zm-.2-4.6a1.2,1.2,0,0,0-.8.4,1.6,1.6,0,0,0-.5,1.1h2.6a1.4,1.4,0,0,0-.4-1,1.3,1.3,0,0,0-.9-.4Z"/><path id="Path_1795" data-name="Path 1795" class="cls-8" d="M383.1,78.2v.6a2,2,0,0,1,1.6-.7,1.5,1.5,0,0,1,1.4.8l.7-.6,1-.2c1.1,0,1.7.6,1.7,1.8v3.4h-.9V80a1.6,1.6,0,0,0-.3-.9.8.8,0,0,0-.8-.2.8.8,0,0,0-.8.3,1,1,0,0,0-.4.7v3.4h-.9V80a.9.9,0,0,0-.8-1.1.2.2,0,0,0-.3,0,1.1,1.1,0,0,0-1.2.7v3.7h-.8V78.2Z"/><path id="Path_1796" data-name="Path 1796" class="cls-8" d="M392.9,83.4a2.2,2.2,0,0,1-1.7-.6,2.6,2.6,0,0,1-.6-1.9h0a3.2,3.2,0,0,1,.3-1.4,1.8,1.8,0,0,1,.8-.9,1.5,1.5,0,0,1,1.1-.4,2,2,0,0,1,1.6.7,2.5,2.5,0,0,1,.5,1.9V81h-3.4a1.6,1.6,0,0,0,.4,1.3,1.5,1.5,0,0,0,1.1.4,1.2,1.2,0,0,0,.8-.2l.5-.5.6.5A2.1,2.1,0,0,1,392.9,83.4Zm-.1-4.6a1.8,1.8,0,0,0-.9.4,2.1,2.1,0,0,0-.4,1.1h2.6a2.1,2.1,0,0,0-.4-1,1.3,1.3,0,0,0-.9-.4Z"/><path id="Path_1797" data-name="Path 1797" class="cls-8" d="M396.8,78.2v.7a1.9,1.9,0,0,1,1.6-.8c1,0,1.6.6,1.6,1.9v3.4h-.9V80a2.9,2.9,0,0,0-.2-.9.8.8,0,0,0-.8-.2,1.2,1.2,0,0,0-.8.2,1.5,1.5,0,0,0-.5.6v3.7H396V78.2Z"/><path id="Path_1798" data-name="Path 1798" class="cls-8" d="M402.5,77v1.2h1v.7h-1v3.2a.6.6,0,0,0,.1.4.6.6,0,0,0,.5.2h.4v.8h-.7c-.3.1-.6-.1-.9-.3a1.9,1.9,0,0,1-.3-1V78.9h-.9v-.7h.9V77Z"/></g><g id="Group_2325" data-name="Group 2325"><path id="Path_1799" data-name="Path 1799" class="cls-8" d="M449.7,129.5h-.9v-3.2h-3.5v3.2h-.9v-6.9h.9v3h3.5v-3h.9Z"/><path id="Path_1800" data-name="Path 1800" class="cls-8" d="M450.9,126.9a3.2,3.2,0,0,1,.3-1.4,2.4,2.4,0,0,1,.8-.9,2.8,2.8,0,0,1,1.3-.3,2,2,0,0,1,1.7.7,3.1,3.1,0,0,1,.6,1.9h0a2.8,2.8,0,0,1-.3,1.3,2.5,2.5,0,0,1-.8,1l-1.2.3a2.1,2.1,0,0,1-1.7-.7,3.1,3.1,0,0,1-.7-2Zm.9.1a2.3,2.3,0,0,0,.4,1.4,1.5,1.5,0,0,0,1.9.2l.2-.3a1.8,1.8,0,0,0,.4-1.4,2.3,2.3,0,0,0-.4-1.4,1.3,1.3,0,0,0-1.9-.2l-.2.2a2.6,2.6,0,0,0-.4,1.5Z"/><path id="Path_1801" data-name="Path 1801" class="cls-8" d="M459.7,128.1a.5.5,0,0,0-.3-.5l-.9-.4a2.3,2.3,0,0,1-1.1-.3l-.6-.5a1.3,1.3,0,0,1-.1-.6,1.4,1.4,0,0,1,.5-1.1,2.6,2.6,0,0,1,2.8,0,1.7,1.7,0,0,1,.5,1.2h-.9a.9.9,0,0,0-.3-.7l-.7-.2a1.1,1.1,0,0,0-.8.2.6.6,0,0,0,0,1,1.6,1.6,0,0,0,.9.3l1.1.4.6.5a1.4,1.4,0,0,1,.2.7,1.4,1.4,0,0,1-.6,1.1,2.3,2.3,0,0,1-1.4.4l-1.1-.2a2.2,2.2,0,0,1-.7-.6,1.6,1.6,0,0,1-.3-.9h.9a.9.9,0,0,0,.3.7,1.6,1.6,0,0,0,.9.3l.8-.2A.6.6,0,0,0,459.7,128.1Z"/><path id="Path_1802" data-name="Path 1802" class="cls-8" d="M462.9,123.1v1.3h1v.6h-1v3.2a.7.7,0,0,0,.1.5c.2.1.3.2.5.1h.4v.7h-.7a1.2,1.2,0,0,1-.9-.4,1.7,1.7,0,0,1-.3-1V125h-.9v-.6h.9v-1.3Z"/><path id="Path_1803" data-name="Path 1803" class="cls-8" d="M467,129.6a2.3,2.3,0,0,1-1.7-.7,2.5,2.5,0,0,1-.6-1.8v-.2a3.5,3.5,0,0,1,.3-1.4,1.7,1.7,0,0,1,.8-.9,2,2,0,0,1,1.1-.3,1.9,1.9,0,0,1,1.6.6,2.6,2.6,0,0,1,.5,1.9v.4h-3.4a1.4,1.4,0,0,0,.4,1.2,1.6,1.6,0,0,0,1.1.5l.8-.2a1.2,1.2,0,0,0,.5-.5l.6.4A2.3,2.3,0,0,1,467,129.6Zm-.1-4.6a1.2,1.2,0,0,0-.9.4,2.1,2.1,0,0,0-.4,1.1h2.6a1.8,1.8,0,0,0-.4-1,1.1,1.1,0,0,0-.9-.4Z"/><path id="Path_1804" data-name="Path 1804" class="cls-8" d="M471,129.5h-.9v-7.3h.9Z"/><path id="Path_1805" data-name="Path 1805" class="cls-8" d="M431,133.5l2.2,5.7,2.3-5.7h1.2v6.9h-.9v-5.6l-2.3,5.6h-.7l-2.3-5.5v5.5h-.9v-6.9Z"/><path id="Path_1806" data-name="Path 1806" class="cls-8" d="M441.3,140.4a4.3,4.3,0,0,1-.1-.5,2,2,0,0,1-1.5.6,1.4,1.4,0,0,1-1.2-.4,1.6,1.6,0,0,1-.5-1.1,1.4,1.4,0,0,1,.6-1.2,2.6,2.6,0,0,1,1.7-.5h.9v-.4a1.1,1.1,0,0,0-.3-.7,1.1,1.1,0,0,0-.8-.3,1.3,1.3,0,0,0-.8.3.5.5,0,0,0-.3.5h-.9a1.1,1.1,0,0,1,.3-.7,1.3,1.3,0,0,1,.7-.6l1.1-.2a1.9,1.9,0,0,1,1.4.5,1.7,1.7,0,0,1,.5,1.2v2.3a2.5,2.5,0,0,0,.2,1.2h-1Zm-1.4-.6.8-.2.5-.6v-1h-.7c-1.1,0-1.6.3-1.6.9a.7.7,0,0,0,.3.6.9.9,0,0,0,.7.3Z"/><path id="Path_1807" data-name="Path 1807" class="cls-8" d="M444.3,135.3v.7a2.1,2.1,0,0,1,1.6-.8c1,0,1.6.6,1.6,1.8v3.4h-.9V137a3.1,3.1,0,0,0-.2-.8.8.8,0,0,0-.8-.2,1.2,1.2,0,0,0-.8.2c-.2.1-.3.3-.5.6v3.7h-.8v-5.2Z"/><path id="Path_1808" data-name="Path 1808" class="cls-8" d="M452,140.4a.7.7,0,0,1-.1-.5,2,2,0,0,1-1.5.6,1.4,1.4,0,0,1-1.2-.4,1.3,1.3,0,0,1-.5-1.1,1.4,1.4,0,0,1,.6-1.2,2.6,2.6,0,0,1,1.7-.5h.9v-.4a1.1,1.1,0,0,0-.3-.7,1.2,1.2,0,0,0-1.6,0,.5.5,0,0,0-.3.5h-.9a1.1,1.1,0,0,1,.3-.7,1.1,1.1,0,0,1,.7-.6l1-.2a1.9,1.9,0,0,1,1.4.5,1.3,1.3,0,0,1,.5,1.2v2.3a5,5,0,0,0,.2,1.2H452Zm-1.5-.6.8-.2a3.4,3.4,0,0,0,.6-.6v-1h-.7c-1.1,0-1.6.3-1.6.9a.5.5,0,0,0,.2.6,1.1,1.1,0,0,0,.7.3Z"/><path id="Path_1809" data-name="Path 1809" class="cls-8" d="M453.9,137.8a3.3,3.3,0,0,1,.6-1.9,2,2,0,0,1,2.7-.3l.2.3v-.6h.8v5a1.8,1.8,0,0,1-.5,1.6,2.5,2.5,0,0,1-1.6.6,2,2,0,0,1-1.1-.3,1.6,1.6,0,0,1-.8-.6l.4-.6a1.6,1.6,0,0,0,1.4.7,1.2,1.2,0,0,0,1-.3,1.4,1.4,0,0,0,.4-1v-.5a1.7,1.7,0,0,1-1.5.6,1.3,1.3,0,0,1-1.4-.7A3.6,3.6,0,0,1,453.9,137.8Zm.9.1a3.2,3.2,0,0,0,.3,1.4,1.4,1.4,0,0,0,1,.5,1.4,1.4,0,0,0,1.3-.8v-2.3a1.2,1.2,0,0,0-1.2-.7.9.9,0,0,0-1,.5,2.3,2.3,0,0,0-.4,1.4Z"/><path id="Path_1810" data-name="Path 1810" class="cls-8" d="M461.7,140.5a2.1,2.1,0,0,1-1.7-.6,3.2,3.2,0,0,1-.7-1.9h0a3.2,3.2,0,0,1,.3-1.4,2.8,2.8,0,0,1,.9-1,2,2,0,0,1,1.1-.3,2,2,0,0,1,1.6.7,2.5,2.5,0,0,1,.5,1.9v.3h-3.5a2.1,2.1,0,0,0,.5,1.3,1.2,1.2,0,0,0,1.1.4,1,1,0,0,0,.7-.2,1,1,0,0,0,.6-.5l.5.4A1.9,1.9,0,0,1,461.7,140.5Zm-.1-4.6a1.4,1.4,0,0,0-1.3,1.5h2.5a1.9,1.9,0,0,0-.3-1,1.8,1.8,0,0,0-.9-.4Z"/><path id="Path_1811" data-name="Path 1811" class="cls-8" d="M465.6,135.3v.6a1.8,1.8,0,0,1,1.5-.7,1.6,1.6,0,0,1,1.5.8,1.9,1.9,0,0,1,1.6-.8c1.1,0,1.7.6,1.7,1.8v3.4H471v-3.3a1,1,0,0,0-.2-.9.8.8,0,0,0-.8-.2,1,1,0,0,0-1.2,1v3.4h-.9v-3.3a.9.9,0,0,0-.8-1.1h-.3a1.1,1.1,0,0,0-1.2.7v3.7h-.9v-5.1Z"/><path id="Path_1812" data-name="Path 1812" class="cls-8" d="M475.4,140.5a2,2,0,0,1-1.7-.6,2.6,2.6,0,0,1-.7-1.9h0a3.2,3.2,0,0,1,.3-1.4,3.9,3.9,0,0,1,.8-1,2.7,2.7,0,0,1,1.2-.3,1.8,1.8,0,0,1,1.5.7,3.1,3.1,0,0,1,.6,1.9v.3h-3.5a2.1,2.1,0,0,0,.5,1.3,1.2,1.2,0,0,0,1,.4,1.1,1.1,0,0,0,.8-.2l.6-.5.5.4A1.9,1.9,0,0,1,475.4,140.5Zm-.1-4.6a1.3,1.3,0,0,0-.9.4,2.2,2.2,0,0,0-.5,1.1h2.6a1.9,1.9,0,0,0-.3-1,1.8,1.8,0,0,0-.9-.4Z"/><path id="Path_1813" data-name="Path 1813" class="cls-8" d="M479.2,135.3v.7a1.8,1.8,0,0,1,1.5-.8c1.1,0,1.6.6,1.6,1.8v3.4h-.8V137a1.6,1.6,0,0,0-.3-.8.8.8,0,0,0-.8-.2,1,1,0,0,0-.7.2,1.5,1.5,0,0,0-.5.6v3.7h-.9v-5.2Z"/><path id="Path_1814" data-name="Path 1814" class="cls-8" d="M485,134.1v1.2h.9v.7H485v3.2a.6.6,0,0,0,.1.4.4.4,0,0,0,.4.2h.5v.7h-.7a.9.9,0,0,1-.9-.3,1.9,1.9,0,0,1-.3-1V136h-.9v-.7h.9v-1.2Z"/></g><g id="Group_2326" data-name="Group 2326"><path id="Path_1815" data-name="Path 1815" class="cls-8" d="M490.6,213.7H489v2.8h-.9v-6.9h2.3a3.1,3.1,0,0,1,1.8.5,2.3,2.3,0,0,1,.6,1.6,1.5,1.5,0,0,1-.4,1.1,1.6,1.6,0,0,1-.9.7l1.6,3h-1ZM489,213h1.4a1.4,1.4,0,0,0,1.5-1.3,1.2,1.2,0,0,0-.4-1,1.5,1.5,0,0,0-1.1-.4H489Z"/><path id="Path_1816" data-name="Path 1816" class="cls-8" d="M496.1,216.6a2.1,2.1,0,0,1-1.7-.7,2.4,2.4,0,0,1-.7-1.8v-.2a3.1,3.1,0,0,1,.3-1.3,2.7,2.7,0,0,1,.8-1l1.2-.3a1.7,1.7,0,0,1,1.5.6,3.5,3.5,0,0,1,.6,1.9v.4h-3.5a1.7,1.7,0,0,0,.4,1.2,1.6,1.6,0,0,0,1.1.5l.8-.2.6-.5.5.4A2,2,0,0,1,496.1,216.6ZM496,212a1,1,0,0,0-.9.4,1.6,1.6,0,0,0-.5,1.1h2.6a1.3,1.3,0,0,0-.4-1,.9.9,0,0,0-.8-.4Z"/><path id="Path_1817" data-name="Path 1817" class="cls-8" d="M502.3,216.5l-.2-.5a1.8,1.8,0,0,1-1.4.6,2,2,0,0,1-1.3-.4,1.6,1.6,0,0,1,.1-2.4,3.9,3.9,0,0,1,1.8-.4h.8V213a.9.9,0,0,0-.3-.7,1.1,1.1,0,0,0-.8-.3l-.8.2c-.1.2-.3.4-.3.6H499a.9.9,0,0,1,.3-.7,1.6,1.6,0,0,1,.8-.6,1.6,1.6,0,0,1,1-.2,2.3,2.3,0,0,1,1.4.4,1.8,1.8,0,0,1,.5,1.2v2.4a2,2,0,0,0,.2,1.1h-.9Zm-1.5-.7a1.2,1.2,0,0,0,.8-.2l.5-.5V214h-.7c-1,0-1.6.3-1.6,1a.9.9,0,0,0,.3.6A.6.6,0,0,0,500.8,215.8Z"/><path id="Path_1818" data-name="Path 1818" class="cls-8" d="M505.3,216.5h-.8v-7.3h.8Z"/><path id="Path_1819" data-name="Path 1819" class="cls-8" d="M508.6,213.9h-2.3v-.7h2.3Z"/><path id="Path_1820" data-name="Path 1820" class="cls-8" d="M510.6,210.1v1.3h1v.7h-1v3.1a4.3,4.3,0,0,0,.1.5l.5.2h.4v.7h-.7l-.9-.3a2,2,0,0,1-.3-1.1v-3.1h-.9v-.7h.9v-1.3Z"/><path id="Path_1821" data-name="Path 1821" class="cls-8" d="M512.6,210a.6.6,0,0,1,.1-.4h.8c.1.1.2.3.1.4s0,.3-.1.4a.5.5,0,0,1-.7,0A.5.5,0,0,1,512.6,210Zm1,6.5h-.9v-5.1h.9Z"/><path id="Path_1822" data-name="Path 1822" class="cls-8" d="M515.8,211.4v.5a2.2,2.2,0,0,1,1.5-.6,1.3,1.3,0,0,1,1.5.8,2.1,2.1,0,0,1,1.6-.8c1.2,0,1.7.6,1.8,1.8v3.4h-.9v-3.4a1.1,1.1,0,0,0-1.9-.8,1.2,1.2,0,0,0-.4.8v3.4h-.9v-3.4a1,1,0,0,0-.8-1.1H517a1.3,1.3,0,0,0-1.2.8v3.7H515v-5.1Z"/><path id="Path_1823" data-name="Path 1823" class="cls-8" d="M525.6,216.6a2.2,2.2,0,0,1-2.3-2.5v-.2a3.1,3.1,0,0,1,.3-1.3,1.6,1.6,0,0,1,.8-1,2,2,0,0,1,1.1-.3,1.9,1.9,0,0,1,1.6.6,2.7,2.7,0,0,1,.5,1.9v.4h-3.5a1.8,1.8,0,0,0,.5,1.2,1.6,1.6,0,0,0,1.1.5l.8-.2a1.2,1.2,0,0,0,.5-.5l.6.4A2.1,2.1,0,0,1,525.6,216.6Zm-.1-4.6a1.1,1.1,0,0,0-.9.4,2.1,2.1,0,0,0-.4,1.1h2.6a1.8,1.8,0,0,0-.4-1,1.1,1.1,0,0,0-.9-.4Z"/><path id="Path_1824" data-name="Path 1824" class="cls-8" d="M484.9,227.5v-7h2a4.7,4.7,0,0,1,1.6.4,2.9,2.9,0,0,1,1,1.2,3.3,3.3,0,0,1,.4,1.7v.4a3.3,3.3,0,0,1-.4,1.7,2.9,2.9,0,0,1-1,1.2,4.7,4.7,0,0,1-1.7.4Zm.9-6.2v5.4h1a2.3,2.3,0,0,0,1.6-.6,2.7,2.7,0,0,0,.6-1.9v-.4a2.3,2.3,0,0,0-.5-1.8,2,2,0,0,0-1.6-.7Z"/><path id="Path_1825" data-name="Path 1825" class="cls-8" d="M494.3,227.5c0-.2-.1-.4-.1-.6a2.1,2.1,0,0,1-1.5.7,1.8,1.8,0,0,1-1.2-.5,1.3,1.3,0,0,1-.5-1.1,1.4,1.4,0,0,1,.6-1.2,3.4,3.4,0,0,1,1.7-.5h.9v-.4a1.1,1.1,0,0,0-.3-.7,1.2,1.2,0,0,0-1.6,0,.5.5,0,0,0-.3.5h-.9a1.1,1.1,0,0,1,.3-.7l.7-.6,1.1-.2a1.9,1.9,0,0,1,1.3.5,1.4,1.4,0,0,1,.6,1.2v2.4a2.3,2.3,0,0,0,.2,1.1h-1Zm-1.4-.7.8-.2c.2-.2.4-.3.5-.6v-1h-.7c-1.1,0-1.6.3-1.6.9a.9.9,0,0,0,.3.7l.7.2Z"/><path id="Path_1826" data-name="Path 1826" class="cls-8" d="M499.4,226.1c.1-.2,0-.4-.2-.6l-1-.3-1-.3a1,1,0,0,1-.6-.5,1.4,1.4,0,0,1-.2-.7,1.2,1.2,0,0,1,.5-1,2.2,2.2,0,0,1,2.8,0,1.4,1.4,0,0,1,.6,1.1h-.9a.9.9,0,0,0-.3-.6,1.1,1.1,0,0,0-.8-.3.9.9,0,0,0-.7.3.5.5,0,0,0-.3.5.8.8,0,0,0,.2.5l1,.3,1,.3a1,1,0,0,1,.6.5,1,1,0,0,1,.2.7,1.3,1.3,0,0,1-.5,1.1,1.9,1.9,0,0,1-1.5.4,1.2,1.2,0,0,1-1-.2,1.6,1.6,0,0,1-.8-.6,1.1,1.1,0,0,1-.3-.8h.9a1.3,1.3,0,0,0,.4.7,1.7,1.7,0,0,0,1.6,0A.5.5,0,0,0,499.4,226.1Z"/><path id="Path_1827" data-name="Path 1827" class="cls-8" d="M502.3,222.9a2.4,2.4,0,0,1,1.6-.7c1,0,1.6.6,1.6,1.9v3.4h-.9v-3.4a1,1,0,0,0-.2-.9,1.1,1.1,0,0,0-.8-.2l-.7.2a1.3,1.3,0,0,0-.5.6v3.7h-.9v-7.3h.9Z"/><path id="Path_1828" data-name="Path 1828" class="cls-8" d="M511.2,224.9a3.1,3.1,0,0,1-.6,1.9,1.6,1.6,0,0,1-1.4.8,2,2,0,0,1-1.5-.7v.6h-.8v-7.3h.9v2.7a1.8,1.8,0,0,1,1.5-.7,1.9,1.9,0,0,1,1.4.7,3.6,3.6,0,0,1,.6,2Zm-.9-.1a2.2,2.2,0,0,0-.4-1.3.9.9,0,0,0-1-.5,1.2,1.2,0,0,0-1.2.8V226a1.3,1.3,0,0,0,1.3.8,1.2,1.2,0,0,0,.9-.5,2.4,2.4,0,0,0,.4-1.5Z"/><path id="Path_1829" data-name="Path 1829" class="cls-8" d="M512,224.8a3.1,3.1,0,0,1,.3-1.3,2,2,0,0,1,.9-.9,1.7,1.7,0,0,1,1.2-.4,2.3,2.3,0,0,1,1.7.8,2.6,2.6,0,0,1,.6,1.9h0a3.2,3.2,0,0,1-.3,1.4,1.4,1.4,0,0,1-.8.9,2.5,2.5,0,0,1-1.2.4,2.1,2.1,0,0,1-1.7-.8,2.6,2.6,0,0,1-.6-1.9Zm.9.1a2.3,2.3,0,0,0,.4,1.4,1.3,1.3,0,0,0,1.9.2l.3-.2a3.3,3.3,0,0,0,.4-1.5,2.8,2.8,0,0,0-.4-1.3,1.4,1.4,0,0,0-1.9-.3l-.3.3a2.3,2.3,0,0,0-.4,1.4Z"/><path id="Path_1830" data-name="Path 1830" class="cls-8" d="M521,227.5a1.3,1.3,0,0,1-.1-.6,2.1,2.1,0,0,1-1.5.7,1.8,1.8,0,0,1-1.2-.5,1.3,1.3,0,0,1-.5-1.1,1.4,1.4,0,0,1,.6-1.2,3.4,3.4,0,0,1,1.7-.5h.9v-.4a1.1,1.1,0,0,0-.3-.7,1.2,1.2,0,0,0-1.6,0,.5.5,0,0,0-.3.5h-.9a1.1,1.1,0,0,1,.3-.7l.7-.6,1-.2a2.4,2.4,0,0,1,1.4.5,1.1,1.1,0,0,1,.5,1.2v2.4a5.2,5.2,0,0,0,.2,1.1H521Zm-1.5-.7.8-.2a1.7,1.7,0,0,0,.6-.6v-1h-.7c-1.1,0-1.6.3-1.6.9s.1.5.2.7Z"/><path id="Path_1831" data-name="Path 1831" class="cls-8" d="M525.6,223.1h-.4a1.1,1.1,0,0,0-1.2.7v3.7h-.9v-5.2h.9v.6a1.4,1.4,0,0,1,1.2-.7h.4Z"/><path id="Path_1832" data-name="Path 1832" class="cls-8" d="M526.1,224.8a3.5,3.5,0,0,1,.6-1.9,2,2,0,0,1,2.7-.3.2.2,0,0,0,.2.2v-2.6h.9v7.3h-.9v-.6a1.8,1.8,0,0,1-1.5.7,1.7,1.7,0,0,1-1.4-.8,3.1,3.1,0,0,1-.6-1.9Zm.9.1a2.3,2.3,0,0,0,.4,1.4,1.2,1.2,0,0,0,1,.5,1.4,1.4,0,0,0,1.2-.7v-2.4a1.2,1.2,0,0,0-1.2-.7,1,1,0,0,0-1,.5,2.3,2.3,0,0,0-.4,1.4Z"/></g><g id="Group_2327" data-name="Group 2327"><path id="Path_1833" data-name="Path 1833" class="cls-8" d="M261.6,52.4h3.3v.8h-4.2V46.3h.9Z"/><path id="Path_1834" data-name="Path 1834" class="cls-8" d="M265.8,46.7c0-.1.1-.3.1-.4h.8a.8.8,0,0,1,.2.4l-.2.3a.5.5,0,0,1-.4.2l-.4-.2C265.9,46.9,265.8,46.8,265.8,46.7Zm1,6.5h-.9V48h.9Z"/><path id="Path_1835" data-name="Path 1835" class="cls-8" d="M272.5,50.7a2.7,2.7,0,0,1-.5,1.9,2.1,2.1,0,0,1-1.5.7,1.8,1.8,0,0,1-1.5-.7v.6h-.8V45.9h.8v2.7a1.7,1.7,0,0,1,1.5-.6,1.6,1.6,0,0,1,1.5.7,2.5,2.5,0,0,1,.5,1.9Zm-.9-.1a2.2,2.2,0,0,0-.3-1.4,1.2,1.2,0,0,0-1-.5,1.3,1.3,0,0,0-1.3.8v2.2a1.4,1.4,0,0,0,1.3.8.9.9,0,0,0,1-.5,1.7,1.7,0,0,0,.3-1.4Z"/><path id="Path_1836" data-name="Path 1836" class="cls-8" d="M276.1,48.8h-.4a1.4,1.4,0,0,0-1.2.7v3.7h-.9V48h.9v.6a1.1,1.1,0,0,1,1.2-.6c.2-.1.3,0,.4,0Z"/><path id="Path_1837" data-name="Path 1837" class="cls-8" d="M279.9,53.2a1.3,1.3,0,0,1-.1-.6,1.8,1.8,0,0,1-1.5.7,2.5,2.5,0,0,1-1.2-.4,1.3,1.3,0,0,1-.5-1.1,1.6,1.6,0,0,1,.6-1.3,2.5,2.5,0,0,1,1.7-.4h.9v-.4a1.1,1.1,0,0,0-.3-.8.8.8,0,0,0-.8-.2,1.1,1.1,0,0,0-.8.2.6.6,0,0,0-.3.6h-.9a1.1,1.1,0,0,1,.3-.8,2.5,2.5,0,0,1,3.1-.3,1.2,1.2,0,0,1,.5,1.2V52a3.6,3.6,0,0,0,.2,1.1h-.9Zm-1.5-.7.8-.2c.3-.1.4-.3.6-.6v-1h-.7c-1.1,0-1.6.3-1.6.9a.6.6,0,0,0,.2.7l.7.2Z"/><path id="Path_1838" data-name="Path 1838" class="cls-8" d="M284.5,48.8h-.4a1.4,1.4,0,0,0-1.2.7v3.7H282V48h.9v.6a1.1,1.1,0,0,1,1.2-.6c.1-.1.3,0,.4,0Z"/><path id="Path_1839" data-name="Path 1839" class="cls-8" d="M287.1,51.9l1.2-3.9h.9l-2,6c-.4.8-.9,1.3-1.6,1.3h-.5v-.7h.3l.7-.2a2.1,2.1,0,0,0,.4-.6l.2-.6L284.8,48h1Z"/><path id="Path_1840" data-name="Path 1840" class="cls-8" d="M248,57.2l2.2,5.7,2.3-5.7h1.2v6.9h-.9V58.5l-2.2,5.6h-.7l-2.3-5.6v5.6h-.9V57.2Z"/><path id="Path_1841" data-name="Path 1841" class="cls-8" d="M258.3,64.1a.7.7,0,0,1-.1-.5,2,2,0,0,1-1.5.6,1.7,1.7,0,0,1-1.2-.4,1.6,1.6,0,0,1-.5-1.1,1.3,1.3,0,0,1,.6-1.2,2.6,2.6,0,0,1,1.7-.5h.9v-.4a.9.9,0,0,0-.3-.7,1.1,1.1,0,0,0-.8-.3l-.8.2a.9.9,0,0,0-.3.6h-.9a.9.9,0,0,1,.3-.7,1.3,1.3,0,0,1,.7-.6l1-.2a2.3,2.3,0,0,1,1.4.4,1.8,1.8,0,0,1,.6,1.3v2.3a2.5,2.5,0,0,0,.1,1.2h-.9Zm-1.4-.6a1.1,1.1,0,0,0,.7-.3,1,1,0,0,0,.6-.5V61.6h-.7c-1.1,0-1.6.4-1.6,1a1.1,1.1,0,0,0,.2.6,1.1,1.1,0,0,0,.8.3Z"/><path id="Path_1842" data-name="Path 1842" class="cls-8" d="M261.3,59v.6a2.1,2.1,0,0,1,1.5-.7c1.1,0,1.7.6,1.7,1.8v3.4h-.9V60.7a1.1,1.1,0,0,0-.3-.8,1.1,1.1,0,0,0-.7-.3,1.1,1.1,0,0,0-.8.3,1,1,0,0,0-.5.6v3.6h-.9V59Z"/><path id="Path_1843" data-name="Path 1843" class="cls-8" d="M269,64.1c-.1-.1-.1-.3-.2-.5a1.8,1.8,0,0,1-1.4.6,2,2,0,0,1-1.3-.4,1.6,1.6,0,0,1-.5-1.1,1.4,1.4,0,0,1,.7-1.2A2.6,2.6,0,0,1,268,61h.8v-.4a1.4,1.4,0,0,0-.2-.7,1.6,1.6,0,0,0-.9-.3l-.7.2c-.2.2-.4.4-.4.6h-.8a1.4,1.4,0,0,1,.2-.7,1.6,1.6,0,0,1,.8-.6l1-.2a2.3,2.3,0,0,1,1.4.4,2.1,2.1,0,0,1,.5,1.3v2.3a5,5,0,0,0,.2,1.2H269Zm-1.5-.6a1.1,1.1,0,0,0,.8-.3l.5-.5V61.6h-.7c-1,0-1.6.4-1.6,1a.7.7,0,0,0,.3.6,1.1,1.1,0,0,0,.7.3Z"/><path id="Path_1844" data-name="Path 1844" class="cls-8" d="M270.9,61.5a2.6,2.6,0,0,1,.5-1.9,2,2,0,0,1,2.7-.3l.3.3V59h.8v5a1.9,1.9,0,0,1-.6,1.6,2.3,2.3,0,0,1-1.6.6,1.9,1.9,0,0,1-1-.3,1.5,1.5,0,0,1-.9-.6l.5-.6a1.5,1.5,0,0,0,1.4.7,1.1,1.1,0,0,0,1.3-1.3v-.5a1.5,1.5,0,0,1-1.4.6,1.8,1.8,0,0,1-1.5-.7A2.9,2.9,0,0,1,270.9,61.5Zm.9.1a2.2,2.2,0,0,0,.3,1.4,1.2,1.2,0,0,0,1,.5,1.3,1.3,0,0,0,1.2-.8V60.4a1.3,1.3,0,0,0-1.2-.8,1.4,1.4,0,0,0-1,.5,2.7,2.7,0,0,0-.3,1.5Z"/><path id="Path_1845" data-name="Path 1845" class="cls-8" d="M278.7,64.2a1.8,1.8,0,0,1-1.7-.7,2.4,2.4,0,0,1-.7-1.8v-.2a3.1,3.1,0,0,1,.3-1.3,3.9,3.9,0,0,1,.8-1,2.7,2.7,0,0,1,1.2-.3,1.8,1.8,0,0,1,1.5.7,3,3,0,0,1,.6,1.8v.4h-3.5a2.1,2.1,0,0,0,.4,1.2,1.6,1.6,0,0,0,1.1.5,1.1,1.1,0,0,0,.8-.2l.6-.5.5.4A1.9,1.9,0,0,1,278.7,64.2Zm-.1-4.6a1.3,1.3,0,0,0-.9.4,2.2,2.2,0,0,0-.5,1.1h2.6a1.4,1.4,0,0,0-.4-1,.9.9,0,0,0-.8-.4Z"/><path id="Path_1846" data-name="Path 1846" class="cls-8" d="M282.5,59v.6a1.7,1.7,0,0,1,1.5-.7,1.3,1.3,0,0,1,1.4.8,2.1,2.1,0,0,1,1.7-.8c1.1,0,1.7.6,1.7,1.8v3.4H288V60.7a1.1,1.1,0,0,0-.2-.8,1.6,1.6,0,0,0-.9-.3,1.1,1.1,0,0,0-.8.3,2,2,0,0,0-.4.8v3.4h-.8V60.8a1.1,1.1,0,0,0-.9-1.2h-.2a1.2,1.2,0,0,0-1.2.8v3.7h-.9V59Z"/><path id="Path_1847" data-name="Path 1847" class="cls-8" d="M292.4,64.2a1.8,1.8,0,0,1-1.7-.7,2.4,2.4,0,0,1-.7-1.8v-.2a3.1,3.1,0,0,1,.3-1.3,3.9,3.9,0,0,1,.8-1,2.4,2.4,0,0,1,1.2-.3,1.9,1.9,0,0,1,1.5.7,3,3,0,0,1,.6,1.8v.4h-3.5a1.5,1.5,0,0,0,1.5,1.7,1.1,1.1,0,0,0,.8-.2l.6-.5.5.4A2,2,0,0,1,292.4,64.2Zm-.1-4.6a1.3,1.3,0,0,0-.9.4,1.6,1.6,0,0,0-.5,1.1h2.6a1.4,1.4,0,0,0-.4-1,.9.9,0,0,0-.8-.4Z"/><path id="Path_1848" data-name="Path 1848" class="cls-8" d="M296.2,59v.6a2.4,2.4,0,0,1,1.6-.7c1.1,0,1.6.6,1.6,1.8v3.4h-.9V60.7a.8.8,0,0,0-.2-.8,1.1,1.1,0,0,0-.8-.3.9.9,0,0,0-.7.3c-.3.1-.4.3-.5.6v3.6h-.9V59Z"/><path id="Path_1849" data-name="Path 1849" class="cls-8" d="M301.9,57.8V59h1v.7h-1v3.2a.8.8,0,0,0,.2.4.5.5,0,0,0,.4.2h.4v.7h-.6a.9.9,0,0,1-.9-.3,1,1,0,0,1-.3-1V59.7h-1V59h1V57.8Z"/></g><g id="Group_2328" data-name="Group 2328"><path id="Path_1850" data-name="Path 1850" class="cls-8" d="M282.8,27.8V17.5H268.9a2.7,2.7,0,0,0-2.7,2.7V35.5a2.9,2.9,0,0,0,2.9,2.8h12.7a5.2,5.2,0,0,0,5.2-5.2h0a5.5,5.5,0,0,0-4.2-5.3Zm-1.2-.1a5.5,5.5,0,0,0-5.2,4.9h-5.3V18.7h10.5v9Zm-12.7-9h1V32.6H269a3.3,3.3,0,0,0-1.6.5V20.2a1.6,1.6,0,0,1,1.5-1.5Zm.1,18.4a1.8,1.8,0,0,1-1.7-1.7,1.7,1.7,0,0,1,1.7-1.7h7.4a4.5,4.5,0,0,0,.3,1.1h-7.4V36h8a4.7,4.7,0,0,0,1,1H269Zm12.7,0a4,4,0,0,1-4-4,4,4,0,0,1,8,0,3.9,3.9,0,0,1-3.8,4Z"/><path id="Path_1851" data-name="Path 1851" class="cls-8" d="M282.3,33.2V30.5h-1.2v2.7l-.8-.7-.8.8,2.2,2.2,2.2-2.2-.8-.8Z"/><path id="Path_1852" data-name="Path 1852" class="cls-8" d="M274.4,21h4.1v1.2h-4.1Z"/><path id="Path_1853" data-name="Path 1853" class="cls-8" d="M273,23.7h6.8v1.2H273Z"/></g><g id="Group_2329" data-name="Group 2329"><path id="Path_1854" data-name="Path 1854" class="cls-8" d="M375,57.1a11,11,0,0,1-7.2-2.6l-1.4-1.4a10.9,10.9,0,0,1-2.5-7,10,10,0,0,1,3.3-7.8,10.8,10.8,0,0,1,15.5,0,11,11,0,0,1,.8,14.8,18.5,18.5,0,0,1-1.4,1.4A10.9,10.9,0,0,1,375,57.1Zm0-20.6a9.6,9.6,0,0,0-9.7,9.5,9.9,9.9,0,0,0,2.4,6.3l1,1.1a9.4,9.4,0,0,0,12.4,0l1.1-1.1a9.5,9.5,0,0,0-7.3-15.8Z"/><path id="Path_1855" data-name="Path 1855" class="cls-8" d="M375,46.1a4.2,4.2,0,1,1,4.1-4.2,4.1,4.1,0,0,1-4.1,4.2Zm0-7a2.9,2.9,0,0,0-2.8,2.8,2.8,2.8,0,0,0,2.6,3,2.7,2.7,0,0,0,2.9-2.7v-.3A2.8,2.8,0,0,0,375,39.1Z"/><path id="Path_1856" data-name="Path 1856" class="cls-8" d="M381.6,54.7h-.1a.7.7,0,0,1-.5-.8h0a4,4,0,0,0,.3-1.5,6.2,6.2,0,0,0-6.1-6.2h-.3a6.1,6.1,0,0,0-5.8,7.7.7.7,0,1,1-1.3.3,11.3,11.3,0,0,1-.3-1.8,7.5,7.5,0,0,1,2.2-5.3,8.1,8.1,0,0,1,5.2-2.4h.3a7.3,7.3,0,0,1,5.2,2.4,7.1,7.1,0,0,1,2.2,5.3,11,11,0,0,1-.2,1.8A1,1,0,0,1,381.6,54.7Z"/></g><g id="Group_2340" data-name="Group 2340"><g id="Group_2339" data-name="Group 2339"><g class="cls-9"><g id="Group_2338" data-name="Group 2338"><g id="Group_2337" data-name="Group 2337"><rect id="Rectangle_2698" data-name="Rectangle 2698" class="cls-10" x="170.8" y="208.6" width="262.4" height="141.43"/><rect id="Rectangle_2699" data-name="Rectangle 2699" class="cls-11" x="170.8" y="208.8" width="43.2" height="143.14"/><rect id="Rectangle_2700" data-name="Rectangle 2700" class="cls-12" x="170.8" y="223.3" width="43.2" height="8.76"/><rect id="Rectangle_2701" data-name="Rectangle 2701" class="cls-12" x="220.7" y="337.6" width="91.9" height="12.53"/><rect id="Rectangle_2702" data-name="Rectangle 2702" class="cls-13" x="323.8" y="337.6" width="91.9" height="12.53"/><rect id="Rectangle_2703" data-name="Rectangle 2703" class="cls-10" x="170.8" y="235.5" width="32.6" height="3.4"/><rect id="Rectangle_2704" data-name="Rectangle 2704" class="cls-10" x="172.5" y="209" width="28.5" height="8.39"/><rect id="Rectangle_2705" data-name="Rectangle 2705" class="cls-12" x="213" y="208.1" width="21.8" height="10.7"/><rect id="Rectangle_2706" data-name="Rectangle 2706" class="cls-11" x="233.5" y="208.1" width="199.7" height="10.7"/><rect id="Rectangle_2707" data-name="Rectangle 2707" class="cls-14" x="351.7" y="209" width="25.1" height="7.66"/><rect id="Rectangle_2708" data-name="Rectangle 2708" class="cls-14" x="251.4" y="211.1" width="42.3" height="3.77"/><rect id="Rectangle_2709" data-name="Rectangle 2709" class="cls-14" x="381.4" y="209" width="30.6" height="7.66"/><g id="Group_2330" data-name="Group 2330"><rect id="Rectangle_2710" data-name="Rectangle 2710" class="cls-15" x="219" y="233.4" width="43.2" height="31.62"/><rect id="Rectangle_2711" data-name="Rectangle 2711" class="cls-13" x="220.7" y="228.9" width="17.9" height="17.88"/><rect id="Rectangle_2712" data-name="Rectangle 2712" class="cls-16" x="220.7" y="253.1" width="37.1" height="4.62"/></g><g id="Group_2331" data-name="Group 2331"><rect id="Rectangle_2713" data-name="Rectangle 2713" class="cls-15" x="272.1" y="233.4" width="43.2" height="31.62"/><rect id="Rectangle_2714" data-name="Rectangle 2714" class="cls-17" x="273.8" y="228.9" width="17.9" height="17.88"/><rect id="Rectangle_2715" data-name="Rectangle 2715" class="cls-16" x="273.8" y="253.1" width="37.1" height="4.62"/></g><g id="Group_2332" data-name="Group 2332"><rect id="Rectangle_2716" data-name="Rectangle 2716" class="cls-15" x="322" y="233.4" width="43.2" height="31.62"/><rect id="Rectangle_2717" data-name="Rectangle 2717" class="cls-18" x="323.8" y="228.9" width="17.9" height="17.88"/><rect id="Rectangle_2718" data-name="Rectangle 2718" class="cls-16" x="323.8" y="253.1" width="37.1" height="4.62"/></g><g id="Group_2333" data-name="Group 2333"><rect id="Rectangle_2719" data-name="Rectangle 2719" class="cls-15" x="375.1" y="233.4" width="43.2" height="31.62"/><rect id="Rectangle_2720" data-name="Rectangle 2720" class="cls-12" x="376.8" y="228.9" width="17.9" height="17.88"/><rect id="Rectangle_2721" data-name="Rectangle 2721" class="cls-16" x="376.8" y="253.1" width="37.1" height="4.62"/></g><rect id="Rectangle_2722" data-name="Rectangle 2722" class="cls-10" x="170.8" y="243.3" width="39" height="3.4"/><g id="Group_2334" data-name="Group 2334"><rect id="Rectangle_2723" data-name="Rectangle 2723" class="cls-15" x="220.7" y="299" width="56.3" height="31.98"/><rect id="Rectangle_2724" data-name="Rectangle 2724" class="cls-17" x="220.7" y="273.1" width="56.3" height="31.98"/><rect id="Rectangle_2725" data-name="Rectangle 2725" class="cls-16" x="224.8" y="309.7" width="48.3" height="5.23"/><rect id="Rectangle_2726" data-name="Rectangle 2726" class="cls-16" x="224.8" y="319.7" width="48.3" height="5.23"/></g><g id="Group_2335" data-name="Group 2335"><rect id="Rectangle_2727" data-name="Rectangle 2727" class="cls-15" x="289.9" y="299" width="56.3" height="31.98"/><rect id="Rectangle_2728" data-name="Rectangle 2728" class="cls-13" x="289.9" y="273.1" width="56.3" height="31.98"/><rect id="Rectangle_2729" data-name="Rectangle 2729" class="cls-16" x="294" y="309.7" width="48.3" height="5.23"/><rect id="Rectangle_2730" data-name="Rectangle 2730" class="cls-16" x="294" y="319.7" width="48.3" height="5.23"/></g><g id="Group_2336" data-name="Group 2336"><rect id="Rectangle_2731" data-name="Rectangle 2731" class="cls-15" x="359" y="299" width="56.3" height="31.98"/><rect id="Rectangle_2732" data-name="Rectangle 2732" class="cls-18" x="359" y="273.1" width="56.3" height="31.98"/><rect id="Rectangle_2733" data-name="Rectangle 2733" class="cls-16" x="363" y="309.7" width="48.3" height="5.23"/><rect id="Rectangle_2734" data-name="Rectangle 2734" class="cls-16" x="363" y="319.7" width="48.3" height="5.23"/></g></g></g></g></g></g><g id="Group_2341" data-name="Group 2341"><path id="Path_1858" data-name="Path 1858" class="cls-8" d="M457.4,98.1h1.3v1.4h1.4V95.3h-1.4v1.4h-1.3V95.3h-1.3v4.2h1.3Z"/><path id="Path_1859" data-name="Path 1859" class="cls-8" d="M468.6,112.1a2,2,0,0,0-2.1-1.9h-.7V92.5H450.5v17.7h-.8a1.9,1.9,0,0,0-2,1.9,2,2,0,0,0-1.4,2v2h23.6v-2A2.2,2.2,0,0,0,468.6,112.1ZM451.9,94h12.6v13.9h-2.8a3.6,3.6,0,1,0-7.1,0h-2.8V94Zm4.2,13.9a2,2,0,0,1,2-2.1,2.1,2.1,0,0,1,2.1,2.1h-4.1Zm1.3,1.3v5.6h-1.3v-5.6Zm1.5,0h1.3v5.6h-1.3Zm-11.2,5.6v-.7a.8.8,0,0,1,.7-.8h.7v-1.2a.8.8,0,0,1,.8-.7h.7v3.3h-2.9Zm4.2-5.6h2.8v5.6h-2.8Zm9.8,5.6v-5.6h2.8v5.6Zm6.9,0h-2.8v-3.3h.7a.8.8,0,0,1,.8.7v1.3h.7a.7.7,0,0,1,.7.7v.6Z"/><path id="Path_1860" data-name="Path 1860" class="cls-8" d="M453.3,95.3h1.3v1.4h-1.3Z"/><path id="Path_1861" data-name="Path 1861" class="cls-8" d="M461.7,95.3H463v1.4h-1.3Z"/><path id="Path_1862" data-name="Path 1862" class="cls-8" d="M453.3,98.1h1.3v1.4h-1.3Z"/><path id="Path_1863" data-name="Path 1863" class="cls-8" d="M461.7,98.1H463v1.4h-1.3Z"/><path id="Path_1864" data-name="Path 1864" class="cls-8" d="M453.3,100.9h1.3v1.4h-1.3Z"/><path id="Path_1865" data-name="Path 1865" class="cls-8" d="M456.1,100.9h1.3v1.4h-1.3Z"/><path id="Path_1866" data-name="Path 1866" class="cls-8" d="M458.9,100.9h1.3v1.4h-1.3Z"/><path id="Path_1867" data-name="Path 1867" class="cls-8" d="M461.7,100.9H463v1.4h-1.3Z"/><path id="Path_1868" data-name="Path 1868" class="cls-8" d="M453.3,103.7h1.3v1.4h-1.3Z"/><path id="Path_1869" data-name="Path 1869" class="cls-8" d="M461.7,103.7H463v1.4h-1.3Z"/></g><g id="Group_2346" data-name="Group 2346"><g id="Group_2343" data-name="Group 2343"><g id="Group_2342" data-name="Group 2342"><path id="Path_1870" data-name="Path 1870" class="cls-8" d="M514.3,181H500.8a4,4,0,0,0-4,4h0v13.5a4,4,0,0,0,3.9,4h13.6a4,4,0,0,0,3.9-4h0V185a3.9,3.9,0,0,0-3.8-4Zm2.7,17.6a2.8,2.8,0,0,1-2.7,2.8H500.8a2.8,2.8,0,0,1-2.8-2.7h0V185a2.7,2.7,0,0,1,2.7-2.7h13.6A2.6,2.6,0,0,1,517,185h0Z"/></g></g><g id="Group_2345" data-name="Group 2345"><g id="Group_2344" data-name="Group 2344"><path id="Path_1871" data-name="Path 1871" class="cls-8" d="M513.6,185.1h-8.1a.7.7,0,0,0-.6.7v3.4h-3.5a.7.7,0,0,0-.6.7v8a.7.7,0,0,0,.6.7h8.1c.4,0,.6-.3.7-.7v-3.4h3.4a.9.9,0,0,0,.7-.6v-8.1a.7.7,0,0,0-.7-.7ZM509,197.3h-6.9v-6.9H509Zm3.9-4.1h-2.7v-3.4c-.1-.4-.3-.7-.7-.7h-3.4v-2.8h6.8v6.9Z"/></g></g></g><path id="Path_1872" data-name="Path 1872" class="cls-6" d="M379.8,355.6H169.1a17.2,17.2,0,0,1-17.1-17v-3.3H396.7v3.3a16.9,16.9,0,0,1-16.7,17Z"/><g id="Group_2347" data-name="Group 2347"><path id="Path_1873" data-name="Path 1873" class="cls-8" d="M34.1,212l2.3,5.7,2.3-5.7h1.1v6.9h-.9v-5.6l-2.3,5.6H36l-2.2-5.5v5.5H33V212Z"/><path id="Path_1874" data-name="Path 1874" class="cls-8" d="M41.1,216.3a3.1,3.1,0,0,1,.3-1.3,2.5,2.5,0,0,1,.8-1l1.2-.3a2.4,2.4,0,0,1,1.7.7,3.1,3.1,0,0,1,.7,2h0a3.2,3.2,0,0,1-.3,1.4,2.4,2.4,0,0,1-.8.9,2.8,2.8,0,0,1-1.3.3,2,2,0,0,1-1.7-.7,3.1,3.1,0,0,1-.6-1.9Zm.9.1a1.8,1.8,0,0,0,.4,1.4,1.2,1.2,0,0,0,1.8.2l.3-.2a2.6,2.6,0,0,0,.4-1.5,2,2,0,0,0-.4-1.3,1.4,1.4,0,0,0-1.1-.6,1.2,1.2,0,0,0-1,.5,2.1,2.1,0,0,0-.4,1.5Z"/><path id="Path_1875" data-name="Path 1875" class="cls-8" d="M51.2,216.4a3,3,0,0,1-.5,1.9,1.6,1.6,0,0,1-1.5.7,1.7,1.7,0,0,1-1.5-.6v.5h-.8v-7.3h.8v2.8a2,2,0,0,1,3,0,3.5,3.5,0,0,1,.5,2Zm-.9-.1a2.4,2.4,0,0,0-.3-1.4,1,1,0,0,0-1-.4,1.2,1.2,0,0,0-1.3.8v2.2a1.3,1.3,0,0,0,1.3.8,1.2,1.2,0,0,0,1-.5A2.5,2.5,0,0,0,50.3,216.3Z"/><path id="Path_1876" data-name="Path 1876" class="cls-8" d="M52.3,212.4l.2-.3.3-.2.4.2.2.3a.5.5,0,0,1-.2.4c-.1.1-.2.2-.4.1s-.2,0-.3-.1A.5.5,0,0,1,52.3,212.4Zm1,6.5h-.9v-5.1h.9Z"/><path id="Path_1877" data-name="Path 1877" class="cls-8" d="M55.6,218.9h-.8v-7.3h.8Z"/><path id="Path_1878" data-name="Path 1878" class="cls-8" d="M59.2,219a2,2,0,0,1-1.7-.6,2.6,2.6,0,0,1-.7-1.9h0a3.2,3.2,0,0,1,.3-1.4,3.9,3.9,0,0,1,.8-1l1.2-.3a1.8,1.8,0,0,1,1.5.7,3.1,3.1,0,0,1,.6,1.9v.3H57.7a2,2,0,0,0,.4,1.3,1.5,1.5,0,0,0,1.1.4,1.1,1.1,0,0,0,.8-.2l.6-.5.5.4A1.9,1.9,0,0,1,59.2,219Zm-.1-4.6a1.3,1.3,0,0,0-.9.4,2.2,2.2,0,0,0-.5,1.1h2.6a1.4,1.4,0,0,0-.4-1,1.2,1.2,0,0,0-.8-.4Z"/><path id="Path_1879" data-name="Path 1879" class="cls-8" d="M27.1,228.1H24.2l-.7,1.8h-.9l2.6-6.9H26l2.6,6.9h-.9Zm-2.7-.8h2.4l-1.2-3.2Z"/><path id="Path_1880" data-name="Path 1880" class="cls-8" d="M33.8,227.4a3.5,3.5,0,0,1-.6,1.9,1.7,1.7,0,0,1-1.4.7,2,2,0,0,1-1.5-.6v2.5h-.9v-7.1h.8v.5a1.6,1.6,0,0,1,1.5-.6,1.3,1.3,0,0,1,1.4.7,3.1,3.1,0,0,1,.6,1.9Zm-.9-.1a2.3,2.3,0,0,0-.4-1.4,1.2,1.2,0,0,0-1-.5,1.4,1.4,0,0,0-1.2.7v2.5a1.4,1.4,0,0,0,1.2.7,1.2,1.2,0,0,0,1-.5,2.8,2.8,0,0,0,.4-1.5Z"/><path id="Path_1881" data-name="Path 1881" class="cls-8" d="M39.2,227.4a2.7,2.7,0,0,1-.5,1.9,1.9,1.9,0,0,1-1.4.7,2,2,0,0,1-1.5-.6v2.5h-.9v-7.1h.8v.5a1.8,1.8,0,0,1,1.5-.6,1.5,1.5,0,0,1,1.5.7,2.5,2.5,0,0,1,.5,1.9Zm-.8-.1a2.3,2.3,0,0,0-.4-1.4,1.2,1.2,0,0,0-1-.5,1.4,1.4,0,0,0-1.2.7v2.5a1.4,1.4,0,0,0,1.2.7,1.2,1.2,0,0,0,1-.5A2.8,2.8,0,0,0,38.4,227.3Z"/><path id="Path_1882" data-name="Path 1882" class="cls-8" d="M41.3,229.9h-.9v-7.3h.9Z"/><path id="Path_1883" data-name="Path 1883" class="cls-8" d="M42.7,223.4a.8.8,0,0,1,.2-.4h.7a.8.8,0,0,1,.2.4.5.5,0,0,1-.5.5h-.1l-.3-.2Zm1,6.5h-.9v-5.2h.9Z"/><path id="Path_1884" data-name="Path 1884" class="cls-8" d="M47.1,229.3l.9-.3a1.6,1.6,0,0,0,.4-.7h.8a1.1,1.1,0,0,1-.3.8,1.6,1.6,0,0,1-.8.6,1.7,1.7,0,0,1-1,.3,2,2,0,0,1-1.6-.7,2.3,2.3,0,0,1-.6-1.9v-.2a2,2,0,0,1,.2-1.3,2.4,2.4,0,0,1,.8-.9,1.8,1.8,0,0,1,1.2-.3,1.7,1.7,0,0,1,1.5.5,1.6,1.6,0,0,1,.6,1.3h-.8a2,2,0,0,0-.4-.8,1.2,1.2,0,0,0-.9-.3,1,1,0,0,0-1,.5,2.3,2.3,0,0,0-.4,1.4h0a2.3,2.3,0,0,0,.4,1.4A1.2,1.2,0,0,0,47.1,229.3Z"/><path id="Path_1885" data-name="Path 1885" class="cls-8" d="M53.3,229.9c0-.2-.1-.4-.1-.6a1.7,1.7,0,0,1-1.4.7,2,2,0,0,1-1.3-.4,1.6,1.6,0,0,1,.1-2.4,2.7,2.7,0,0,1,1.8-.4h.8v-.4a1.1,1.1,0,0,0-.3-.8.8.8,0,0,0-.8-.2,1.2,1.2,0,0,0-.8.2.6.6,0,0,0-.3.6h-.9a1.1,1.1,0,0,1,.3-.8l.7-.5a2.2,2.2,0,0,1,1.1-.2,1.8,1.8,0,0,1,1.4.4,1.8,1.8,0,0,1,.5,1.2v2.4a2,2,0,0,0,.2,1.1h-1Zm-1.4-.7.8-.2.5-.5v-1.1h-.7c-1.1,0-1.6.3-1.6.9a.9.9,0,0,0,.3.7l.7.2Z"/><path id="Path_1886" data-name="Path 1886" class="cls-8" d="M56.7,223.5v1.3h.9v.6h-.9v3.2a.4.4,0,0,0,.1.5c.1.1.3.2.4.1h.4v.7H57a1,1,0,0,1-.9-.4,1.7,1.7,0,0,1-.3-1v-3.2h-1v-.6h1v-1.3Z"/><path id="Path_1887" data-name="Path 1887" class="cls-8" d="M58.6,223.4l.2-.4h.8v.4a.5.5,0,0,1-.5.5h0l-.4-.2Zm1,6.5h-.9v-5.2h.9Z"/><path id="Path_1888" data-name="Path 1888" class="cls-8" d="M60.8,227.3a3.2,3.2,0,0,1,.3-1.4,1.8,1.8,0,0,1,.8-.9,2.5,2.5,0,0,1,2.9.4,2.6,2.6,0,0,1,.7,1.9h0a3.1,3.1,0,0,1-.3,1.3,2.8,2.8,0,0,1-.9,1,2.4,2.4,0,0,1-1.2.3,2.8,2.8,0,0,1-1.7-.7,3,3,0,0,1-.6-2Zm.9.1a1.6,1.6,0,0,0,.4,1.3,1.3,1.3,0,0,0,1.8.3l.3-.3a2.6,2.6,0,0,0,0-2.8,1.6,1.6,0,0,0-1.1-.5,1.2,1.2,0,0,0-1,.5,2,2,0,0,0-.4,1.5Z"/><path id="Path_1889" data-name="Path 1889" class="cls-8" d="M67.4,224.8v.6a1.6,1.6,0,0,1,1.6-.7c1,0,1.6.6,1.6,1.8v3.4h-.9v-3.4a1.9,1.9,0,0,0-.2-.8,1.1,1.1,0,0,0-.8-.3l-.8.2-.5.6v3.7h-.8v-5.1Z"/></g><circle id="Ellipse_69" data-name="Ellipse 69" class="cls-4" cx="95.3" cy="124.5" r="42.5"/><g id="Group_2348" data-name="Group 2348"><path id="Path_1890" data-name="Path 1890" class="cls-8" d="M89.2,130.2a3.9,3.9,0,0,1-.4,1.8,2,2,0,0,1-.9,1.1,2.6,2.6,0,0,1-3.7-.7L84,132a3.3,3.3,0,0,1-.4-1.7v-.5A3.9,3.9,0,0,1,84,128a2.5,2.5,0,0,1,2.4-1.6,4.2,4.2,0,0,1,1.5.4,2.7,2.7,0,0,1,.9,1.2,3.9,3.9,0,0,1,.4,1.8Zm-.9-.4a3.8,3.8,0,0,0-.5-1.9,1.6,1.6,0,0,0-1.4-.7,1.9,1.9,0,0,0-1.4.7,3.7,3.7,0,0,0-.5,1.8v.5a4.1,4.1,0,0,0,.5,1.9,1.8,1.8,0,0,0,2.5.3l.3-.3a3.7,3.7,0,0,0,.5-1.8Z"/><path id="Path_1891" data-name="Path 1891" class="cls-8" d="M91.2,128.3v.7a1.8,1.8,0,0,1,1.5-.8c1.1,0,1.6.6,1.6,1.9v3.4h-.8v-3.4a1.6,1.6,0,0,0-.3-.9.8.8,0,0,0-.8-.2,1,1,0,0,0-.7.2l-.5.6v3.7h-.9v-5.2Z"/><path id="Path_1892" data-name="Path 1892" class="cls-8" d="M96.7,133.5h-.8v-7.3h.8Z"/><path id="Path_1893" data-name="Path 1893" class="cls-8" d="M98.1,126.9c0-.1.1-.2.2-.3l.4-.2.3.2c.1.1.2.2.2.3a.5.5,0,0,1-.2.4c-.1.1-.2.2-.3.1s-.5-.1-.6-.4Zm1,6.5h-.9v-5.1h.9Z"/><path id="Path_1894" data-name="Path 1894" class="cls-8" d="M101.3,128.3v.7a1.8,1.8,0,0,1,1.5-.8c1.1,0,1.6.6,1.6,1.9v3.4h-.8v-3.4a1.6,1.6,0,0,0-.3-.9.8.8,0,0,0-.8-.2,1,1,0,0,0-.7.2l-.5.6v3.7h-.9v-5.2Z"/><path id="Path_1895" data-name="Path 1895" class="cls-8" d="M108,133.5a2.1,2.1,0,0,1-1.7-.6,2.6,2.6,0,0,1-.7-1.9h0a3.2,3.2,0,0,1,.3-1.4,2,2,0,0,1,.9-.9,1.5,1.5,0,0,1,1.1-.4,1.7,1.7,0,0,1,1.5.7,3.1,3.1,0,0,1,.6,1.9v.3h-3.5a2.1,2.1,0,0,0,.5,1.3,1.2,1.2,0,0,0,1,.4,1.1,1.1,0,0,0,.8-.2c.3-.1.4-.3.6-.5l.5.5A2,2,0,0,1,108,133.5Zm-.1-4.6a1.3,1.3,0,0,0-.9.4,2.2,2.2,0,0,0-.5,1.1h2.6a1.9,1.9,0,0,0-.3-1,1.8,1.8,0,0,0-.9-.4Z"/><path id="Path_1896" data-name="Path 1896" class="cls-8" d="M78.3,142.6H75.4l-.6,1.8h-1l2.7-6.9h.8l2.6,6.9H79Zm-2.6-.8H78l-1.1-3.2Z"/><path id="Path_1897" data-name="Path 1897" class="cls-8" d="M80.5,141.8a3,3,0,0,1,.5-1.9,1.9,1.9,0,0,1,2.7-.3.2.2,0,0,1,.2.2v-2.7h.9v7.3H84v-.5a2,2,0,0,1-1.5.6,2.1,2.1,0,0,1-1.5-.7,4.5,4.5,0,0,1-.5-1.9Zm.9.1a2.4,2.4,0,0,0,.3,1.4,1,1,0,0,0,1,.4,1.1,1.1,0,0,0,1.2-.7v-2.4a1.3,1.3,0,0,0-2.2-.2,2.7,2.7,0,0,0-.3,1.5Z"/><path id="Path_1898" data-name="Path 1898" class="cls-8" d="M87,139.3v.5a1.9,1.9,0,0,1,1.6-.6,1.2,1.2,0,0,1,1.4.8,1.9,1.9,0,0,1,1.7-.8c1.1,0,1.7.6,1.7,1.8v3.4h-.9V141a1.9,1.9,0,0,0-.2-.8l-.9-.3a1.1,1.1,0,0,0-.8.3,1.2,1.2,0,0,0-.4.8v3.4h-.9V141a.9.9,0,0,0-.8-1.1h-.3a1.1,1.1,0,0,0-1.1.7v3.8h-.9v-5.1Z"/><path id="Path_1899" data-name="Path 1899" class="cls-8" d="M94.7,137.9v-.4a.6.6,0,0,1,.8,0,.8.8,0,0,1,.2.4.5.5,0,0,1-.5.5.5.5,0,0,1-.6-.5Zm1,6.5h-.9v-5.1h.9Z"/><path id="Path_1900" data-name="Path 1900" class="cls-8" d="M100.1,143a.5.5,0,0,0-.3-.5l-.9-.4a2,2,0,0,1-1.1-.3l-.6-.5a1.4,1.4,0,0,1-.2-.6,1.3,1.3,0,0,1,.6-1.1,1.6,1.6,0,0,1,1.3-.4,2.1,2.1,0,0,1,1.5.4,1.7,1.7,0,0,1,.5,1.2H100a.9.9,0,0,0-.3-.7l-.8-.2a1,1,0,0,0-.7.2.6.6,0,0,0,0,1,1.6,1.6,0,0,0,.9.3l1,.4a1.8,1.8,0,0,1,.7.5,1.4,1.4,0,0,1,.2.7,1.4,1.4,0,0,1-.6,1.1,2.3,2.3,0,0,1-1.4.4l-1.1-.2-.8-.6a2.9,2.9,0,0,1-.2-.9h.8a1.6,1.6,0,0,0,.4.7l.9.3.8-.2A.6.6,0,0,0,100.1,143Z"/><path id="Path_1901" data-name="Path 1901" class="cls-8" d="M105.1,143a.5.5,0,0,0-.3-.5l-.9-.4a2.3,2.3,0,0,1-1.1-.3l-.6-.5a.7.7,0,0,1-.1-.6,1.2,1.2,0,0,1,.5-1.1,2.7,2.7,0,0,1,2.8,0,1.7,1.7,0,0,1,.5,1.2H105a.9.9,0,0,0-.3-.7l-.7-.2a1.1,1.1,0,0,0-.8.2.6.6,0,0,0,0,1,1.6,1.6,0,0,0,.9.3l1.1.4.6.5a1.4,1.4,0,0,1,.2.7,1.4,1.4,0,0,1-.6,1.1,2.3,2.3,0,0,1-1.4.4l-1.1-.2a2.2,2.2,0,0,1-.7-.6,1.6,1.6,0,0,1-.3-.9h.9a.9.9,0,0,0,.3.7l.9.3.8-.2A.6.6,0,0,0,105.1,143Z"/><path id="Path_1902" data-name="Path 1902" class="cls-8" d="M107.1,137.9v-.4h.8l.2.4-.2.4h-.4c-.2,0-.5-.2-.5-.4Zm1,6.5h-.9v-5.1h.9Z"/><path id="Path_1903" data-name="Path 1903" class="cls-8" d="M109.2,141.8a3.2,3.2,0,0,1,.3-1.4,2,2,0,0,1,.9-.9,2.1,2.1,0,0,1,1.2-.3,2,2,0,0,1,1.7.7,2.6,2.6,0,0,1,.6,1.9h0a3.1,3.1,0,0,1-.3,1.3,1.9,1.9,0,0,1-.8,1,2.7,2.7,0,0,1-1.2.3,2.4,2.4,0,0,1-1.7-.7,3.1,3.1,0,0,1-.7-2Zm.9.1a2.3,2.3,0,0,0,.4,1.4,1.5,1.5,0,0,0,1.9.2c.1-.1.2-.2.2-.3a2.6,2.6,0,0,0,0-2.8,1.2,1.2,0,0,0-1.8-.2l-.3.2a2.6,2.6,0,0,0-.4,1.5Z"/><path id="Path_1904" data-name="Path 1904" class="cls-8" d="M115.8,139.3v.6a1.5,1.5,0,0,1,1.5-.7c1.1,0,1.6.6,1.7,1.8v3.4h-.9V141a1,1,0,0,0-1.1-1.1l-.7.2-.5.6v3.7H115v-5.1Z"/></g><g id="Group_2349" data-name="Group 2349"><path id="Path_1905" data-name="Path 1905" class="cls-8" d="M104.9,107.1l-3.2-3.1V98.4a1.9,1.9,0,0,0-1.9-2H91a2.1,2.1,0,0,0-2,1.9h0v18.7a1.9,1.9,0,0,0,1.9,1.9h13.7a.4.4,0,0,0,.6-.4l1.2-6.2A6,6,0,0,0,104.9,107.1Zm-14-9.5h8.7a.6.6,0,0,1,.6.6h0v8.7a2.1,2.1,0,1,0-2.9,2.9h0l2.6,2.7a6,6,0,0,0-1.9,2.3H90.1V98.2c.2-.2.4-.6.8-.6Zm-.6,19.5v-.9h7.4a11,11,0,0,1-.3,1.6H90.9a.6.6,0,0,1-.6-.7Zm14.8-5-1.1,5.6H98.9a5.4,5.4,0,0,1,1.2-3.4,3.2,3.2,0,0,1,1.2-1,.6.6,0,0,0,.5-.8l-.2-.3-3.2-3.3a.7.7,0,0,1,0-1,.7.7,0,0,1,1.1-.1h0l3.2,3.1a.6.6,0,0,0,.9,0,.7.7,0,0,0,0-1l-1.8-1.8v-2.5l2.3,2.3a5,5,0,0,1,1,4.1Z"/></g><circle id="Ellipse_70" data-name="Ellipse 70" class="cls-4" cx="176.6" cy="65.9" r="42.6"/><g id="Group_2350" data-name="Group 2350"><path id="Path_1906" data-name="Path 1906" class="cls-8" d="M169.5,69.3h-3v2.5H170v.7h-4.4V65.6h4.3v.8h-3.4v2.2h3Z"/><path id="Path_1907" data-name="Path 1907" class="cls-8" d="M172.7,69.3l1.1-1.9h1l-1.6,2.5,1.7,2.6h-1l-1.2-1.9-1.2,1.9h-1l1.7-2.6-1.7-2.5h1.1Z"/><path id="Path_1908" data-name="Path 1908" class="cls-8" d="M178.9,72.5a4.3,4.3,0,0,1-.1-.5,2,2,0,0,1-1.4.6,2,2,0,0,1-1.3-.4,1.6,1.6,0,0,1-.5-1.1,1.3,1.3,0,0,1,.6-1.2,2.7,2.7,0,0,1,1.8-.5h.8V69a.9.9,0,0,0-.3-.7,1.1,1.1,0,0,0-.8-.3l-.8.2a.9.9,0,0,0-.3.6h-.9a.9.9,0,0,1,.3-.7,1.9,1.9,0,0,1,.7-.6l1.1-.2a2.3,2.3,0,0,1,1.4.4,1.9,1.9,0,0,1,.5,1.3v2.3a2.5,2.5,0,0,0,.2,1.2h-1Zm-1.4-.6a1.3,1.3,0,0,0,.8-.3l.5-.5V70h-.7c-1.1,0-1.6.3-1.6,1a.7.7,0,0,0,.3.6.9.9,0,0,0,.7.3Z"/><path id="Path_1909" data-name="Path 1909" class="cls-8" d="M181.9,67.4V68a1.9,1.9,0,0,1,1.5-.7,1.5,1.5,0,0,1,1.5.8,2.1,2.1,0,0,1,1.6-.8c1.2,0,1.7.6,1.8,1.8v3.4h-.9V69.1a1.1,1.1,0,0,0-1.9-.8,1.2,1.2,0,0,0-.4.8v3.4h-.9V69.2a1,1,0,0,0-.8-1.2h-.3a1.3,1.3,0,0,0-1.2.8v3.7h-.8V67.4Z"/><path id="Path_1910" data-name="Path 1910" class="cls-8" d="M150.2,76.6l2.2,5.6,2.3-5.6h1.2v6.9H155V77.9l-2.3,5.6h-.7l-2.3-5.6v5.6H149V76.6Z"/><path id="Path_1911" data-name="Path 1911" class="cls-8" d="M160.5,83.5c0-.2-.1-.4-.1-.6a2.1,2.1,0,0,1-1.5.7,1.8,1.8,0,0,1-1.2-.5,1.3,1.3,0,0,1-.5-1.1,1.6,1.6,0,0,1,.6-1.2,2.5,2.5,0,0,1,1.7-.4h.9V80a1.1,1.1,0,0,0-1.9-.8.6.6,0,0,0-.3.6h-.9a1.1,1.1,0,0,1,.3-.8l.7-.6,1.1-.2a2.4,2.4,0,0,1,1.4.5,1.7,1.7,0,0,1,.5,1.2v2.4a2.2,2.2,0,0,0,.2,1.1h-1Zm-1.4-.7.8-.2a1,1,0,0,0,.5-.6V81h-.7c-1.1,0-1.6.3-1.6.9a.9.9,0,0,0,.3.7Z"/><path id="Path_1912" data-name="Path 1912" class="cls-8" d="M163.5,78.3V79a1.9,1.9,0,0,1,1.6-.8c1,0,1.6.6,1.6,1.9v3.4h-.9V80.1a1.9,1.9,0,0,0-.2-.8,1.1,1.1,0,0,0-.8-.3l-.8.2-.5.6v3.7h-.8V78.3Z"/><path id="Path_1913" data-name="Path 1913" class="cls-8" d="M171.2,83.5a1.3,1.3,0,0,1-.1-.6,2.1,2.1,0,0,1-1.5.7,1.8,1.8,0,0,1-1.2-.5c-.4-.2-.5-.6-.5-1.1a1.6,1.6,0,0,1,.6-1.2,2.5,2.5,0,0,1,1.7-.4h.9V80a1.1,1.1,0,0,0-1.9-.8.6.6,0,0,0-.3.6H168a1.1,1.1,0,0,1,.3-.8,2.2,2.2,0,0,1,.7-.6l1-.2a2.4,2.4,0,0,1,1.4.5,1.3,1.3,0,0,1,.5,1.2v2.4a4.3,4.3,0,0,0,.2,1.1h-.9Zm-1.5-.7.8-.2a1.7,1.7,0,0,0,.6-.6V81h-.7c-1.1,0-1.6.3-1.6.9a.6.6,0,0,0,.2.7Z"/><path id="Path_1914" data-name="Path 1914" class="cls-8" d="M173.1,80.9a3.6,3.6,0,0,1,.6-2,1.9,1.9,0,0,1,2.7-.2l.2.2v-.6h.8v5a1.8,1.8,0,0,1-.5,1.6,2.7,2.7,0,0,1-1.6.6l-1.1-.2a1.9,1.9,0,0,1-.8-.7l.4-.5a1.9,1.9,0,0,0,1.4.7,1.4,1.4,0,0,0,1.4-1.4V83a2,2,0,0,1-1.5.6,1.6,1.6,0,0,1-1.4-.8A3.1,3.1,0,0,1,173.1,80.9Zm.9.1a3.1,3.1,0,0,0,.3,1.3,1.4,1.4,0,0,0,1,.5,1.6,1.6,0,0,0,1.3-.7V79.7a1.5,1.5,0,0,0-1.2-.7,1.2,1.2,0,0,0-1,.5A2.4,2.4,0,0,0,174,81Z"/><path id="Path_1915" data-name="Path 1915" class="cls-8" d="M180.9,83.6a2.6,2.6,0,0,1-1.7-.7,2.6,2.6,0,0,1-.7-1.9h0a3.2,3.2,0,0,1,.3-1.4,2,2,0,0,1,.9-.9,2.1,2.1,0,0,1,1.1-.4,2,2,0,0,1,1.6.7,2.5,2.5,0,0,1,.5,1.9v.4h-3.5a2.1,2.1,0,0,0,.5,1.2,1,1,0,0,0,1.1.4.9.9,0,0,0,.7-.1l.6-.5.5.4A2.3,2.3,0,0,1,180.9,83.6Zm-.1-4.6a1.4,1.4,0,0,0-.9.3,1.5,1.5,0,0,0-.4,1.1H182a2,2,0,0,0-.3-1.1c-.3-.2-.6-.4-.9-.3Z"/><path id="Path_1916" data-name="Path 1916" class="cls-8" d="M184.8,78.3v.6a2.1,2.1,0,0,1,1.5-.7,1.6,1.6,0,0,1,1.5.9,1.2,1.2,0,0,1,.6-.6,1.9,1.9,0,0,1,1-.3c1.1,0,1.7.6,1.7,1.8v3.5h-.9V80.1a.8.8,0,0,0-.2-.8.7.7,0,0,0-.8-.3,1.6,1.6,0,0,0-.9.3,1.1,1.1,0,0,0-.3.8v3.4h-.9V80.1a1,1,0,0,0-.8-1.1H186a1.1,1.1,0,0,0-1.2.7v3.8h-.9V78.3Z"/><path id="Path_1917" data-name="Path 1917" class="cls-8" d="M194.6,83.6a2.4,2.4,0,0,1-1.7-.7,2.6,2.6,0,0,1-.7-1.9h0a3.2,3.2,0,0,1,.3-1.4,2.4,2.4,0,0,1,.8-.9,2.8,2.8,0,0,1,1.2-.4,1.8,1.8,0,0,1,1.5.7,3.1,3.1,0,0,1,.6,1.9v.4h-3.5a2.1,2.1,0,0,0,.5,1.2,1,1,0,0,0,1,.4,1.1,1.1,0,0,0,.8-.1l.6-.5.5.4A2.3,2.3,0,0,1,194.6,83.6Zm-.1-4.6a1.2,1.2,0,0,0-.9.3,2.2,2.2,0,0,0-.5,1.1h2.6a2,2,0,0,0-.3-1.1c-.3-.2-.6-.4-.9-.3Z"/><path id="Path_1918" data-name="Path 1918" class="cls-8" d="M198.4,78.3V79a1.8,1.8,0,0,1,1.5-.8c1.1,0,1.6.6,1.6,1.9v3.4h-.8V80.1a1,1,0,0,0-1.1-1.1l-.7.2-.5.6v3.7h-.9V78.3Z"/><path id="Path_1919" data-name="Path 1919" class="cls-8" d="M204.2,77.1v1.2h.9V79h-.9v3.2a.9.9,0,0,0,.1.5h.8v.7h-.6a1,1,0,0,1-.9-.4,1.7,1.7,0,0,1-.3-1V79h-.9v-.7h.9V77.1Z"/></g><g id="Group_2351" data-name="Group 2351"><path id="Path_1920" data-name="Path 1920" class="cls-8" d="M174.7,44.1h-3.1a.7.7,0,0,0-.7.6c0,.4.3.6.7.6h3.1a.5.5,0,0,0,.6-.5h0C175.3,44.4,175,44.2,174.7,44.1Z"/><path id="Path_1921" data-name="Path 1921" class="cls-8" d="M174.7,47.3h-3.1a.6.6,0,1,0,0,1.2h3.1a.6.6,0,0,0,.6-.5h0A.6.6,0,0,0,174.7,47.3Z"/><path id="Path_1922" data-name="Path 1922" class="cls-8" d="M174.7,50.5h-3.1c-.4,0-.7.2-.7.6a.7.7,0,0,0,.7.6h3.1a.6.6,0,0,0,.6-.6h0A.6.6,0,0,0,174.7,50.5Z"/><path id="Path_1923" data-name="Path 1923" class="cls-8" d="M183.2,49.4V43.9a2.8,2.8,0,0,0-.8-2.1l-2.5-2.5h0a2.7,2.7,0,0,0-2.1-.9h-7.7a1.8,1.8,0,0,0-1.8,1.8V55.7a1.8,1.8,0,0,0,1.8,1.8h9.2a4.2,4.2,0,0,0,3.3,1.3,4.7,4.7,0,0,0,4.8-4.6h0A4.5,4.5,0,0,0,183.2,49.4Zm-13.7,6.3V40.1a.6.6,0,0,1,.5-.6h7.8a2.4,2.4,0,0,1,1.3.5l2.4,2.5h0a1.7,1.7,0,0,1,.5,1.3v5.4a4.8,4.8,0,0,0-4.1,4.8,4.3,4.3,0,0,0,.6,2.2h-8.4c-.3.1-.6-.3-.6-.5Zm13.1,1.8a3.5,3.5,0,0,1-3.5-3.5,3.5,3.5,0,0,1,3.5-3.5,3.4,3.4,0,0,1,3.5,3.5,3.3,3.3,0,0,1-3.3,3.5Z"/><path id="Path_1924" data-name="Path 1924" class="cls-8" d="M184.1,52.6a.7.7,0,0,0-.9.2h0l-.9,1.2-.3-.5a.5.5,0,0,0-.8-.2.6.6,0,0,0-.3.8l.6,1.2.5.4h.1a.5.5,0,0,0,.5-.3l1.6-1.9c.1-.4.1-.7-.1-.9Z"/><path id="Path_1925" data-name="Path 1925" class="cls-8" d="M177.9,45.3h.6a.6.6,0,0,0,.6-.6.6.6,0,0,0-.6-.6h-.6a.6.6,0,0,0-.6.6A.5.5,0,0,0,177.9,45.3Z"/><path id="Path_1926" data-name="Path 1926" class="cls-8" d="M179.1,47.9a.6.6,0,0,0-.5-.6h-.7a.6.6,0,1,0,0,1.2h.6a.6.6,0,0,0,.6-.5Z"/></g></g></svg>