<?xml version="1.0" encoding="utf-8"?>
<!-- Generator: Adobe Illustrator 24.3.0, SVG Export Plug-In . SVG Version: 6.00 Build 0)  -->
<svg version="1.1" id="Layer_1" xmlns="http://www.w3.org/2000/svg" xmlns:xlink="http://www.w3.org/1999/xlink" x="0px" y="0px"
	 viewBox="0 0 1400 711" style="enable-background:new 0 0 1400 711;" xml:space="preserve">
<style type="text/css">
	.st0{fill:#2F3293;}
	.st1{clip-path:url(#SVGID_2_);}
	.st2{fill:#4C4FB4;}
	.st3{fill:#FFFFFF;}
	.st4{fill:#EDEDED;}
	.st5{fill:#96C162;}
	.st6{fill:#33358E;}
	.st7{font-family:'Roboto-Medium';}
	.st8{font-size:10.95px;}
</style>
<rect id="Rectangle_1-2" x="0" class="st0" width="1400" height="711"/>
<g>
	<defs>
		<rect id="SVGID_1_" x="0" width="1400" height="711"/>
	</defs>
	<clipPath id="SVGID_2_">
		<use xlink:href="#SVGID_1_"  style="overflow:visible;"/>
	</clipPath>
	<g class="st1">
		<path id="Path_1622" class="st2" d="M495.2-99.7c0,0,130.4-36.6,90.4,81s-11.8,201.2,109.6,246.6s107,154.5,102.1,204
			s7.8,126.3,115.1,175.9s147,140.1,74.4,209.8s-1013.1,60-1013.1,60l-0.2-926.9L495.2-99.7z"/>
		<path id="Path_2" class="st3" d="M476.2-99.7c0,0,130.4-36.6,90.4,81s-11.8,201.2,109.6,246.6s107,154.5,102.1,204
			s7.8,126.3,115.1,175.9s147,140.1,74.4,209.8s-1013.1,60-1013.1,60l-0.2-926.9L476.2-99.7z"/>
	</g>
</g>
<g id="OBJECTS">
	<g>
		<g id="Group_2356" transform="translate(441.491 172.601)">
			<path id="Path_1941" class="st4" d="M182.7,276.2l-15.4-26.7c-1.6-2.8-1.6-6.2,0-9l15.4-26.7c1.6-2.8,4.6-4.5,7.8-4.5h30.9
				c3.2,0,6.2,1.7,7.8,4.5l15.4,26.7c1.6,2.8,1.6,6.2,0,9l-15.4,26.7c-1.6,2.8-4.6,4.5-7.8,4.5h-30.9
				C187.3,280.7,184.3,279,182.7,276.2z"/>
		</g>
		<g id="Group_2357" transform="translate(0 178.942)">
			<path id="Path_1942" class="st4" d="M221.3,275.6l-15.4-26.7c-1.6-2.8-1.6-6.2,0-9l15.4-26.7c1.6-2.8,4.6-4.5,7.8-4.5H260
				c3.2,0,6.2,1.7,7.8,4.5l15.4,26.7c1.6,2.8,1.6,6.2,0,9l-15.4,26.7c-1.6,2.8-4.6,4.5-7.8,4.5h-30.9
				C225.9,280.2,223,278.4,221.3,275.6z"/>
		</g>
		<g id="Group_2358" transform="translate(341.035 367.081)">
			<path id="Path_1943" class="st4" d="M183.2,229.6l-7.6-13.1c-1.3-2.3-1.3-5.1,0-7.4l7.6-13.2c1.3-2.3,3.8-3.7,6.5-3.7h15.2
				c2.7,0,5.1,1.4,6.5,3.7l7.6,13.2c1.3,2.3,1.3,5.1,0,7.4l-7.6,13.2c-1.3,2.3-3.8,3.7-6.5,3.7h-15.2
				C187,233.4,184.5,232,183.2,229.6z"/>
		</g>
		<g id="Group_2359" transform="translate(137.032 20.207)">
			<path id="Path_1944" class="st4" d="M201.1,260l-7.6-13.1c-1.3-2.3-1.3-5.1,0-7.4l7.6-13.2c1.3-2.3,3.8-3.7,6.5-3.7h15.2
				c2.7,0,5.1,1.4,6.5,3.7l7.6,13.2c1.3,2.3,1.3,5.1,0,7.4l-7.6,13.2c-1.3,2.3-3.8,3.7-6.5,3.7h-15.2
				C204.9,263.7,202.4,262.3,201.1,260z"/>
		</g>
		<path id="Path_1945" class="st4" d="M289.6,413.5l-30.6-53c-1.8-3.1-1.8-6.9,0-9.9l30.6-53c1.8-3.1,5-5,8.6-5h61.2
			c3.5,0,6.8,1.9,8.6,5l30.6,53c1.8,3.1,1.8,6.9,0,9.9l-30.6,53c-1.8,3.1-5,5-8.6,5h-61.2C294.6,418.5,291.4,416.6,289.6,413.5z"/>
		<path id="Path_1946" class="st5" d="M407.1,480.1l-30.6-53c-1.8-3.1-1.8-6.9,0-9.9l30.6-53c1.8-3.1,5-5,8.6-5H477
			c3.5,0,6.8,1.9,8.6,5l30.6,53c1.8,3.1,1.8,6.9,0,9.9l-30.6,53c-1.8,3.1-5,5-8.6,5h-61.2C412.2,485,408.9,483.1,407.1,480.1z"/>
		<path id="Path_1947" class="st4" d="M522.8,410.4l-30.6-53c-1.8-3.1-1.8-6.9,0-9.9l30.6-53c1.8-3.1,5-5,8.6-5h61.2
			c3.5,0,6.8,1.9,8.6,5l30.6,53c1.8,3.1,1.8,6.9,0,9.9l-30.6,53c-1.8,3.1-5,5-8.6,5h-61.2C527.8,415.3,524.6,413.4,522.8,410.4z"/>
		<g id="Group_2360" transform="translate(184.491)">
			<path id="Path_1948" class="st4" d="M220.6,345.2l-30.6-53c-1.8-3.1-1.8-6.9,0-9.9l30.6-53c1.8-3.1,5-5,8.6-5h61.2
				c3.5,0,6.8,1.9,8.6,5l30.6,53c1.8,3.1,1.8,6.9,0,9.9l-30.6,53c-1.8,3.1-5,5-8.6,5h-61.2C225.7,350.2,222.4,348.3,220.6,345.2z"/>
		</g>
		<g id="Group_2361" transform="translate(187.662 294.5)">
			<path id="Path_1949" class="st4" d="M220.4,319.4l-30.6-53c-1.8-3.1-1.8-6.9,0-9.9l30.6-53c1.8-3.1,5-5,8.6-5h61.2
				c3.5,0,6.8,1.9,8.6,5l30.6,53c1.8,3.1,1.8,6.9,0,9.9l-30.6,53c-1.8,3.1-5,5-8.6,5H229C225.4,324.4,222.1,322.5,220.4,319.4z"/>
		</g>
		<g id="Group_2362" transform="translate(315.891 219.246)">
			<path id="Path_1950" class="st4" d="M209.1,326l-30.6-53c-1.8-3.1-1.8-6.9,0-9.9l30.6-53c1.8-3.1,5-5,8.6-5H279
				c3.5,0,6.8,1.9,8.6,5l30.6,53c1.8,3.1,1.8,6.9,0,9.9l-30.6,53c-1.8,3.1-5,5-8.6,5h-61.2C214.2,331,210.9,329.1,209.1,326z"/>
		</g>
		<g id="Group_2363" transform="translate(58.934 222.373)">
			<path id="Path_1951" class="st4" d="M231.6,325.8l-30.6-53c-1.8-3.1-1.8-6.9,0-9.9l30.6-53c1.8-3.1,5-5,8.6-5h61.2
				c3.5,0,6.8,1.9,8.6,5l30.6,53c1.8,3.1,1.8,6.9,0,9.9l-30.6,53c-1.8,3.1-5,5-8.6,5h-61.2C236.7,330.7,233.4,328.8,231.6,325.8z"/>
		</g>
		<text transform="matrix(1 0 0 1 288.9957 518.2979)" class="st6 st7 st8">Live Bus Tracking</text>
		<text transform="matrix(1 0 0 1 303.2984 373.8848)" class="st6 st7 st8">Bio-Metric</text>
		<text transform="matrix(1 0 0 1 302.0846 387.0254)" class="st6 st7 st8">Integration</text>
		<text transform="matrix(1 0 0 1 410.4293 310.6353)" class="st6 st7 st8">SMS Gateway</text>
		<text transform="matrix(1 0 0 1 541.6304 368.5195)" class="st6 st7 st8">Barcode</text>
		<text transform="matrix(1 0 0 1 535.2613 381.6602)" class="st6 st7 st8">Integration</text>
		<text transform="matrix(1 0 0 1 517.7818 503.7451)" class="st6 st7 st8">Payment Gateway</text>
		<text transform="matrix(1 0 0 1 535.2652 516.8848)" class="st6 st7 st8">Integration</text>
		<text transform="matrix(1 0 0 1 406.7125 580.6934)" class="st6 st7 st8">RFID Integration</text>
		<text transform="matrix(1 0 0 1 432.3287 439.7969)" class="st3 st7 st8">CCTV</text>
		<text transform="matrix(1 0 0 1 416.4234 452.9365)" class="st3 st7 st8">Surveillance</text>
		<g>
			<path class="st6" d="M336.6,492.8h1.4c1.5,0,2.8-1.3,2.8-2.8v-1.9h1.3v-15.4h4v-4.8c0-1.5-1.3-2.8-2.8-2.8h-1.2V462
				c0-1.6-1.3-2.9-2.9-2.9h-20c-1.6,0-2.9,1.3-2.9,2.9v3.1h-1.2c-1.5,0-2.8,1.3-2.8,2.8v4.8h4v15.4h1.3v1.9c0,1.5,1.3,2.8,2.8,2.8
				h1.4c1.5,0,2.8-1.3,2.8-2.8v-1.9h9.2v1.9C333.8,491.5,335.1,492.8,336.6,492.8z M342.1,466.7h1.2c0.7,0,1.2,0.5,1.2,1.2v3.2h-2.4
				L342.1,466.7L342.1,466.7z M316.4,471.1H314v-3.2c0-0.7,0.5-1.2,1.2-1.2h1.2L316.4,471.1L316.4,471.1z M339.1,490
				c0,0.7-0.5,1.2-1.2,1.2h-1.4c-0.7,0-1.2-0.5-1.2-1.2v-1.9h3.8L339.1,490L339.1,490z M318,462c0-0.7,0.6-1.3,1.3-1.3h20
				c0.7,0,1.3,0.6,1.3,1.3v1.1H318L318,462L318,462z M318,464.7h22.5v12l-0.2,0c-3.7,0.6-7.4,0.8-11.1,0.8s-7.4-0.3-11.1-0.8l-0.2,0
				V464.7L318,464.7z M323.1,490c0,0.7-0.5,1.2-1.2,1.2h-1.4c-0.7,0-1.2-0.5-1.2-1.2v-1.9h3.8L323.1,490L323.1,490z M332.1,486.5
				h-5.8v-2.4h5.8V486.5z M333.7,486.5v-4h-9v4H318v-2.4h4v-1.6h-4v-4.3l0.2,0c7.3,1.1,14.7,1.1,22,0l0.2,0v4.3h-4v1.6h4v2.4H333.7z
				"/>
		</g>
		<g>
			<g>
				<g>
					<path class="st6" d="M322.2,346c-1.1-1.9-1.6-4.3-1.6-6.9c0-4.3,3.7-7.8,8.3-7.8c4.6,0,8.3,3.5,8.3,7.8c0,0.5,0.4,0.9,0.9,0.9
						c0.5,0,0.9-0.4,0.9-0.9c0-5.3-4.5-9.6-10.1-9.6c-5.6,0-10.1,4.3-10.1,9.6c0,2.9,0.6,5.5,1.9,7.7c1.2,2.1,2,3.1,3.6,4.7
						c0.2,0.2,0.4,0.3,0.6,0.3c0.2,0,0.5-0.1,0.6-0.3c0.4-0.3,0.4-0.9,0-1.3C324.1,348.9,323.3,348,322.2,346z"/>
					<path class="st6" d="M318.9,320.9c3-1.7,6.4-2.5,9.9-2.5c3.5,0,6.5,0.8,9.9,2.5c0.1,0.1,0.3,0.1,0.4,0.1l0,0
						c0.3,0,0.6-0.2,0.8-0.5c0.2-0.4,0.1-1-0.4-1.2c-3.6-1.9-6.9-2.7-10.7-2.7c-3.8,0-7.4,0.9-10.8,2.7c-0.4,0.2-0.6,0.8-0.4,1.2
						C318,321,318.5,321.2,318.9,320.9z"/>
					<path class="st6" d="M328.7,325.2c-5.7,0-11,3.2-13.3,8.2c-0.8,1.7-1.2,3.6-1.2,5.7c0,2.4,0.4,4.7,1.3,7
						c0.2,0.5,0.7,0.7,1.1,0.5c0.5-0.2,0.7-0.7,0.5-1.1c-1.1-2.8-1.2-5-1.2-6.4c0-1.9,0.3-3.5,1-5c2.1-4.4,6.7-7.2,11.8-7.2
						c7.1,0,12.9,5.4,12.9,12.1c0,1.9-1.7,3.5-3.7,3.5c-2,0-3.7-1.6-3.7-3.5c0-2.9-2.5-5.2-5.5-5.2c-3,0-5.5,2.3-5.5,5.2
						c0,3.5,1.4,6.8,3.9,9.3c1.9,1.9,3.8,3,6.6,3.7c0.1,0,0.2,0,0.2,0c0.4,0,0.7-0.3,0.9-0.6c0.1-0.5-0.2-1-0.6-1.1
						c-2.5-0.7-4.1-1.6-5.8-3.3c-2.1-2.1-3.3-5-3.3-8c0-1.9,1.7-3.5,3.7-3.5c2,0,3.7,1.6,3.7,3.5c0,2.9,2.5,5.2,5.5,5.2
						c3,0,5.5-2.3,5.5-5.2C343.4,331.5,336.8,325.2,328.7,325.2z"/>
					<path class="st6" d="M344.6,328.9c-1.8-2.5-4-4.4-6.7-5.8c-5.6-2.9-12.7-2.9-18.3,0c-2.7,1.4-4.9,3.3-6.7,5.8
						c-0.3,0.4-0.2,0.9,0.2,1.2c0.2,0.1,0.3,0.2,0.5,0.2c0.3,0,0.5-0.1,0.7-0.4c1.6-2.3,3.6-4,6-5.3c5.1-2.6,11.6-2.6,16.7,0
						c2.4,1.2,4.4,3,6,5.2c0.3,0.4,0.8,0.5,1.2,0.2C344.8,329.9,344.9,329.3,344.6,328.9z"/>
					<path class="st6" d="M339.4,346.6c-0.7,0.1-1.4,0.2-1.9,0.2c-1.8,0-3.2-0.4-4.5-1.3c-2.2-1.5-3.4-3.8-3.4-6.3
						c0-0.5-0.4-0.9-0.9-0.9c-0.5,0-0.9,0.4-0.9,0.9c0,3.1,1.6,6,4.2,7.8c1.5,1,3.4,1.6,5.5,1.6c0.2,0,1.1,0,2.2-0.2
						c0.5-0.1,0.8-0.5,0.7-1C340.3,346.8,339.9,346.5,339.4,346.6z"/>
				</g>
			</g>
		</g>
		<g>
			<path class="st6" d="M444.3,256.8h-8.9c-0.5,0-0.9,0.4-0.9,0.9c0,0.5,0.4,0.9,0.9,0.9h8.9c0.5,0,0.9-0.4,0.9-0.9
				C445.2,257.2,444.8,256.8,444.3,256.8z"/>
			<path class="st6" d="M460,267.2h-7.3v-11.1c0-2.1-1.7-3.8-3.8-3.8h-17.9c-2.1,0-3.8,1.7-3.8,3.8v29.8c0,0.5,0.4,0.9,0.9,0.9
				c0.5,0,0.9-0.4,0.9-0.9v-23h22.1v4.2h-7.3c-0.9,0-1.6,0.7-1.6,1.6v1.4h-9.6c-0.5,0-0.9,0.4-0.9,0.9v7.4c0,0.5,0.4,0.9,0.9,0.9
				h9.6v3.6c0,0.3,0.1,0.6,0.4,0.7c0.2,0.2,0.6,0.2,0.8,0.1l6.5-2.9h1.2v5.1c0,0.5,0.4,0.9,0.9,0.9s0.9-0.4,0.9-0.9v-5.1h7.3
				c0.9,0,1.6-0.7,1.6-1.6v-10.4C461.6,267.9,460.9,267.2,460,267.2z M428.8,256.1c0-1.2,0.9-2.1,2.1-2.1h17.9
				c1.2,0,2.1,0.9,2.1,2.1v5.1h-22.1L428.8,256.1L428.8,256.1z M459.9,268.9v10.2h-10.3c-0.1,0-0.2,0-0.3,0.1l-5.5,2.4v-12.7H459.9z
				 M442,271.9v5.7h-8.7v-5.7H442z"/>
		</g>
		<g>
			<g>
				<path class="st6" d="M546.9,319.2h-2.2c-0.2,0-0.4,0.2-0.4,0.4v26.5c0,0.2,0.2,0.4,0.4,0.4h2.2c0.2,0,0.4-0.2,0.4-0.4v-26.5
					C547.4,319.4,547.2,319.2,546.9,319.2z"/>
				<path class="st6" d="M552.1,319.2h-0.9c-0.2,0-0.4,0.2-0.4,0.4v26.5c0,0.2,0.2,0.4,0.4,0.4h0.9c0.2,0,0.4-0.2,0.4-0.4v-26.5
					C552.6,319.4,552.4,319.2,552.1,319.2z"/>
				<path class="st6" d="M556.8,319.2h-1.1c-0.2,0-0.4,0.2-0.4,0.4v26.5c0,0.2,0.2,0.4,0.4,0.4h1.1c0.2,0,0.4-0.2,0.4-0.4v-26.5
					C557.2,319.4,557.1,319.2,556.8,319.2z"/>
				<path class="st6" d="M562.1,319.2h-1.7c-0.2,0-0.4,0.2-0.4,0.4v26.5c0,0.2,0.2,0.4,0.4,0.4h1.7c0.2,0,0.4-0.2,0.4-0.4v-26.5
					C562.6,319.4,562.4,319.2,562.1,319.2z"/>
				<path class="st6" d="M567.1,319.2H566c-0.2,0-0.4,0.2-0.4,0.4v26.5c0,0.2,0.2,0.4,0.4,0.4h1.1c0.2,0,0.4-0.2,0.4-0.4v-26.5
					C567.5,319.4,567.3,319.2,567.1,319.2z"/>
				<path class="st6" d="M572.6,319.2h-1.8c-0.2,0-0.4,0.2-0.4,0.4v26.5c0,0.2,0.2,0.4,0.4,0.4h1.8c0.2,0,0.4-0.2,0.4-0.4v-26.5
					C573,319.4,572.8,319.2,572.6,319.2z"/>
				<path class="st6" d="M579.2,319.2h-2.6c-0.2,0-0.4,0.2-0.4,0.4v26.5c0,0.2,0.2,0.4,0.4,0.4h2.6c0.2,0,0.4-0.2,0.4-0.4v-26.5
					C579.7,319.4,579.5,319.2,579.2,319.2z"/>
			</g>
		</g>
		<g>
			<rect x="570.1" y="472.8" class="st6" width="3.9" height="1.5"/>
			<rect x="565.2" y="472.8" class="st6" width="3.9" height="1.5"/>
			<rect x="560.3" y="472.8" class="st6" width="3.9" height="1.5"/>
			<path class="st6" d="M580.1,459.2L568,447.1c-0.4-0.4-0.9-0.6-1.4-0.6l0,0c-0.5,0-1,0.2-1.4,0.6l-12.8,12.8h-6.7
				c-1.1,0-2,0.9-2,2V479c0,1.1,0.9,2,2,2h9l1.8,1.8c0.4,0.4,0.9,0.6,1.4,0.6l0,0c0.5,0,1-0.2,1.4-0.6l1.8-1.8h14c1.1,0,2-0.9,2-2
				v-14l3-3c0.4-0.4,0.6-0.9,0.6-1.4C580.7,460.1,580.4,459.6,580.1,459.2z M559,481l-0.8,0.8c-0.2,0.2-0.5,0.2-0.7,0l-0.8-0.8H559z
				 M554.4,459.9l11.8-11.8c0.2-0.2,0.5-0.2,0.7,0l1.7,1.7l-10.1,10.1H554.4z M560.5,459.9l9.1-9.1l2.4,2.4l-6.7,6.7H560.5z
				 M575.1,459.9h-7.7l5.6-5.6l6,6c0.1,0.1,0.1,0.2,0.1,0.4c0,0.1-0.1,0.3-0.1,0.3l-2,2v-1.1C577.1,460.8,576.2,459.9,575.1,459.9z
				 M545.2,464.2v-2.3c0-0.3,0.2-0.5,0.5-0.5h29.4c0.3,0,0.5,0.2,0.5,0.5v2.3H545.2z M545.2,469.1v-3.4h30.4v3.4H545.2z M575.6,479
				c0,0.3-0.2,0.5-0.5,0.5h-29.4c-0.3,0-0.5-0.2-0.5-0.5v-8.5h30.4L575.6,479L575.6,479z"/>
			<path class="st6" d="M549.8,478.5c0.1-0.1,0.1-0.1,0.2-0.2c0.5,0.5,1.2,0.8,1.8,0.8c0.5,0,1-0.1,1.5-0.5c0.7-0.5,1.1-1.3,1.1-2.1
				c0-1.4-1.1-2.6-2.6-2.6c-0.1,0-0.2,0-0.4,0h0c-0.5,0.1-1,0.4-1.4,0.8c-0.4-0.5-1-0.7-1.7-0.8c-0.7,0-1.3,0.2-1.9,0.6
				c-1.1,0.9-1.2,2.5-0.3,3.6C547.1,479.3,548.8,479.5,549.8,478.5z M548.2,477.7c-0.6,0-1.1-0.5-1.1-1.1s0.5-1.1,1.1-1.1
				s1.1,0.5,1.1,1.1C549.3,477.2,548.8,477.7,548.2,477.7z M550.7,476.6c0-0.5,0.4-1,0.9-1.1h0c0,0,0.1,0,0.1,0c0,0,0,0,0,0
				c0.6,0,1.1,0.5,1.1,1.1c0,0.2-0.1,0.5-0.2,0.6c0,0,0,0,0,0c0,0,0,0,0,0l0,0c-0.2,0.2-0.5,0.4-0.8,0.4c-0.3,0-0.6-0.1-0.8-0.3
				C550.9,477.2,550.7,476.9,550.7,476.6z"/>
		</g>
		<g>
			<path class="st6" d="M459.8,535.3h-22.3c-2.1,0-3.8,1.7-3.8,3.8v13.4c0,2.1,1.7,3.8,3.8,3.8h22.3c2.1,0,3.8-1.7,3.8-3.8v-13.4
				C463.6,537,461.9,535.3,459.8,535.3z M435.4,539.1c0-1.2,0.9-2.1,2.1-2.1h22.3c1.2,0,2.1,0.9,2.1,2.1v13.4c0,1.2-0.9,2.1-2.1,2.1
				h-22.3c-1.2,0-2.1-0.9-2.1-2.1V539.1z"/>
			<path class="st6" d="M440.5,547.4h3c1.3,0,2.3-1,2.3-2.3v-3c0-1.3-1-2.3-2.3-2.3h-3c-1.3,0-2.3,1-2.3,2.3v3
				C438.2,546.4,439.2,547.4,440.5,547.4z M444.1,545.1c0,0.3-0.3,0.6-0.6,0.6h-3c-0.3,0-0.6-0.3-0.6-0.6v-3c0-0.3,0.3-0.6,0.6-0.6
				h3c0.3,0,0.6,0.3,0.6,0.6V545.1z"/>
			<path class="st6" d="M439,551.9h19.3c0.5,0,0.9-0.4,0.9-0.9s-0.4-0.9-0.9-0.9H439c-0.5,0-0.9,0.4-0.9,0.9S438.5,551.9,439,551.9z
				"/>
			<path class="st6" d="M447.8,526.5v5.2c0,0.5,0.4,0.9,0.9,0.9s0.9-0.4,0.9-0.9v-5.2c1.3-0.4,2.2-1.5,2.2-2.9
				c0-1.7-1.4-3.1-3.1-3.1s-3.1,1.4-3.1,3.1C445.6,524.9,446.5,526.1,447.8,526.5z M447.3,523.5c0-0.8,0.6-1.4,1.4-1.4
				c0.8,0,1.4,0.6,1.4,1.4c0,0.8-0.6,1.4-1.4,1.4C447.9,524.9,447.3,524.3,447.3,523.5z"/>
			<path class="st6" d="M437.4,526.5v3.7c0,0.2,0.1,0.4,0.2,0.6l1.5,1.5c0.2,0.2,0.4,0.2,0.6,0.2s0.4-0.1,0.6-0.2
				c0.3-0.3,0.3-0.9,0-1.2l-1.2-1.2v-3.4c1.3-0.4,2.2-1.5,2.2-2.9c0-1.7-1.4-3.1-3.1-3.1c-1.7,0-3.1,1.4-3.1,3.1
				C435.2,524.9,436.1,526.1,437.4,526.5z M438.3,522.2c0.8,0,1.4,0.6,1.4,1.4c0,0.8-0.6,1.4-1.4,1.4s-1.4-0.6-1.4-1.4
				C436.9,522.8,437.5,522.2,438.3,522.2z"/>
			<path class="st6" d="M458.2,526.5v3.4l-1.2,1.2c-0.3,0.3-0.3,0.9,0,1.2c0.2,0.2,0.4,0.2,0.6,0.2s0.4-0.1,0.6-0.2l1.5-1.5
				c0.2-0.2,0.2-0.4,0.2-0.6v-3.7c1.3-0.4,2.2-1.5,2.2-2.9c0-1.7-1.4-3.1-3.1-3.1s-3.1,1.4-3.1,3.1
				C456,524.9,456.9,526.1,458.2,526.5z M457.7,523.5c0-0.8,0.6-1.4,1.4-1.4c0.8,0,1.4,0.6,1.4,1.4c0,0.8-0.6,1.4-1.4,1.4
				C458.3,524.9,457.7,524.3,457.7,523.5z"/>
		</g>
		<path class="st3" d="M467.1,395.2c-0.1-0.3-0.3-0.5-0.5-0.6l-32.1-10c-0.4-0.1-0.9,0.1-1,0.5l-4.3,13.8c-0.1,0.2,0,0.4,0.1,0.6
			s0.3,0.3,0.5,0.4l10.7,3.3l-1.2,3.8c-0.1,0.4,0.1,0.9,0.5,1l2.9,0.9l-1,3.5H432l0-0.4c-0.2-2.4-2.2-4.2-4.6-4.2h-0.9
			c-0.4,0-0.8,0.4-0.8,0.8v9.4c0,0.4,0.4,0.8,0.8,0.8h0.9c2.4,0,4.5-1.9,4.7-4.3l0-0.4h10.4c0.4,0,0.7-0.2,0.8-0.6l1.1-4.1l2.7,0.8
			c0.2,0.1,0.4,0,0.6-0.1c0.2-0.1,0.3-0.3,0.4-0.5l1.2-3.8l4.9,1.5c0.3,0.1,0.6,0,0.8-0.2l1.6-1.5l6.1,1.9c0.2,0.1,0.4,0,0.6-0.1
			c0.2-0.1,0.3-0.3,0.4-0.5l2.2-7c0.1-0.2,0-0.4-0.1-0.6c-0.1-0.2-0.3-0.3-0.5-0.4l-1.3-0.4l3-2.8
			C467.1,395.8,467.2,395.5,467.1,395.2L467.1,395.2z M430.4,414.2c0,1.6-1.2,2.9-2.7,3l-0.5,0.1v-7.8l0.5,0.1
			c1.5,0.2,2.7,1.5,2.7,3V414.2z M446.7,408.6l-5.7-1.8l0.9-3l5.7,1.8L446.7,408.6z M463.9,400.6l-1.7,5.5l-4.5-1.4l4.8-4.5
			L463.9,400.6z M454.1,405.9l-23.1-7.2l3.8-12.3l30,9.3L454.1,405.9z"/>
	</g>
</g>
</svg>
