<svg id="Layer_1" data-name="Layer 1" xmlns="http://www.w3.org/2000/svg" xmlns:xlink="http://www.w3.org/1999/xlink" viewBox="0 0 1400 711"><defs><style>.cls-1{fill:none;}.cls-2{fill:#2f3293;}.cls-3{clip-path:url(#clip-path);}.cls-4{fill:#4c4fb4;}.cls-5{fill:#fff;}.cls-6{fill:#e5e5e5;}.cls-7{fill:#efefef;}.cls-8{fill:#82c35b;}.cls-9{fill:#0c131e;}.cls-10{fill:#bcbcbc;}.cls-11{clip-path:url(#clip-path-2);}.cls-12{fill:#eee;}.cls-13{fill:#364153;}.cls-14{fill:#3698d8;}.cls-15{fill:#fa9f18;}.cls-16{fill:#fefefe;}.cls-17{fill:#b7b7b5;}.cls-18{fill:#52ab54;}.cls-19{fill:#ea4943;}</style><clipPath id="clip-path"><rect id="Rectangle_1" data-name="Rectangle 1" class="cls-1" width="1400" height="711"/></clipPath><clipPath id="clip-path-2"><path class="cls-1" d="M535.58,572.49H357.66a9.81,9.81,0,0,1-9.85-9.77V445.89a9.81,9.81,0,0,1,9.77-9.85h178a9.81,9.81,0,0,1,9.85,9.77V562.64A9.89,9.89,0,0,1,535.58,572.49Z"/></clipPath></defs><rect id="Rectangle_1-2" data-name="Rectangle 1" class="cls-2" width="1400" height="711"/><g class="cls-3"><path id="Path_1622" data-name="Path 1622" class="cls-4" d="M495.22-99.68s130.36-36.6,90.4,81S573.8,182.49,695.21,227.93s107,154.48,102.14,204,7.83,126.3,115.13,175.9,147,140.09,74.44,209.82S-26.21,877.66-26.21,877.66l-.2-926.91Z"/><path id="Path_2" data-name="Path 2" class="cls-5" d="M476.22-99.68s130.36-36.6,90.4,81S554.8,182.49,676.21,227.93s107,154.48,102.14,204,7.83,126.3,115.13,175.9,147,140.09,74.44,209.82S-45.21,877.66-45.21,877.66l-.2-926.91Z"/></g><g id="Group_2352" data-name="Group 2352"><g id="Group_2309" data-name="Group 2309"><g id="Group_2308" data-name="Group 2308"><rect class="cls-6" x="447.51" y="284.75" width="2" height="1.82"/><path class="cls-6" d="M449.51,438.71h-2v-1.33h2Zm0-4.28h-2v-2.94h2Zm0-5.88h-2V425.6h2Zm0-5.89h-2v-2.94h2Zm0-5.89h-2v-2.94h2Zm0-5.88h-2V408h2Zm0-5.89h-2v-2.94h2Zm0-5.88h-2v-2.95h2Zm0-5.89h-2v-2.94h2Zm0-5.88h-2v-3h2Zm0-5.89h-2v-2.94h2Zm0-5.89h-2v-2.94h2Zm0-5.88h-2v-2.95h2Zm0-5.89h-2v-2.94h2Zm0-5.88h-2V355h2Zm0-5.89h-2v-2.94h2Zm0-5.89h-2V343.2h2Zm0-5.88h-2v-2.95h2Zm0-5.89h-2v-2.94h2Zm0-5.89h-2v-2.94h2Zm0-5.88h-2v-2.94h2Zm0-5.89h-2v-2.94h2Zm0-5.88h-2v-2.95h2Zm0-5.89h-2V302h2Zm0-5.88h-2v-2.95h2Zm0-5.89h-2v-2.94h2Z"/><rect class="cls-6" x="447.51" y="440.54" width="2" height="1.82"/></g></g><g id="Group_2311" data-name="Group 2311"><g id="Group_2310" data-name="Group 2310"><rect class="cls-6" x="550.67" y="291.11" width="1.8" height="2" transform="translate(33.08 639.57) rotate(-61.73)"/><path class="cls-6" d="M486.62,430.63l-1.8-.86.58-1.22,1.8.86Zm1.85-3.87-1.8-.86,1.26-2.66,1.81.86Zm2.54-5.32-1.81-.86,1.27-2.65,1.8.86Zm2.53-5.31-1.8-.86,1.26-2.65,1.81.86Zm2.54-5.31-1.81-.86,1.27-2.66,1.8.86Zm2.53-5.31-1.8-.86,1.27-2.66,1.8.86Zm2.54-5.31-1.81-.86,1.27-2.66,1.81.86Zm2.53-5.31-1.8-.87,1.27-2.65,1.8.86Zm2.54-5.32-1.81-.86,1.27-2.65,1.81.86Zm2.53-5.31-1.8-.86,1.27-2.66,1.8.87Zm2.54-5.31-1.81-.86,1.27-2.66,1.81.86Zm2.53-5.31-1.8-.86,1.27-2.66,1.8.86Zm2.54-5.31-1.8-.87,1.26-2.65,1.81.86ZM518.9,363l-1.81-.86,1.27-2.65,1.8.86Zm2.53-5.31-1.8-.86,1.26-2.66,1.81.87Zm2.54-5.31-1.81-.86,1.27-2.66,1.8.86Zm2.53-5.31-1.8-.86,1.27-2.66,1.8.86Zm2.54-5.31-1.81-.87,1.27-2.65,1.81.86Zm2.53-5.32-1.8-.86,1.27-2.65,1.8.86Zm2.54-5.31-1.81-.86,1.27-2.65,1.81.86Zm2.53-5.31-1.8-.86,1.27-2.66,1.8.86Zm2.54-5.31-1.81-.86,1.27-2.66,1.81.86Zm2.54-5.31-1.81-.86,1.27-2.66,1.8.86Zm2.53-5.32-1.8-.86,1.26-2.65,1.81.86Zm2.54-5.31-1.81-.86,1.27-2.65,1.8.86Zm2.53-5.31-1.8-.86,1.26-2.66,1.81.86Z"/><rect class="cls-6" x="483.61" y="431.63" width="1.9" height="2" transform="translate(-119.1 672.56) rotate(-63.43)"/></g></g><g id="Group_2313" data-name="Group 2313"><g id="Group_2312" data-name="Group 2312"><rect class="cls-6" x="635.01" y="343.52" width="1.81" height="2" transform="translate(-46.68 583.6) rotate(-47.75)"/><path class="cls-6" d="M529.36,454.37l-1.43-1.4,1-1,1.43,1.4Zm3-3.07L531,449.9l2.07-2.1,1.42,1.4Zm4.13-4.2-1.43-1.4,2.06-2.1,1.43,1.4Zm4.12-4.2-1.42-1.4,2.06-2.1,1.43,1.41Zm4.13-4.19-1.43-1.41,2.06-2.09,1.43,1.4Zm4.12-4.2-1.42-1.4,2.06-2.1,1.43,1.4Zm4.13-4.2-1.43-1.4,2.07-2.1,1.42,1.4Zm4.13-4.2-1.43-1.4,2.06-2.1,1.43,1.4Zm4.12-4.2-1.43-1.4,2.07-2.1,1.42,1.41Zm4.13-4.19L564,416.31l2.06-2.09,1.43,1.4Zm4.12-4.2-1.42-1.4,2.06-2.1,1.43,1.4Zm4.13-4.2-1.43-1.4,2.06-2.1,1.43,1.4Zm4.12-4.2-1.42-1.4,2.06-2.1,1.43,1.4Zm4.13-4.2-1.43-1.4,2.07-2.1,1.42,1.41Zm4.13-4.19-1.43-1.41,2.06-2.09,1.43,1.4Zm4.12-4.2-1.43-1.4,2.07-2.1,1.42,1.4Zm4.13-4.2-1.43-1.4,2.06-2.1,1.43,1.4Zm4.12-4.2-1.42-1.4,2.06-2.1,1.43,1.4Zm4.13-4.2-1.43-1.4,2.06-2.1,1.43,1.41Zm4.12-4.19-1.42-1.41,2.06-2.1,1.43,1.41Zm4.13-4.2-1.43-1.4,2.07-2.1,1.42,1.4Zm4.13-4.2-1.43-1.4,2.06-2.1,1.43,1.4Zm4.12-4.2-1.43-1.4,2.07-2.1,1.42,1.4Zm4.13-4.2-1.43-1.4,2.06-2.1,1.43,1.41Zm4.12-4.19-1.42-1.41,2.06-2.09,1.43,1.4Zm4.13-4.2-1.43-1.4,2.06-2.1,1.43,1.4Z"/><rect class="cls-6" x="525.8" y="454.56" width="1.81" height="2" transform="translate(-164.68 538.89) rotate(-47.73)"/></g></g><g id="Group_2315" data-name="Group 2315"><g id="Group_2314" data-name="Group 2314"><rect class="cls-6" x="680.14" y="441.6" width="1.77" height="2" transform="translate(-95.29 203.81) rotate(-15.92)"/><path class="cls-6" d="M533.15,481.88l-.5-1.94,1.3-.33.5,1.94Zm4.15-1.07-.51-1.94,2.85-.73.5,1.93Zm5.69-1.48-.5-1.93,2.85-.74.5,1.94Zm5.7-1.47-.5-1.94,2.85-.73.5,1.93Zm5.7-1.48-.5-1.93,2.85-.74.5,1.94Zm5.7-1.47-.5-1.94,2.85-.74.5,1.94Zm5.7-1.48-.51-1.93,2.85-.74.51,1.93Zm5.69-1.47L571,470l2.85-.74.5,1.94Zm5.7-1.48-.5-1.93,2.85-.74.5,1.93Zm5.7-1.47-.5-1.94,2.85-.74.5,1.94Zm5.7-1.48-.5-1.93,2.85-.74.5,1.93Zm5.7-1.47-.5-1.94,2.84-.74.51,1.94Zm5.69-1.48-.5-1.93,2.85-.74.5,1.93Zm5.7-1.47-.5-1.94,2.85-.74.5,1.94Zm5.7-1.48-.5-1.93,2.85-.74.5,1.93Zm5.7-1.47-.5-1.94,2.85-.74.5,1.94Zm5.7-1.48-.5-1.93,2.85-.74.5,1.93Zm5.7-1.47-.51-1.94,2.85-.74.5,1.94Zm5.69-1.48-.5-1.93,2.85-.74L637,455Zm5.7-1.47-.5-1.94,2.85-.74.5,1.94Zm5.7-1.48-.5-1.93,2.85-.74.5,1.93Zm5.7-1.47-.5-1.94,2.85-.74.5,1.94Zm5.7-1.48-.5-1.93,2.84-.74.51,1.93Zm5.69-1.47-.5-1.94,2.85-.74.5,1.94Zm5.7-1.48-.5-1.94,2.85-.73.5,1.93Zm5.7-1.48-.5-1.93,2.85-.74.5,1.94Z"/><rect class="cls-6" x="529.35" y="480.64" width="1.89" height="2" transform="translate(-106.28 153.06) rotate(-14.95)"/></g></g><circle id="Ellipse_63" data-name="Ellipse 63" class="cls-7" cx="547.13" cy="292.78" r="42.56"/><circle id="Ellipse_64" data-name="Ellipse 64" class="cls-7" cx="629.59" cy="349.88" r="42.56"/><circle id="Ellipse_65" data-name="Ellipse 65" class="cls-7" cx="679.57" cy="436.89" r="42.56"/><circle id="Ellipse_66" data-name="Ellipse 66" class="cls-7" cx="446.56" cy="273.56" r="42.56"/><g id="Group_2317" data-name="Group 2317"><g id="Group_2316" data-name="Group 2316"><rect class="cls-6" x="344.74" y="291.24" width="2" height="1.74" transform="translate(-90.61 171.83) rotate(-24.78)"/><path class="cls-6" d="M410.63,430.63l-.56-1.17,1.81-.86.56,1.17Zm-1.82-3.83-1.27-2.65,1.81-.86,1.26,2.65Zm-2.53-5.31L405,418.83l1.81-.86,1.26,2.66Zm-2.53-5.32-1.27-2.65,1.81-.86,1.26,2.66Zm-2.54-5.31L400,408.2l1.8-.86L403,410Zm-2.53-5.31-1.26-2.66,1.8-.86,1.27,2.66Zm-2.53-5.32-1.26-2.65,1.8-.86,1.27,2.65Zm-2.53-5.31-1.27-2.66,1.81-.86,1.27,2.66Zm-2.53-5.31L389.82,387l1.81-.86,1.26,2.65Zm-2.53-5.32-1.27-2.66,1.81-.86,1.26,2.66ZM386,379l-1.27-2.66,1.8-.86,1.27,2.66Zm-2.54-5.32L382.23,371l1.8-.86,1.27,2.65ZM381,368.35l-1.26-2.66,1.8-.86,1.27,2.66ZM378.43,363l-1.27-2.66,1.81-.86,1.27,2.66Zm-2.53-5.32-1.27-2.65,1.81-.86,1.26,2.65Zm-2.53-5.31-1.27-2.66,1.81-.86,1.26,2.66Zm-2.53-5.31-1.27-2.66,1.81-.86,1.26,2.65Zm-2.54-5.32L367,339.12l1.8-.86,1.27,2.66Zm-2.53-5.31-1.26-2.66,1.8-.86,1.27,2.66Zm-2.53-5.32L362,328.5l1.8-.86,1.27,2.65Zm-2.53-5.31-1.27-2.66,1.81-.86,1.27,2.66Zm-2.53-5.31-1.27-2.66,1.81-.86,1.26,2.66Zm-2.53-5.32-1.27-2.65,1.81-.86,1.26,2.65Zm-2.54-5.31-1.26-2.66,1.81-.86,1.26,2.66Zm-2.53-5.31-1.26-2.66,1.8-.86,1.27,2.65Zm-2.53-5.32-1.26-2.66,1.8-.86,1.27,2.66Z"/><rect class="cls-6" x="411.75" y="431.71" width="2" height="1.85" transform="translate(-137.06 197.59) rotate(-23.2)"/></g></g><g id="Group_2319" data-name="Group 2319"><g id="Group_2318" data-name="Group 2318"><rect class="cls-6" x="261.62" y="343.58" width="2" height="1.89" transform="translate(-166.7 286.61) rotate(-45)"/><path class="cls-6" d="M369.23,454.37l-1-1,1.43-1.4,1,1Zm-3.08-3.13-2.06-2.1,1.42-1.4,2.07,2.1ZM362,447.05,360,445l1.42-1.4,2.07,2.09Zm-4.13-4.2-2.06-2.1,1.43-1.4,2.06,2.1Zm-4.12-4.2-2.07-2.09,1.43-1.41,2.06,2.1Zm-4.13-4.19-2.07-2.1L349,431l2.06,2.1Zm-4.13-4.2-2.06-2.09,1.42-1.41,2.06,2.1Zm-4.13-4.19-2.06-2.1,1.42-1.4,2.07,2.1Zm-4.13-4.2-2.06-2.1,1.42-1.4,2.07,2.1Zm-4.13-4.19-2.06-2.1,1.43-1.4,2.06,2.09Zm-4.12-4.2-2.07-2.1,1.43-1.4,2.06,2.1Zm-4.13-4.19-2.07-2.1,1.43-1.4,2.06,2.09Zm-4.13-4.2-2.06-2.1,1.42-1.4,2.07,2.1Zm-4.13-4.19-2.06-2.1,1.42-1.41,2.07,2.1Zm-4.13-4.2-2.06-2.1,1.43-1.4,2.06,2.1Zm-4.12-4.2-2.07-2.09,1.43-1.41,2.06,2.1Zm-4.13-4.19-2.07-2.1,1.43-1.4,2.06,2.1Zm-4.13-4.2L298,382l1.42-1.4,2.07,2.1ZM296,379.92l-2.06-2.1,1.42-1.4,2.07,2.09Zm-4.13-4.2-2.06-2.1,1.42-1.4,2.07,2.1Zm-4.12-4.2-2.07-2.09,1.43-1.41,2.06,2.1Zm-4.13-4.19-2.07-2.1,1.43-1.4,2.06,2.1Zm-4.13-4.2L277.39,361l1.43-1.41,2.06,2.1Zm-4.13-4.19-2.06-2.1,1.42-1.4,2.07,2.1Zm-4.13-4.2-2.06-2.09,1.42-1.41,2.07,2.1Zm-4.13-4.19-2.06-2.1,1.43-1.4,2.06,2.09Z"/><rect class="cls-6" x="370.83" y="454.61" width="2" height="1.89" transform="translate(-213.22 396.35) rotate(-45)"/></g></g><g id="Group_2321" data-name="Group 2321"><g id="Group_2320" data-name="Group 2320"><rect class="cls-6" x="216.5" y="441.66" width="2" height="1.89" transform="translate(-266.2 538.72) rotate(-75.07)"/><path class="cls-6" d="M365.44,481.88l-1.41-.36.5-1.94,1.41.36Zm-4.26-1.1-2.85-.74.5-1.93,2.85.73Zm-5.7-1.47-2.85-.74.51-1.94,2.84.74Zm-5.69-1.48-2.85-.73.5-1.94,2.85.74Zm-5.7-1.47-2.85-.74.5-1.93,2.85.73Zm-5.7-1.48-2.85-.73.5-1.94,2.85.74Zm-5.7-1.47-2.85-.74.5-1.93,2.85.73Zm-5.7-1.47-2.85-.74.5-1.94,2.85.74Zm-5.7-1.48-2.85-.73.5-1.94,2.85.74Zm-5.7-1.47-2.84-.74.5-1.93,2.84.73Zm-5.69-1.48-2.85-.73.5-1.94,2.85.74ZM304.2,466l-2.85-.74.5-1.93,2.85.74Zm-5.7-1.47-2.85-.74.5-1.94,2.85.74Zm-5.7-1.48-2.85-.73.5-1.94,2.85.74Zm-5.7-1.47-2.85-.74.5-1.93,2.85.73Zm-5.7-1.48-2.85-.73.5-1.94,2.85.74Zm-5.7-1.47-2.84-.74.5-1.93,2.85.73ZM270,457.2l-2.85-.74.5-1.94,2.85.74Zm-5.7-1.48-2.85-.74.5-1.93,2.85.74Zm-5.7-1.47-2.85-.74.5-1.93,2.85.73Zm-5.7-1.48-2.85-.73.5-1.94,2.85.74Zm-5.7-1.47-2.85-.74.5-1.93,2.85.73Zm-5.7-1.47-2.85-.74.51-1.94,2.85.74Zm-5.69-1.48-2.85-.73.5-1.94,2.85.74Zm-5.7-1.47-2.85-.74.5-1.93,2.85.73Zm-5.7-1.48-2.85-.73.5-1.94,2.85.74Z"/><rect class="cls-6" x="367.24" y="480.76" width="2" height="1.77" transform="translate(-196 703.48) rotate(-74.06)"/></g></g><path id="Path_1775" data-name="Path 1775" class="cls-8" d="M598,572a160.69,160.69,0,1,0-298.29,0Z"/><circle id="Ellipse_67" data-name="Ellipse 67" class="cls-7" cx="217.56" cy="436.89" r="42.56"/><path id="Path_1776" data-name="Path 1776" class="cls-9" d="M557.84,566.65a13.4,13.4,0,0,0,.12-2.19V446.25A23.23,23.23,0,0,0,534.73,423H358.39a23.21,23.21,0,0,0-23.23,23.22h0V564.46a12.39,12.39,0,0,0,.13,2.19Z"/><path id="Path_1777" data-name="Path 1777" class="cls-10" d="M535.58,572.49H357.66a9.81,9.81,0,0,1-9.85-9.77V445.89a9.81,9.81,0,0,1,9.77-9.85h178a9.81,9.81,0,0,1,9.85,9.77V562.64A9.89,9.89,0,0,1,535.58,572.49Z"/><g id="Group_2323" data-name="Group 2323"><g id="Group_2322" data-name="Group 2322"><circle id="Ellipse_68" data-name="Ellipse 68" class="cls-2" cx="214.4" cy="411.72" r="0.61"/><path id="Path_1778" data-name="Path 1778" class="cls-2" d="M222.18,408.55h-9.24a2.32,2.32,0,0,0-2.31,2.31h0v17a2.3,2.3,0,0,0,2.31,2.31h9.24a2.32,2.32,0,0,0,2.32-2.31h0v-17a2.25,2.25,0,0,0-2.16-2.31Zm1.1,19.22a1.08,1.08,0,0,1-1.08,1.09h-9.26a1.08,1.08,0,0,1-1.09-1.08h0v-.24h11.43Zm0-1.46H211.85V410.74a1.08,1.08,0,0,1,1.08-1.09h9.26a1.08,1.08,0,0,1,1.09,1.08h0Z"/><path id="Path_1779" data-name="Path 1779" class="cls-2" d="M216.71,412.32h1.7a.61.61,0,1,0,0-1.21h-1.7a.61.61,0,0,0,0,1.21Z"/><path id="Path_1780" data-name="Path 1780" class="cls-2" d="M219.39,417.92a2.28,2.28,0,0,0,.61-1.46,2.31,2.31,0,0,0-4.62,0,2,2,0,0,0,.6,1.46,3.61,3.61,0,0,0-1.82,3.16v.36a.57.57,0,0,0,.54.61h6a.57.57,0,0,0,.6-.53.11.11,0,0,0,0-.08v-.36A4,4,0,0,0,219.39,417.92Zm-1.83-2.56a1.1,1.1,0,1,1-1.09,1.1h0a1.1,1.1,0,0,1,1.08-1.1Zm-2.31,5.48a2.27,2.27,0,0,1,2.31-2.07,2.38,2.38,0,0,1,2.32,2.07Z"/><path id="Path_1781" data-name="Path 1781" class="cls-2" d="M220.48,423.39h-6a.6.6,0,0,0-.6.61.61.61,0,0,0,.6.61h6a.61.61,0,0,0,.61-.61A.61.61,0,0,0,220.48,423.39Z"/></g></g><g id="Group_2324" data-name="Group 2324"><path id="Path_1782" data-name="Path 1782" class="cls-2" d="M536.54,298.19l2-5.7h1L537,299.4h-.8l-2.56-6.91h1Z"/><path id="Path_1783" data-name="Path 1783" class="cls-2" d="M540.31,292.9a.53.53,0,0,1,.13-.36.47.47,0,0,1,.39-.15.48.48,0,0,1,.39.15.53.53,0,0,1,.13.36.47.47,0,0,1-.45.5h-.07a.5.5,0,0,1-.39-.14A.53.53,0,0,1,540.31,292.9Zm1,6.5h-.88v-5.14h.88Z"/><path id="Path_1784" data-name="Path 1784" class="cls-2" d="M545.66,298a.62.62,0,0,0-.27-.55,2.42,2.42,0,0,0-.94-.34,4.32,4.32,0,0,1-1.05-.35,1.47,1.47,0,0,1-.58-.47,1.11,1.11,0,0,1-.19-.66,1.36,1.36,0,0,1,.53-1.07,2.43,2.43,0,0,1,2.79,0,1.43,1.43,0,0,1,.54,1.15h-.88a.8.8,0,0,0-.31-.62,1.13,1.13,0,0,0-.77-.26,1.17,1.17,0,0,0-.75.21.68.68,0,0,0-.27.54.53.53,0,0,0,.25.48,3,3,0,0,0,.91.31,5.58,5.58,0,0,1,1.07.35,1.55,1.55,0,0,1,.61.5,1.3,1.3,0,0,1,.2.7,1.35,1.35,0,0,1-.56,1.1,2.26,2.26,0,0,1-1.43.41,2.45,2.45,0,0,1-1.09-.22,1.7,1.7,0,0,1-.74-.61,1.4,1.4,0,0,1-.27-.84h.88a.89.89,0,0,0,.35.7,1.61,1.61,0,0,0,1.67.05A.6.6,0,0,0,545.66,298Z"/><path id="Path_1785" data-name="Path 1785" class="cls-2" d="M547.69,292.9a.49.49,0,0,1,.13-.36.47.47,0,0,1,.39-.15.5.5,0,0,1,.39.15.59.59,0,0,1,.13.36.48.48,0,0,1-.45.5h-.07a.47.47,0,0,1-.52-.42Zm.95,6.5h-.88v-5.14h.88Z"/><path id="Path_1786" data-name="Path 1786" class="cls-2" d="M551.24,293v1.25h1V295h-1v3.19a.69.69,0,0,0,.13.46.54.54,0,0,0,.44.16,2.7,2.7,0,0,0,.41-.06v.71a2.52,2.52,0,0,1-.67.09,1.1,1.1,0,0,1-.89-.35,1.55,1.55,0,0,1-.3-1V295h-.94v-.68h.94V293Z"/><path id="Path_1787" data-name="Path 1787" class="cls-2" d="M552.89,296.78a3.16,3.16,0,0,1,.3-1.35,2.14,2.14,0,0,1,.83-.93,2.23,2.23,0,0,1,1.21-.33,2.16,2.16,0,0,1,1.7.73,2.83,2.83,0,0,1,.65,1.93v.06a3,3,0,0,1-.29,1.35,2.15,2.15,0,0,1-.82.92,2.24,2.24,0,0,1-1.23.34,2.18,2.18,0,0,1-1.69-.73,2.75,2.75,0,0,1-.65-1.92Zm.89.1a2.19,2.19,0,0,0,.4,1.38,1.34,1.34,0,0,0,1.88.23,1.36,1.36,0,0,0,.24-.24,2.39,2.39,0,0,0,.4-1.47,2.23,2.23,0,0,0-.4-1.37,1.35,1.35,0,0,0-2.12,0,2.38,2.38,0,0,0-.4,1.49Z"/><path id="Path_1788" data-name="Path 1788" class="cls-2" d="M561.16,295.05a3.11,3.11,0,0,0-.43,0,1.18,1.18,0,0,0-1.18.73v3.65h-.88v-5.14h.86l0,.59a1.36,1.36,0,0,1,1.22-.68.86.86,0,0,1,.39.06Z"/><path id="Path_1789" data-name="Path 1789" class="cls-2" d="M520.71,303.43l2.27,5.65,2.26-5.65h1.18v6.92h-.91v-2.7l.08-2.9-2.27,5.6h-.7l-2.27-5.59.1,2.89v2.7h-.92v-6.92Z"/><path id="Path_1790" data-name="Path 1790" class="cls-2" d="M531.07,310.35a2.12,2.12,0,0,1-.13-.54,1.92,1.92,0,0,1-1.46.63,1.78,1.78,0,0,1-1.25-.43,1.34,1.34,0,0,1-.48-1.09,1.4,1.4,0,0,1,.61-1.24,2.81,2.81,0,0,1,1.71-.45h.86v-.4a1,1,0,0,0-.28-.73,1.09,1.09,0,0,0-.81-.28,1.32,1.32,0,0,0-.79.24.73.73,0,0,0-.32.58h-.88a1.19,1.19,0,0,1,.27-.75,1.85,1.85,0,0,1,.74-.56,2.32,2.32,0,0,1,1-.21,2,2,0,0,1,1.39.44,1.59,1.59,0,0,1,.53,1.22v2.37a2.69,2.69,0,0,0,.18,1.12v.08Zm-1.46-.67a1.56,1.56,0,0,0,.78-.22,1.3,1.3,0,0,0,.54-.55v-1.06h-.69c-1.08,0-1.62.32-1.62.95a.82.82,0,0,0,.28.65,1.06,1.06,0,0,0,.71.23Z"/><path id="Path_1791" data-name="Path 1791" class="cls-2" d="M534,305.21l0,.64a1.9,1.9,0,0,1,1.54-.74c1.09,0,1.64.62,1.65,1.84v3.4h-.88V307a1.21,1.21,0,0,0-.25-.82,1.08,1.08,0,0,0-.78-.27,1.33,1.33,0,0,0-.75.23,1.52,1.52,0,0,0-.5.6v3.67h-.88v-5.14Z"/><path id="Path_1792" data-name="Path 1792" class="cls-2" d="M541.73,310.35a2.12,2.12,0,0,1-.13-.54,1.93,1.93,0,0,1-1.46.63,1.78,1.78,0,0,1-1.25-.43,1.38,1.38,0,0,1-.49-1.09,1.44,1.44,0,0,1,.61-1.24,2.86,2.86,0,0,1,1.72-.45h.86v-.4a1,1,0,0,0-.28-.73,1.09,1.09,0,0,0-.81-.28,1.32,1.32,0,0,0-.79.24.73.73,0,0,0-.32.58h-.88a1.19,1.19,0,0,1,.27-.75,1.85,1.85,0,0,1,.74-.56,2.32,2.32,0,0,1,1-.21,2,2,0,0,1,1.39.44,1.59,1.59,0,0,1,.53,1.22v2.37a2.69,2.69,0,0,0,.18,1.12v.08Zm-1.46-.67a1.56,1.56,0,0,0,.78-.22,1.3,1.3,0,0,0,.54-.55v-1.06h-.69c-1.08,0-1.62.32-1.62.95a.82.82,0,0,0,.28.65A1.06,1.06,0,0,0,540.27,309.68Z"/><path id="Path_1793" data-name="Path 1793" class="cls-2" d="M543.64,307.73a3,3,0,0,1,.55-1.91,1.92,1.92,0,0,1,2.7-.28,1.36,1.36,0,0,1,.24.24l0-.57h.8v5a2.11,2.11,0,0,1-.6,1.58,2.19,2.19,0,0,1-1.58.57,2.55,2.55,0,0,1-1.09-.24,1.78,1.78,0,0,1-.81-.65l.45-.52a1.73,1.73,0,0,0,1.39.7,1.25,1.25,0,0,0,1.35-1.38v-.44a1.78,1.78,0,0,1-1.44.6,1.73,1.73,0,0,1-1.46-.72A3.18,3.18,0,0,1,543.64,307.73Zm.88.1a2.28,2.28,0,0,0,.36,1.37,1.13,1.13,0,0,0,1,.5,1.29,1.29,0,0,0,1.22-.76V306.6a1.33,1.33,0,0,0-1.21-.74,1.18,1.18,0,0,0-1,.5A2.54,2.54,0,0,0,544.52,307.83Z"/><path id="Path_1794" data-name="Path 1794" class="cls-2" d="M551.44,310.44a2.21,2.21,0,0,1-1.7-.68,2.54,2.54,0,0,1-.66-1.84v-.16a3.1,3.1,0,0,1,.29-1.37,2.33,2.33,0,0,1,.82-.94,2.09,2.09,0,0,1,1.14-.34,1.9,1.9,0,0,1,1.55.66,2.82,2.82,0,0,1,.56,1.89V308H550a1.84,1.84,0,0,0,.44,1.23,1.39,1.39,0,0,0,1.08.46,1.45,1.45,0,0,0,.79-.19,1.81,1.81,0,0,0,.57-.5l.53.42A2.13,2.13,0,0,1,551.44,310.44Zm-.11-4.61a1.23,1.23,0,0,0-.9.39,1.91,1.91,0,0,0-.44,1.09h2.57v-.07a1.7,1.7,0,0,0-.36-1,1.11,1.11,0,0,0-.87-.37Z"/><path id="Path_1795" data-name="Path 1795" class="cls-2" d="M555.28,305.21l0,.57a1.9,1.9,0,0,1,1.52-.67,1.47,1.47,0,0,1,1.47.83,1.93,1.93,0,0,1,1.64-.83c1.13,0,1.7.6,1.72,1.79v3.45h-.88V307a1.22,1.22,0,0,0-.25-.83,1.37,1.37,0,0,0-1.66,0,1.18,1.18,0,0,0-.37.79v3.41h-.89V307a1,1,0,0,0-.82-1.12.88.88,0,0,0-.28,0,1.18,1.18,0,0,0-1.18.73v3.76h-.88v-5.14Z"/><path id="Path_1796" data-name="Path 1796" class="cls-2" d="M565.12,310.44a2.21,2.21,0,0,1-1.7-.68,2.54,2.54,0,0,1-.66-1.84v-.16a3.1,3.1,0,0,1,.29-1.37,2.33,2.33,0,0,1,.82-.94,2.09,2.09,0,0,1,1.14-.34,1.94,1.94,0,0,1,1.56.66,2.86,2.86,0,0,1,.55,1.89V308h-3.48a1.84,1.84,0,0,0,.44,1.23,1.4,1.4,0,0,0,1.09.46,1.43,1.43,0,0,0,.78-.19,1.81,1.81,0,0,0,.57-.5l.54.42A2.14,2.14,0,0,1,565.12,310.44Zm-.11-4.61a1.19,1.19,0,0,0-.89.39,1.92,1.92,0,0,0-.45,1.09h2.57v-.07a1.64,1.64,0,0,0-.36-1,1.11,1.11,0,0,0-.87-.37Z"/><path id="Path_1797" data-name="Path 1797" class="cls-2" d="M569,305.21l0,.64a1.9,1.9,0,0,1,1.54-.74c1.09,0,1.64.62,1.65,1.84v3.4h-.88V307a1.21,1.21,0,0,0-.25-.82,1.08,1.08,0,0,0-.78-.27,1.33,1.33,0,0,0-.75.23,1.52,1.52,0,0,0-.5.6v3.67h-.88v-5.14Z"/><path id="Path_1798" data-name="Path 1798" class="cls-2" d="M574.7,304v1.24h1v.68h-1v3.19a.72.72,0,0,0,.13.47.53.53,0,0,0,.44.15,1.4,1.4,0,0,0,.41-.06v.71a2.53,2.53,0,0,1-.67.1,1.11,1.11,0,0,1-.89-.36,1.53,1.53,0,0,1-.3-1v-3.19h-.94v-.68h.94V304Z"/></g><g id="Group_2325" data-name="Group 2325"><path id="Path_1799" data-name="Path 1799" class="cls-2" d="M621.85,356.5h-.92v-3.2h-3.48v3.2h-.92v-6.92h.92v3h3.48v-3h.92Z"/><path id="Path_1800" data-name="Path 1800" class="cls-2" d="M623.1,353.88a3.07,3.07,0,0,1,.3-1.36,2.26,2.26,0,0,1,.83-.93,2.32,2.32,0,0,1,1.21-.33,2.21,2.21,0,0,1,1.7.73,2.77,2.77,0,0,1,.64,1.93V354a3.1,3.1,0,0,1-.28,1.34,2.14,2.14,0,0,1-.83.93,2.18,2.18,0,0,1-1.22.33,2.15,2.15,0,0,1-1.7-.72,2.77,2.77,0,0,1-.64-1.93Zm.88.1a2.23,2.23,0,0,0,.4,1.37,1.34,1.34,0,0,0,1.89.24,1.36,1.36,0,0,0,.24-.24,2.4,2.4,0,0,0,.39-1.47,2.1,2.1,0,0,0-.4-1.37,1.33,1.33,0,0,0-1.87-.25,1.36,1.36,0,0,0-.24.24A2.39,2.39,0,0,0,624,354Z"/><path id="Path_1801" data-name="Path 1801" class="cls-2" d="M631.87,355.14a.65.65,0,0,0-.27-.56,2.54,2.54,0,0,0-.93-.34,4.37,4.37,0,0,1-1.06-.34,1.57,1.57,0,0,1-.58-.47,1.21,1.21,0,0,1-.19-.66,1.33,1.33,0,0,1,.54-1.07,2.09,2.09,0,0,1,1.36-.44,2.17,2.17,0,0,1,1.42.45,1.45,1.45,0,0,1,.55,1.16h-.89a.78.78,0,0,0-.3-.62,1.17,1.17,0,0,0-.78-.26,1.13,1.13,0,0,0-.75.21.67.67,0,0,0-.27.54.53.53,0,0,0,.25.48,3.38,3.38,0,0,0,.91.31,4.47,4.47,0,0,1,1.07.35,1.62,1.62,0,0,1,.61.49,1.17,1.17,0,0,1,.2.7,1.32,1.32,0,0,1-.55,1.1,2.29,2.29,0,0,1-1.43.42,2.61,2.61,0,0,1-1.1-.22,1.82,1.82,0,0,1-.74-.61,1.53,1.53,0,0,1-.27-.85h.88a.92.92,0,0,0,.36.7,1.36,1.36,0,0,0,.87.26,1.49,1.49,0,0,0,.8-.2A.61.61,0,0,0,631.87,355.14Z"/><path id="Path_1802" data-name="Path 1802" class="cls-2" d="M635.09,350.11v1.25h1V352h-1v3.19a.67.67,0,0,0,.13.46.51.51,0,0,0,.44.16,2.7,2.7,0,0,0,.41-.06v.71a2.52,2.52,0,0,1-.67.09,1.07,1.07,0,0,1-.89-.35,1.53,1.53,0,0,1-.3-1V352h-.94v-.68h.94v-1.24Z"/><path id="Path_1803" data-name="Path 1803" class="cls-2" d="M639.21,356.59a2.21,2.21,0,0,1-1.7-.68,2.58,2.58,0,0,1-.66-1.84v-.16a3.25,3.25,0,0,1,.3-1.37,2.37,2.37,0,0,1,.81-.94,2.11,2.11,0,0,1,1.14-.34,2,2,0,0,1,1.56.66,2.87,2.87,0,0,1,.55,1.9v.36h-3.48a1.8,1.8,0,0,0,.45,1.23,1.39,1.39,0,0,0,1.08.47,1.67,1.67,0,0,0,.79-.19,2.06,2.06,0,0,0,.56-.5l.54.41A2.14,2.14,0,0,1,639.21,356.59Zm-.11-4.6a1.14,1.14,0,0,0-.89.38,1.92,1.92,0,0,0-.45,1.09h2.57v-.07a1.62,1.62,0,0,0-.36-1,1.08,1.08,0,0,0-.87-.37Z"/><path id="Path_1804" data-name="Path 1804" class="cls-2" d="M643.18,356.5h-.87v-7.3h.87Z"/><path id="Path_1805" data-name="Path 1805" class="cls-2" d="M603.17,360.53l2.26,5.64,2.26-5.64h1.18v6.92H608v-2.7l.08-2.91-2.27,5.6h-.7l-2.26-5.58.09,2.89v2.69H602v-6.91Z"/><path id="Path_1806" data-name="Path 1806" class="cls-2" d="M613.52,367.44a1.94,1.94,0,0,1-.13-.54,2,2,0,0,1-1.46.64,1.85,1.85,0,0,1-1.25-.43,1.4,1.4,0,0,1-.48-1.09,1.47,1.47,0,0,1,.61-1.25,2.87,2.87,0,0,1,1.71-.44h.86v-.4a1,1,0,0,0-.28-.74,1.12,1.12,0,0,0-.81-.27,1.25,1.25,0,0,0-.79.24.72.72,0,0,0-.32.57h-.88a1.24,1.24,0,0,1,.27-.74,1.83,1.83,0,0,1,.75-.57,2.55,2.55,0,0,1,1-.21,2,2,0,0,1,1.4.45,1.61,1.61,0,0,1,.52,1.22v2.37a2.69,2.69,0,0,0,.18,1.12v.08Zm-1.46-.67a1.5,1.5,0,0,0,.78-.21,1.33,1.33,0,0,0,.54-.56V365h-.69c-1.08,0-1.61.32-1.61.95a.76.76,0,0,0,.27.64,1,1,0,0,0,.71.23Z"/><path id="Path_1807" data-name="Path 1807" class="cls-2" d="M616.47,362.3l0,.65a1.85,1.85,0,0,1,1.54-.74c1.08,0,1.63.61,1.64,1.84v3.4h-.88v-3.4a1.2,1.2,0,0,0-.25-.82,1,1,0,0,0-.78-.27,1.33,1.33,0,0,0-.75.23,1.54,1.54,0,0,0-.5.6v3.66h-.88v-5.14Z"/><path id="Path_1808" data-name="Path 1808" class="cls-2" d="M624.18,367.44a1.94,1.94,0,0,1-.13-.54,2,2,0,0,1-1.46.64,1.85,1.85,0,0,1-1.25-.43,1.37,1.37,0,0,1-.48-1.09,1.47,1.47,0,0,1,.61-1.25,2.87,2.87,0,0,1,1.71-.44H624v-.4a1,1,0,0,0-.28-.74,1.12,1.12,0,0,0-.81-.27,1.25,1.25,0,0,0-.79.24.68.68,0,0,0-.31.57H621a1.19,1.19,0,0,1,.28-.74,1.8,1.8,0,0,1,.74-.57,2.56,2.56,0,0,1,1-.21,2,2,0,0,1,1.39.45,1.6,1.6,0,0,1,.52,1.22v2.37a2.86,2.86,0,0,0,.18,1.12v.08Zm-1.46-.67a1.52,1.52,0,0,0,.78-.21A1.33,1.33,0,0,0,624,366V365h-.69c-1.08,0-1.61.32-1.61.95a.79.79,0,0,0,.27.64,1,1,0,0,0,.71.23Z"/><path id="Path_1809" data-name="Path 1809" class="cls-2" d="M626.09,364.83a3,3,0,0,1,.55-1.91,1.92,1.92,0,0,1,2.7-.28,2.73,2.73,0,0,1,.25.23l0-.57h.8v5a2.13,2.13,0,0,1-.59,1.57,2.17,2.17,0,0,1-1.59.57,2.7,2.7,0,0,1-1.09-.23,1.92,1.92,0,0,1-.81-.65l.46-.53a1.7,1.7,0,0,0,1.38.7,1.36,1.36,0,0,0,1-.36,1.42,1.42,0,0,0,.36-1v-.44a1.85,1.85,0,0,1-1.44.61,1.74,1.74,0,0,1-1.46-.73A3.12,3.12,0,0,1,626.09,364.83Zm.88.1a2.3,2.3,0,0,0,.36,1.37,1.18,1.18,0,0,0,1,.5,1.29,1.29,0,0,0,1.22-.76V363.7a1.28,1.28,0,0,0-1.21-.74,1.13,1.13,0,0,0-1,.5,2.53,2.53,0,0,0-.37,1.47Z"/><path id="Path_1810" data-name="Path 1810" class="cls-2" d="M633.89,367.54a2.26,2.26,0,0,1-1.7-.69,2.53,2.53,0,0,1-.66-1.83v-.16a3,3,0,0,1,.3-1.37,2.31,2.31,0,0,1,.81-.94,2.09,2.09,0,0,1,1.14-.34,1.94,1.94,0,0,1,1.56.66,2.83,2.83,0,0,1,.55,1.89v.37h-3.48a1.81,1.81,0,0,0,.44,1.22,1.41,1.41,0,0,0,1.09.47,1.53,1.53,0,0,0,.78-.19,2.1,2.1,0,0,0,.57-.5l.54.42A2.18,2.18,0,0,1,633.89,367.54Zm-.11-4.61a1.15,1.15,0,0,0-.89.39,1.8,1.8,0,0,0-.45,1.08H635v-.06a1.64,1.64,0,0,0-.36-1,1.11,1.11,0,0,0-.87-.37Z"/><path id="Path_1811" data-name="Path 1811" class="cls-2" d="M637.74,362.3l0,.57a1.89,1.89,0,0,1,1.52-.66,1.46,1.46,0,0,1,1.47.83,1.92,1.92,0,0,1,1.64-.83c1.13,0,1.7.6,1.72,1.79v3.44h-.88v-3.39a1.1,1.1,0,0,0-.25-.82,1.09,1.09,0,0,0-.84-.28A1.15,1.15,0,0,0,641,364v3.41h-.89v-3.37a1,1,0,0,0-.82-1.11.87.87,0,0,0-.28,0,1.17,1.17,0,0,0-1.18.74v3.75h-.88V362.3Z"/><path id="Path_1812" data-name="Path 1812" class="cls-2" d="M647.57,367.54a2.26,2.26,0,0,1-1.7-.69,2.57,2.57,0,0,1-.66-1.83v-.16a3.22,3.22,0,0,1,.3-1.37,2.31,2.31,0,0,1,.81-.94,2.11,2.11,0,0,1,1.14-.34,1.94,1.94,0,0,1,1.56.66,2.89,2.89,0,0,1,.56,1.89v.37h-3.49a1.78,1.78,0,0,0,.45,1.22,1.39,1.39,0,0,0,1.08.47,1.56,1.56,0,0,0,.79-.19,2.06,2.06,0,0,0,.56-.5l.54.42A2.18,2.18,0,0,1,647.57,367.54Zm-.11-4.61a1.17,1.17,0,0,0-.89.39,1.87,1.87,0,0,0-.45,1.08h2.58v-.06a1.65,1.65,0,0,0-.37-1,1.11,1.11,0,0,0-.87-.37Z"/><path id="Path_1813" data-name="Path 1813" class="cls-2" d="M651.42,362.3l0,.65a1.85,1.85,0,0,1,1.54-.74c1.08,0,1.63.61,1.64,1.84v3.4h-.88v-3.4a1.2,1.2,0,0,0-.25-.82,1,1,0,0,0-.78-.27,1.33,1.33,0,0,0-.75.23,1.46,1.46,0,0,0-.5.6v3.66h-.88v-5.14Z"/><path id="Path_1814" data-name="Path 1814" class="cls-2" d="M657.15,361.06v1.24h1V363h-1v3.19a.72.72,0,0,0,.13.47.54.54,0,0,0,.44.15,1.84,1.84,0,0,0,.41-.05v.7a2.18,2.18,0,0,1-.67.1,1.11,1.11,0,0,1-.89-.36,1.53,1.53,0,0,1-.3-1V363h-.93v-.67h.93v-1.25Z"/></g><g id="Group_2326" data-name="Group 2326"><path id="Path_1815" data-name="Path 1815" class="cls-2" d="M662.8,440.72h-1.63v2.79h-.91V436.6h2.29a2.71,2.71,0,0,1,1.8.53,2.13,2.13,0,0,1,.28,2.68,2.07,2.07,0,0,1-1,.71l1.62,2.94v.06h-1Zm-1.63-.75h1.41a1.58,1.58,0,0,0,1.08-.35,1.25,1.25,0,0,0,.4-.95,1.27,1.27,0,0,0-.39-1,1.61,1.61,0,0,0-1.1-.35h-1.4Z"/><path id="Path_1816" data-name="Path 1816" class="cls-2" d="M668.25,443.61a2.26,2.26,0,0,1-1.7-.69,2.57,2.57,0,0,1-.66-1.83v-.17a2.91,2.91,0,0,1,.3-1.36,2.31,2.31,0,0,1,.81-.94,2,2,0,0,1,1.14-.34,1.94,1.94,0,0,1,1.56.66,2.83,2.83,0,0,1,.55,1.89v.36h-3.48a1.8,1.8,0,0,0,.45,1.23,1.39,1.39,0,0,0,1.08.47,1.53,1.53,0,0,0,.78-.19,2,2,0,0,0,.57-.5l.54.42A2.18,2.18,0,0,1,668.25,443.61Zm-.11-4.61a1.12,1.12,0,0,0-.89.39,1.87,1.87,0,0,0-.45,1.08h2.57v-.06a1.62,1.62,0,0,0-.36-1,1.08,1.08,0,0,0-.87-.37Z"/><path id="Path_1817" data-name="Path 1817" class="cls-2" d="M674.44,443.51a1.63,1.63,0,0,1-.12-.54,2,2,0,0,1-1.46.64,1.83,1.83,0,0,1-1.25-.43,1.38,1.38,0,0,1-.49-1.09,1.47,1.47,0,0,1,.61-1.25,2.88,2.88,0,0,1,1.72-.44h.85V440a1,1,0,0,0-.27-.74,1.14,1.14,0,0,0-.81-.27,1.23,1.23,0,0,0-.79.24.67.67,0,0,0-.32.57h-.88a1.18,1.18,0,0,1,.27-.74,1.87,1.87,0,0,1,.74-.57,2.64,2.64,0,0,1,1-.21,2,2,0,0,1,1.39.45,1.53,1.53,0,0,1,.52,1.22v2.36a3.08,3.08,0,0,0,.18,1.13v.08Zm-1.46-.67a1.56,1.56,0,0,0,.79-.21,1.25,1.25,0,0,0,.53-.56V441h-.68c-1.08,0-1.62.31-1.62.94a.8.8,0,0,0,.28.65A1.05,1.05,0,0,0,673,442.84Z"/><path id="Path_1818" data-name="Path 1818" class="cls-2" d="M677.52,443.51h-.88v-7.3h.88Z"/><path id="Path_1819" data-name="Path 1819" class="cls-2" d="M680.75,440.94h-2.32v-.72h2.32Z"/><path id="Path_1820" data-name="Path 1820" class="cls-2" d="M682.8,437.13v1.25h1v.68h-1v3.19a.69.69,0,0,0,.13.46.53.53,0,0,0,.43.16,2.65,2.65,0,0,0,.42-.06v.71a2.52,2.52,0,0,1-.67.09,1.1,1.1,0,0,1-.89-.35,1.55,1.55,0,0,1-.3-1v-3.18H681v-.68h.94v-1.25Z"/><path id="Path_1821" data-name="Path 1821" class="cls-2" d="M684.79,437a.53.53,0,0,1,.13-.36.58.58,0,0,1,.78,0,.53.53,0,0,1-.74.76A.54.54,0,0,1,684.79,437Zm1,6.5h-.88v-5.14h.88Z"/><path id="Path_1822" data-name="Path 1822" class="cls-2" d="M688,438.37l0,.57a1.89,1.89,0,0,1,1.52-.66,1.47,1.47,0,0,1,1.47.82,1.93,1.93,0,0,1,1.64-.82c1.13,0,1.7.6,1.72,1.79v3.44h-.88v-3.39a1.2,1.2,0,0,0-.25-.82,1.1,1.1,0,0,0-.85-.28,1.19,1.19,0,0,0-.81.29,1.26,1.26,0,0,0-.38.79v3.41h-.88v-3.37a1,1,0,0,0-.82-1.12h-.28a1.17,1.17,0,0,0-1.18.74v3.75h-.88v-5.14Z"/><path id="Path_1823" data-name="Path 1823" class="cls-2" d="M697.81,443.61a2.26,2.26,0,0,1-1.7-.69,2.53,2.53,0,0,1-.66-1.83v-.17a3.06,3.06,0,0,1,.29-1.36,2.33,2.33,0,0,1,.82-.94,2,2,0,0,1,1.14-.34,1.9,1.9,0,0,1,1.55.66,2.78,2.78,0,0,1,.56,1.89v.36h-3.48a1.84,1.84,0,0,0,.44,1.23,1.4,1.4,0,0,0,1.08.47,1.54,1.54,0,0,0,.79-.19,2.1,2.1,0,0,0,.57-.5l.53.42A2.17,2.17,0,0,1,697.81,443.61ZM697.7,439a1.19,1.19,0,0,0-.9.39,1.86,1.86,0,0,0-.44,1.08h2.57v-.06a1.62,1.62,0,0,0-.36-1,1.08,1.08,0,0,0-.87-.37Z"/><path id="Path_1824" data-name="Path 1824" class="cls-2" d="M657.1,454.46v-6.92h1.95a3.2,3.2,0,0,1,1.6.4,2.74,2.74,0,0,1,1.07,1.14,3.64,3.64,0,0,1,.38,1.69v.44a3.57,3.57,0,0,1-.38,1.72,2.65,2.65,0,0,1-1.07,1.13,3.49,3.49,0,0,1-1.64.4Zm.91-6.17v5.42h1a2.06,2.06,0,0,0,1.64-.65,2.76,2.76,0,0,0,.59-1.87v-.4a2.77,2.77,0,0,0-.56-1.84,2,2,0,0,0-1.57-.66Z"/><path id="Path_1825" data-name="Path 1825" class="cls-2" d="M666.51,454.46a1.75,1.75,0,0,1-.12-.54,2,2,0,0,1-1.47.63,1.78,1.78,0,0,1-1.24-.43,1.38,1.38,0,0,1-.49-1.09,1.44,1.44,0,0,1,.61-1.24,2.82,2.82,0,0,1,1.72-.45h.85v-.4a.94.94,0,0,0-.27-.73,1.1,1.1,0,0,0-.81-.28,1.3,1.3,0,0,0-.79.24.68.68,0,0,0-.32.58h-.88a1.19,1.19,0,0,1,.27-.75,1.78,1.78,0,0,1,.74-.56,2.27,2.27,0,0,1,1-.21,2,2,0,0,1,1.39.44,1.61,1.61,0,0,1,.52,1.22v2.37a3.06,3.06,0,0,0,.18,1.12v.08Zm-1.46-.67a1.57,1.57,0,0,0,.79-.22,1.3,1.3,0,0,0,.54-.55V452h-.69c-1.08,0-1.62.32-1.62,1a.82.82,0,0,0,.28.65,1.06,1.06,0,0,0,.71.23Z"/><path id="Path_1826" data-name="Path 1826" class="cls-2" d="M671.62,453.09a.66.66,0,0,0-.26-.55,2.66,2.66,0,0,0-.94-.34,4.37,4.37,0,0,1-1.06-.34,1.5,1.5,0,0,1-.58-.48,1.15,1.15,0,0,1-.19-.65,1.33,1.33,0,0,1,.54-1.07,2.09,2.09,0,0,1,1.36-.44,2.17,2.17,0,0,1,1.42.45,1.43,1.43,0,0,1,.55,1.16h-.89a.76.76,0,0,0-.3-.62,1.15,1.15,0,0,0-.77-.27,1.22,1.22,0,0,0-.75.21.63.63,0,0,0-.27.55.52.52,0,0,0,.25.48,3.16,3.16,0,0,0,.91.31,4.4,4.4,0,0,1,1.06.35,1.62,1.62,0,0,1,.61.49,1.17,1.17,0,0,1,.2.7,1.32,1.32,0,0,1-.55,1.1,2.35,2.35,0,0,1-1.43.42,2.53,2.53,0,0,1-1.09-.22,1.78,1.78,0,0,1-.75-.61,1.53,1.53,0,0,1-.27-.85h.88a.92.92,0,0,0,.36.7,1.36,1.36,0,0,0,.87.26,1.49,1.49,0,0,0,.8-.2A.61.61,0,0,0,671.62,453.09Z"/><path id="Path_1827" data-name="Path 1827" class="cls-2" d="M674.53,449.94a1.86,1.86,0,0,1,1.52-.72c1.08,0,1.63.62,1.64,1.84v3.4h-.87v-3.4a1.17,1.17,0,0,0-.26-.82,1.05,1.05,0,0,0-.78-.27,1.35,1.35,0,0,0-.75.23,1.71,1.71,0,0,0-.5.6v3.67h-.87v-7.3h.87Z"/><path id="Path_1828" data-name="Path 1828" class="cls-2" d="M683.36,451.94a3.12,3.12,0,0,1-.54,1.9,1.74,1.74,0,0,1-1.46.71,1.79,1.79,0,0,1-1.5-.69l-.05.6H679v-7.3h.87v2.72a1.79,1.79,0,0,1,1.47-.66,1.73,1.73,0,0,1,1.47.71,3.11,3.11,0,0,1,.54,1.94Zm-.88-.1a2.32,2.32,0,0,0-.35-1.38,1.12,1.12,0,0,0-1-.49,1.3,1.3,0,0,0-1.25.81V453a1.36,1.36,0,0,0,1.26.81,1.18,1.18,0,0,0,1-.49,2.64,2.64,0,0,0,.35-1.48Z"/><path id="Path_1829" data-name="Path 1829" class="cls-2" d="M684.23,451.84a3.07,3.07,0,0,1,.3-1.36,2.26,2.26,0,0,1,.83-.93,2.32,2.32,0,0,1,1.21-.33,2.21,2.21,0,0,1,1.7.73,2.77,2.77,0,0,1,.64,1.93v.06a3.11,3.11,0,0,1-.28,1.35,2.2,2.2,0,0,1-2,1.26,2.15,2.15,0,0,1-1.7-.72,2.83,2.83,0,0,1-.65-1.93Zm.88.1a2.17,2.17,0,0,0,.41,1.37,1.34,1.34,0,0,0,1.88.24,1.36,1.36,0,0,0,.24-.24,2.33,2.33,0,0,0,.39-1.47,2.13,2.13,0,0,0-.4-1.38,1.33,1.33,0,0,0-1.87-.24,1.36,1.36,0,0,0-.24.24,2.38,2.38,0,0,0-.41,1.48Z"/><path id="Path_1830" data-name="Path 1830" class="cls-2" d="M693.19,454.46a2.12,2.12,0,0,1-.13-.54,1.93,1.93,0,0,1-1.46.63,1.78,1.78,0,0,1-1.25-.43,1.38,1.38,0,0,1-.49-1.09,1.44,1.44,0,0,1,.61-1.24,2.93,2.93,0,0,1,1.72-.45h.86v-.4a1,1,0,0,0-.28-.73,1.09,1.09,0,0,0-.81-.28,1.32,1.32,0,0,0-.79.24.73.73,0,0,0-.32.58H690a1.25,1.25,0,0,1,.27-.75,1.85,1.85,0,0,1,.74-.56,2.32,2.32,0,0,1,1-.21,2,2,0,0,1,1.39.44,1.59,1.59,0,0,1,.53,1.22v2.37a2.69,2.69,0,0,0,.18,1.12v.08Zm-1.46-.67a1.56,1.56,0,0,0,.78-.22,1.3,1.3,0,0,0,.54-.55V452h-.69c-1.08,0-1.62.32-1.62,1a.82.82,0,0,0,.28.65A1.06,1.06,0,0,0,691.73,453.79Z"/><path id="Path_1831" data-name="Path 1831" class="cls-2" d="M697.79,450.11a2.09,2.09,0,0,0-.43,0,1.17,1.17,0,0,0-1.18.74v3.65h-.88v-5.14h.86v.59a1.4,1.4,0,0,1,1.23-.69,1,1,0,0,1,.39.07Z"/><path id="Path_1832" data-name="Path 1832" class="cls-2" d="M698.3,451.84a3,3,0,0,1,.56-1.9,1.91,1.91,0,0,1,2.68-.3,2.09,2.09,0,0,1,.22.2v-2.67h.87v7.3h-.8l0-.56a1.78,1.78,0,0,1-1.47.65,1.76,1.76,0,0,1-1.46-.73,3.11,3.11,0,0,1-.56-1.91Zm.87.1a2.33,2.33,0,0,0,.36,1.37,1.18,1.18,0,0,0,1,.5,1.3,1.3,0,0,0,1.23-.75V450.7a1.29,1.29,0,0,0-1.22-.73,1.16,1.16,0,0,0-1,.5,2.54,2.54,0,0,0-.37,1.47Z"/></g><g id="Group_2327" data-name="Group 2327"><path id="Path_1833" data-name="Path 1833" class="cls-2" d="M433.81,279.44h3.28v.75h-4.2v-6.92h.92Z"/><path id="Path_1834" data-name="Path 1834" class="cls-2" d="M438,273.69a.59.59,0,0,1,.13-.37.51.51,0,0,1,.39-.14.47.47,0,0,1,.52.51.47.47,0,0,1-.13.35.51.51,0,0,1-.39.14.52.52,0,0,1-.39-.14A.56.56,0,0,1,438,273.69Zm.95,6.5h-.88V275h.88Z"/><path id="Path_1835" data-name="Path 1835" class="cls-2" d="M444.7,277.67a3.12,3.12,0,0,1-.54,1.9,1.73,1.73,0,0,1-1.45.71,1.79,1.79,0,0,1-1.51-.68l0,.59h-.81v-7.3h.88v2.72a1.76,1.76,0,0,1,1.46-.66,1.73,1.73,0,0,1,1.47.71,3.11,3.11,0,0,1,.54,1.94Zm-.88-.1a2.39,2.39,0,0,0-.34-1.38,1.15,1.15,0,0,0-1-.49,1.28,1.28,0,0,0-1.25.81v2.22a1.34,1.34,0,0,0,1.26.81,1.15,1.15,0,0,0,1-.49,2.55,2.55,0,0,0,.35-1.47Z"/><path id="Path_1836" data-name="Path 1836" class="cls-2" d="M448.29,275.84a2,2,0,0,0-.43,0,1.15,1.15,0,0,0-1.17.74v3.65h-.88v-5.14h.85l0,.59a1.37,1.37,0,0,1,1.22-.69,1,1,0,0,1,.39.07Z"/><path id="Path_1837" data-name="Path 1837" class="cls-2" d="M452.08,280.19a1.69,1.69,0,0,1-.12-.54,2,2,0,0,1-1.46.63,1.78,1.78,0,0,1-1.25-.43,1.38,1.38,0,0,1-.49-1.09,1.47,1.47,0,0,1,.61-1.25,2.88,2.88,0,0,1,1.72-.44h.85v-.4a.94.94,0,0,0-.27-.73,1.1,1.1,0,0,0-.81-.28,1.32,1.32,0,0,0-.79.24.68.68,0,0,0-.32.58h-.88a1.19,1.19,0,0,1,.27-.75,1.89,1.89,0,0,1,.74-.57,2.64,2.64,0,0,1,1-.21,2.06,2.06,0,0,1,1.39.45,1.58,1.58,0,0,1,.52,1.22V279a3.06,3.06,0,0,0,.18,1.12v.08Zm-1.46-.67a1.57,1.57,0,0,0,.79-.22,1.3,1.3,0,0,0,.54-.55v-1.06h-.69c-1.08,0-1.62.32-1.62.95a.82.82,0,0,0,.28.65,1.05,1.05,0,0,0,.7.23Z"/><path id="Path_1838" data-name="Path 1838" class="cls-2" d="M456.69,275.84a2.18,2.18,0,0,0-.44,0,1.16,1.16,0,0,0-1.17.74v3.65h-.88v-5.14h.86v.59a1.37,1.37,0,0,1,1.23-.69,1.07,1.07,0,0,1,.39.07Z"/><path id="Path_1839" data-name="Path 1839" class="cls-2" d="M459.26,278.9l1.2-3.85h.94L459.34,281c-.32.86-.83,1.28-1.53,1.28h-.17l-.32-.06v-.72l.23,0a1.15,1.15,0,0,0,.7-.18,1.24,1.24,0,0,0,.41-.66l.2-.52L457,275.05h1Z"/><path id="Path_1840" data-name="Path 1840" class="cls-2" d="M420.14,284.22l2.26,5.64,2.26-5.65h1.19v6.92h-.92v-2.69l.09-2.91-2.27,5.6h-.7l-2.27-5.59.09,2.9v2.69H419v-6.92Z"/><path id="Path_1841" data-name="Path 1841" class="cls-2" d="M430.49,291.13a1.63,1.63,0,0,1-.12-.54,2,2,0,0,1-1.47.64,1.81,1.81,0,0,1-1.24-.43,1.38,1.38,0,0,1-.49-1.09,1.46,1.46,0,0,1,.61-1.25,2.89,2.89,0,0,1,1.72-.45h.85v-.4a1,1,0,0,0-.27-.73,1.1,1.1,0,0,0-.81-.27,1.23,1.23,0,0,0-.79.24.67.67,0,0,0-.32.57h-.89a1.25,1.25,0,0,1,.28-.74,1.8,1.8,0,0,1,.74-.57,2.6,2.6,0,0,1,1-.21,2,2,0,0,1,1.39.44,1.63,1.63,0,0,1,.52,1.23v2.36a3.08,3.08,0,0,0,.18,1.13v.08Zm-1.46-.67a1.56,1.56,0,0,0,.79-.21,1.25,1.25,0,0,0,.53-.56v-1.05h-.69c-1.07,0-1.61.31-1.61.94a.8.8,0,0,0,.28.65,1.05,1.05,0,0,0,.7.23Z"/><path id="Path_1842" data-name="Path 1842" class="cls-2" d="M433.44,286l0,.65a1.86,1.86,0,0,1,1.54-.74c1.09,0,1.63.61,1.64,1.84v3.4h-.87v-3.4a1.16,1.16,0,0,0-.26-.82,1,1,0,0,0-.78-.27,1.21,1.21,0,0,0-.75.23,1.63,1.63,0,0,0-.5.6v3.66h-.87V286Z"/><path id="Path_1843" data-name="Path 1843" class="cls-2" d="M441.15,291.13a1.63,1.63,0,0,1-.12-.54,2,2,0,0,1-1.46.64,1.82,1.82,0,0,1-1.25-.43,1.38,1.38,0,0,1-.49-1.09,1.46,1.46,0,0,1,.61-1.25,2.89,2.89,0,0,1,1.72-.45H441v-.4a1,1,0,0,0-.27-.73,1.14,1.14,0,0,0-.81-.27,1.25,1.25,0,0,0-.79.24.69.69,0,0,0-.32.57h-.88a1.18,1.18,0,0,1,.27-.74,1.87,1.87,0,0,1,.74-.57,2.64,2.64,0,0,1,1-.21,2,2,0,0,1,1.39.44,1.61,1.61,0,0,1,.53,1.23v2.36a2.71,2.71,0,0,0,.18,1.13v.08Zm-1.46-.67a1.56,1.56,0,0,0,.79-.21,1.25,1.25,0,0,0,.53-.56v-1.05h-.68c-1.08,0-1.62.31-1.62.94a.8.8,0,0,0,.28.65,1,1,0,0,0,.7.23Z"/><path id="Path_1844" data-name="Path 1844" class="cls-2" d="M443.06,288.52a3,3,0,0,1,.56-1.91,1.92,1.92,0,0,1,2.69-.29l.25.24,0-.57h.8v5a2.09,2.09,0,0,1-.59,1.57,2.17,2.17,0,0,1-1.59.58,2.7,2.7,0,0,1-1.08-.24,1.94,1.94,0,0,1-.82-.65l.46-.53a1.71,1.71,0,0,0,1.38.7,1.36,1.36,0,0,0,1-.36,1.41,1.41,0,0,0,.36-1v-.44a1.79,1.79,0,0,1-1.44.61,1.76,1.76,0,0,1-1.46-.73A3.18,3.18,0,0,1,443.06,288.52Zm.89.1a2.29,2.29,0,0,0,.35,1.37,1.19,1.19,0,0,0,1,.5,1.28,1.28,0,0,0,1.22-.76v-2.34a1.28,1.28,0,0,0-1.21-.74,1.14,1.14,0,0,0-1,.5,2.44,2.44,0,0,0-.36,1.47Z"/><path id="Path_1845" data-name="Path 1845" class="cls-2" d="M450.86,291.23a2.27,2.27,0,0,1-1.7-.69,2.52,2.52,0,0,1-.65-1.83v-.17a3,3,0,0,1,.29-1.36,2.26,2.26,0,0,1,.82-.94,2,2,0,0,1,1.13-.34,1.92,1.92,0,0,1,1.56.66,2.84,2.84,0,0,1,.56,1.89v.37h-3.48a1.83,1.83,0,0,0,.44,1.22,1.39,1.39,0,0,0,1.08.47,1.54,1.54,0,0,0,.79-.19,1.92,1.92,0,0,0,.56-.5l.54.42A2.18,2.18,0,0,1,450.86,291.23Zm-.11-4.61a1.13,1.13,0,0,0-.89.39,1.87,1.87,0,0,0-.45,1.08H452V288a1.68,1.68,0,0,0-.36-1,1.1,1.1,0,0,0-.88-.37Z"/><path id="Path_1846" data-name="Path 1846" class="cls-2" d="M454.71,286l0,.57a1.89,1.89,0,0,1,1.53-.66,1.48,1.48,0,0,1,1.47.83,1.9,1.9,0,0,1,1.63-.83c1.13,0,1.71.6,1.72,1.79v3.44h-.87v-3.39a1.16,1.16,0,0,0-.26-.82,1.08,1.08,0,0,0-.84-.28,1.15,1.15,0,0,0-.81.3,1.16,1.16,0,0,0-.38.78v3.41H457v-3.37a1,1,0,0,0-.82-1.12h-.28a1.19,1.19,0,0,0-1.19.74v3.75h-.87V286Z"/><path id="Path_1847" data-name="Path 1847" class="cls-2" d="M464.54,291.23a2.29,2.29,0,0,1-1.7-.69,2.56,2.56,0,0,1-.65-1.83v-.17a3,3,0,0,1,.29-1.36,2.26,2.26,0,0,1,.82-.94,2,2,0,0,1,1.14-.34,1.92,1.92,0,0,1,1.55.66,2.84,2.84,0,0,1,.56,1.89v.37h-3.48a1.83,1.83,0,0,0,.44,1.22,1.4,1.4,0,0,0,1.08.47,1.54,1.54,0,0,0,.79-.19,2.1,2.1,0,0,0,.57-.5l.53.42A2.18,2.18,0,0,1,464.54,291.23Zm-.11-4.61a1.15,1.15,0,0,0-.89.39,1.87,1.87,0,0,0-.45,1.08h2.58V288a1.68,1.68,0,0,0-.36-1,1.11,1.11,0,0,0-.87-.37Z"/><path id="Path_1848" data-name="Path 1848" class="cls-2" d="M468.39,286l0,.65a1.86,1.86,0,0,1,1.54-.74c1.09,0,1.63.61,1.64,1.84v3.4h-.87v-3.4a1.16,1.16,0,0,0-.26-.82,1,1,0,0,0-.78-.27,1.21,1.21,0,0,0-.75.23,1.63,1.63,0,0,0-.5.6v3.66h-.87V286Z"/><path id="Path_1849" data-name="Path 1849" class="cls-2" d="M474.12,284.75V286h1v.68h-1v3.19a.75.75,0,0,0,.13.46.56.56,0,0,0,.44.16l.42-.06v.71a2.59,2.59,0,0,1-.68.09,1.11,1.11,0,0,1-.89-.35,1.61,1.61,0,0,1-.3-1v-3.18h-.93V286h.93v-1.25Z"/></g><g id="Group_2328" data-name="Group 2328"><path id="Path_1850" data-name="Path 1850" class="cls-2" d="M455,254.84V244.5H441.09a2.7,2.7,0,0,0-2.68,2.67V262.5a2.86,2.86,0,0,0,2.91,2.8H454a5.19,5.19,0,0,0,5.23-5.15v-.08a5.35,5.35,0,0,0-4.26-5.23Zm-1.22-.13a5.37,5.37,0,0,0-5.1,4.87h-5.35V245.71h10.45v9Zm-12.64-9h1v13.87h-.85a3.05,3.05,0,0,0-1.58.48V247.17a1.49,1.49,0,0,1,1.46-1.46Zm.12,18.37a1.74,1.74,0,0,1-1.7-1.7,1.66,1.66,0,0,1,1.62-1.7h7.5a3.44,3.44,0,0,0,.24,1.09h-7.42V263h8a3.73,3.73,0,0,0,1,1h-9.24Zm12.65,0a4,4,0,1,1,4-4,3.91,3.91,0,0,1-3.78,4Z"/><path id="Path_1851" data-name="Path 1851" class="cls-2" d="M454.47,260.19v-2.68h-1.22v2.68l-.73-.73-.85.85,2.19,2.19,2.19-2.19-.73-.85Z"/><path id="Path_1852" data-name="Path 1852" class="cls-2" d="M446.56,248h4.13v1.21h-4.13Z"/><path id="Path_1853" data-name="Path 1853" class="cls-2" d="M445.22,250.7H452v1.22h-6.81Z"/></g><g id="Group_2329" data-name="Group 2329"><path id="Path_1854" data-name="Path 1854" class="cls-2" d="M547.13,284.14a11.34,11.34,0,0,1-7.17-2.67,14.12,14.12,0,0,1-1.34-1.34,10.71,10.71,0,0,1-2.55-7.05,10.56,10.56,0,0,1,3.28-7.79,11.06,11.06,0,0,1,7.78-3.28,10.64,10.64,0,0,1,7.79,3.28,11.07,11.07,0,0,1,3.28,7.79,11.39,11.39,0,0,1-2.55,7.05,15.4,15.4,0,0,1-1.34,1.34A11.37,11.37,0,0,1,547.13,284.14Zm0-20.67a9.57,9.57,0,0,0-7.3,15.81,9.58,9.58,0,0,0,14.59,0,9.57,9.57,0,0,0-7.3-15.81Z"/><path id="Path_1855" data-name="Path 1855" class="cls-2" d="M547.13,273.08a4.11,4.11,0,1,1,.07,0Zm0-6.93a2.86,2.86,0,0,0-.13,5.72,2.8,2.8,0,0,0,2.93-2.66V269A2.83,2.83,0,0,0,547.13,266.15Z"/><path id="Path_1856" data-name="Path 1856" class="cls-2" d="M553.82,281.71h-.12a.69.69,0,0,1-.49-.85h0a6.47,6.47,0,0,0,.25-1.46,6.21,6.21,0,0,0-6.09-6.2h-.24a6,6,0,0,0-6.08,5.84,6.19,6.19,0,0,0,.24,1.82.69.69,0,1,1-1.33.37,9.37,9.37,0,0,1-.25-1.83,7.57,7.57,0,0,1,2.19-5.35,8,8,0,0,1,5.23-2.31h.24a7.19,7.19,0,0,1,5.23,2.31,7.33,7.33,0,0,1,2.19,5.35,9.36,9.36,0,0,1-.24,1.83A1,1,0,0,1,553.82,281.71Z"/></g><g id="Group_2340" data-name="Group 2340"><g id="Group_2339" data-name="Group 2339"><g class="cls-11"><g id="Group_2338" data-name="Group 2338"><g id="Group_2337" data-name="Group 2337"><rect id="Rectangle_2698" data-name="Rectangle 2698" class="cls-12" x="342.95" y="435.55" width="262.44" height="141.43"/><rect id="Rectangle_2699" data-name="Rectangle 2699" class="cls-13" x="342.95" y="435.8" width="43.17" height="143.14"/><rect id="Rectangle_2700" data-name="Rectangle 2700" class="cls-14" x="342.95" y="450.27" width="43.17" height="8.76"/><rect id="Rectangle_2701" data-name="Rectangle 2701" class="cls-14" x="392.93" y="564.58" width="91.94" height="12.53"/><rect id="Rectangle_2702" data-name="Rectangle 2702" class="cls-15" x="495.94" y="564.58" width="91.94" height="12.53"/><rect id="Rectangle_2703" data-name="Rectangle 2703" class="cls-12" x="342.95" y="462.55" width="32.59" height="3.4"/><rect id="Rectangle_2704" data-name="Rectangle 2704" class="cls-12" x="344.65" y="436.04" width="28.46" height="8.39"/><rect id="Rectangle_2705" data-name="Rectangle 2705" class="cls-14" x="385.15" y="435.07" width="21.77" height="10.7"/><rect id="Rectangle_2706" data-name="Rectangle 2706" class="cls-13" x="405.7" y="435.07" width="199.69" height="10.7"/><rect id="Rectangle_2707" data-name="Rectangle 2707" class="cls-16" x="523.91" y="436.04" width="25.05" height="7.66"/><rect id="Rectangle_2708" data-name="Rectangle 2708" class="cls-16" x="423.58" y="438.11" width="42.32" height="3.77"/><rect id="Rectangle_2709" data-name="Rectangle 2709" class="cls-16" x="553.58" y="436.04" width="30.65" height="7.66"/><g id="Group_2330" data-name="Group 2330"><rect id="Rectangle_2710" data-name="Rectangle 2710" class="cls-5" x="391.23" y="460.36" width="43.17" height="31.62"/><rect id="Rectangle_2711" data-name="Rectangle 2711" class="cls-15" x="392.93" y="455.86" width="17.88" height="17.88"/><rect id="Rectangle_2712" data-name="Rectangle 2712" class="cls-17" x="392.93" y="480.06" width="37.09" height="4.62"/></g><g id="Group_2331" data-name="Group 2331"><rect id="Rectangle_2713" data-name="Rectangle 2713" class="cls-5" x="444.25" y="460.36" width="43.17" height="31.62"/><rect id="Rectangle_2714" data-name="Rectangle 2714" class="cls-18" x="445.95" y="455.86" width="17.88" height="17.88"/><rect id="Rectangle_2715" data-name="Rectangle 2715" class="cls-17" x="445.95" y="480.06" width="37.09" height="4.62"/></g><g id="Group_2332" data-name="Group 2332"><rect id="Rectangle_2716" data-name="Rectangle 2716" class="cls-5" x="494.23" y="460.36" width="43.17" height="31.62"/><rect id="Rectangle_2717" data-name="Rectangle 2717" class="cls-19" x="495.94" y="455.86" width="17.88" height="17.88"/><rect id="Rectangle_2718" data-name="Rectangle 2718" class="cls-17" x="495.94" y="480.06" width="37.09" height="4.62"/></g><g id="Group_2333" data-name="Group 2333"><rect id="Rectangle_2719" data-name="Rectangle 2719" class="cls-5" x="547.26" y="460.36" width="43.17" height="31.62"/><rect id="Rectangle_2720" data-name="Rectangle 2720" class="cls-14" x="548.96" y="455.86" width="17.88" height="17.88"/><rect id="Rectangle_2721" data-name="Rectangle 2721" class="cls-17" x="548.96" y="480.06" width="37.09" height="4.62"/></g><rect id="Rectangle_2722" data-name="Rectangle 2722" class="cls-12" x="342.95" y="470.33" width="39.04" height="3.4"/><g id="Group_2334" data-name="Group 2334"><rect id="Rectangle_2723" data-name="Rectangle 2723" class="cls-5" x="392.93" y="526.03" width="56.31" height="31.98"/><rect id="Rectangle_2724" data-name="Rectangle 2724" class="cls-18" x="392.93" y="500.13" width="56.31" height="31.98"/><rect id="Rectangle_2725" data-name="Rectangle 2725" class="cls-17" x="396.94" y="536.73" width="48.28" height="5.23"/><rect id="Rectangle_2726" data-name="Rectangle 2726" class="cls-17" x="396.94" y="546.7" width="48.28" height="5.23"/></g><g id="Group_2335" data-name="Group 2335"><rect id="Rectangle_2727" data-name="Rectangle 2727" class="cls-5" x="462.13" y="526.03" width="56.31" height="31.98"/><rect id="Rectangle_2728" data-name="Rectangle 2728" class="cls-15" x="462.13" y="500.13" width="56.31" height="31.98"/><rect id="Rectangle_2729" data-name="Rectangle 2729" class="cls-17" x="466.14" y="536.73" width="48.28" height="5.23"/><rect id="Rectangle_2730" data-name="Rectangle 2730" class="cls-17" x="466.14" y="546.7" width="48.28" height="5.23"/></g><g id="Group_2336" data-name="Group 2336"><rect id="Rectangle_2731" data-name="Rectangle 2731" class="cls-5" x="531.2" y="526.03" width="56.31" height="31.98"/><rect id="Rectangle_2732" data-name="Rectangle 2732" class="cls-19" x="531.2" y="500.13" width="56.31" height="31.98"/><rect id="Rectangle_2733" data-name="Rectangle 2733" class="cls-17" x="535.22" y="536.73" width="48.28" height="5.23"/><rect id="Rectangle_2734" data-name="Rectangle 2734" class="cls-17" x="535.22" y="546.7" width="48.28" height="5.23"/></g></g></g></g></g></g><g id="Group_2341" data-name="Group 2341"><path id="Path_1858" data-name="Path 1858" class="cls-2" d="M629.59,325.13h1.33v1.34h1.34v-4.14h-1.34v1.34h-1.33v-1.34h-1.34v4.14h1.34Z"/><path id="Path_1859" data-name="Path 1859" class="cls-2" d="M640.77,339.11a2,2,0,0,0-2.06-1.94H638V319.53H622.65v17.64h-.73a2,2,0,0,0-2.06,1.94,2,2,0,0,0-1.34,1.95v2.07h23.59v-2.07A2.27,2.27,0,0,0,640.77,339.11ZM624.11,321h12.53v13.87h-2.8a3.53,3.53,0,0,0-7.06,0H624V321Zm4.14,13.87a2.07,2.07,0,1,1,4.13,0h-4.13Zm1.34,1.34v5.59h-1.34V336.2Zm1.45,0h1.34v5.59H631Zm-11.18,5.59v-.73a.79.79,0,0,1,.73-.73h.73v-1.22a.79.79,0,0,1,.73-.73h.73v3.29h-2.92Zm4.25-5.59h2.8v5.59h-2.8Zm9.73,5.59V336.2h2.8v5.59Zm6.93,0H638v-3.28h.73a.76.76,0,0,1,.73.73v1.21h.73a.78.78,0,0,1,.73.73v.61Z"/><path id="Path_1860" data-name="Path 1860" class="cls-2" d="M625.45,322.33h1.34v1.34h-1.34Z"/><path id="Path_1861" data-name="Path 1861" class="cls-2" d="M633.84,322.33h1.34v1.34h-1.34Z"/><path id="Path_1862" data-name="Path 1862" class="cls-2" d="M625.45,325.13h1.34v1.34h-1.34Z"/><path id="Path_1863" data-name="Path 1863" class="cls-2" d="M633.84,325.13h1.34v1.34h-1.34Z"/><path id="Path_1864" data-name="Path 1864" class="cls-2" d="M625.45,327.92h1.34v1.34h-1.34Z"/><path id="Path_1865" data-name="Path 1865" class="cls-2" d="M628.25,327.92h1.34v1.34h-1.34Z"/><path id="Path_1866" data-name="Path 1866" class="cls-2" d="M631,327.92h1.34v1.34H631Z"/><path id="Path_1867" data-name="Path 1867" class="cls-2" d="M633.84,327.92h1.34v1.34h-1.34Z"/><path id="Path_1868" data-name="Path 1868" class="cls-2" d="M625.45,330.72h1.34v1.34h-1.34Z"/><path id="Path_1869" data-name="Path 1869" class="cls-2" d="M633.84,330.72h1.34v1.34h-1.34Z"/></g><g id="Group_2346" data-name="Group 2346"><g id="Group_2343" data-name="Group 2343"><g id="Group_2342" data-name="Group 2342"><path id="Path_1870" data-name="Path 1870" class="cls-2" d="M686.44,408H673a4,4,0,0,0-4,3.95V425.5a4,4,0,0,0,3.94,4h13.51a4,4,0,0,0,4-3.94V412a3.89,3.89,0,0,0-3.8-4Zm2.76,17.57a2.74,2.74,0,0,1-2.71,2.76H673a2.74,2.74,0,0,1-2.76-2.71V412a2.74,2.74,0,0,1,2.71-2.76h13.53A2.74,2.74,0,0,1,689.2,412v13.64Z"/></g></g><g id="Group_2345" data-name="Group 2345"><g id="Group_2344" data-name="Group 2344"><path id="Path_1871" data-name="Path 1871" class="cls-2" d="M685.77,412.13h-8.06a.72.72,0,0,0-.66.66v3.43h-3.42a.71.71,0,0,0-.67.66v8.06a.73.73,0,0,0,.67.67h8.06a.72.72,0,0,0,.66-.67v-3.42h3.43a.73.73,0,0,0,.66-.66v-8.07a.64.64,0,0,0-.62-.66Zm-4.63,12.15h-6.85v-6.85h6.85Zm4-4.09h-2.76v-3.42a.7.7,0,0,0-.66-.66h-3.43v-2.76h6.85v6.84Z"/></g></g></g><path id="Path_1872" data-name="Path 1872" class="cls-9" d="M552,582.58H341.24a17.07,17.07,0,0,1-17-17v-3.28H568.9v3.28a16.89,16.89,0,0,1-16.76,17Z"/><g id="Group_2347" data-name="Group 2347"><path id="Path_1873" data-name="Path 1873" class="cls-2" d="M206.32,439l2.26,5.64,2.26-5.64H212v6.91h-.91v-2.69l.09-2.91-2.28,5.6h-.7L206,440.36l.09,2.89v2.69h-.91V439Z"/><path id="Path_1874" data-name="Path 1874" class="cls-2" d="M213.26,443.33a3.18,3.18,0,0,1,.3-1.36,2.2,2.2,0,0,1,.83-.93,2.23,2.23,0,0,1,1.21-.33,2.17,2.17,0,0,1,1.7.73,2.83,2.83,0,0,1,.65,1.93v.06a3.12,3.12,0,0,1-.29,1.35,2.23,2.23,0,0,1-.82.93,2.32,2.32,0,0,1-1.23.33,2.14,2.14,0,0,1-1.69-.73,2.74,2.74,0,0,1-.65-1.92Zm.89.1a2.16,2.16,0,0,0,.39,1.37,1.34,1.34,0,0,0,1.89.23,1.36,1.36,0,0,0,.24-.24,2.39,2.39,0,0,0,.4-1.47,2.23,2.23,0,0,0-.4-1.37,1.29,1.29,0,0,0-1.07-.52,1.24,1.24,0,0,0-1,.52,2.29,2.29,0,0,0-.4,1.48Z"/><path id="Path_1875" data-name="Path 1875" class="cls-2" d="M223.39,443.43a3,3,0,0,1-.54,1.9,1.72,1.72,0,0,1-1.45.71,1.8,1.8,0,0,1-1.51-.69l0,.6H219v-7.3h.88v2.72a1.78,1.78,0,0,1,1.47-.66,1.71,1.71,0,0,1,1.47.71,3.16,3.16,0,0,1,.53,1.93Zm-.88-.1a2.39,2.39,0,0,0-.34-1.38,1.15,1.15,0,0,0-1-.49,1.28,1.28,0,0,0-1.25.8v2.23a1.34,1.34,0,0,0,1.26.81,1.15,1.15,0,0,0,1-.49A2.49,2.49,0,0,0,222.51,443.33Z"/><path id="Path_1876" data-name="Path 1876" class="cls-2" d="M224.51,439.44a.49.49,0,0,1,.13-.36.5.5,0,0,1,.38-.15.51.51,0,0,1,.39.15.53.53,0,0,1,0,.72.5.5,0,0,1-.39.14.47.47,0,0,1-.51-.5Zm1,6.5h-.88V440.8h.88Z"/><path id="Path_1877" data-name="Path 1877" class="cls-2" d="M227.82,446h-.88v-7.3h.88Z"/><path id="Path_1878" data-name="Path 1878" class="cls-2" d="M231.36,446a2.26,2.26,0,0,1-1.7-.69,2.53,2.53,0,0,1-.66-1.83v-.16a3.07,3.07,0,0,1,.29-1.37,2.33,2.33,0,0,1,.82-.94,2.09,2.09,0,0,1,1.14-.34,1.94,1.94,0,0,1,1.56.66,2.83,2.83,0,0,1,.55,1.89v.37h-3.48a1.81,1.81,0,0,0,.44,1.22,1.4,1.4,0,0,0,1.08.47,1.54,1.54,0,0,0,.79-.19,2.1,2.1,0,0,0,.57-.5l.54.42A2.19,2.19,0,0,1,231.36,446Zm-.11-4.61a1.23,1.23,0,0,0-.9.39,1.86,1.86,0,0,0-.44,1.09h2.57v-.07a1.64,1.64,0,0,0-.36-1,1.11,1.11,0,0,0-.87-.37Z"/><path id="Path_1879" data-name="Path 1879" class="cls-2" d="M199.23,455.08h-2.9l-.65,1.81h-.94l2.64-6.92h.8l2.65,6.92h-.94Zm-2.62-.74H199l-1.17-3.24Z"/><path id="Path_1880" data-name="Path 1880" class="cls-2" d="M206,454.38a3.11,3.11,0,0,1-.54,1.89A1.72,1.72,0,0,1,204,457a1.87,1.87,0,0,1-1.48-.59v2.48h-.88v-7.12h.81l0,.57a1.78,1.78,0,0,1,1.49-.66,1.75,1.75,0,0,1,1.47.7,3,3,0,0,1,.53,1.94Zm-.88-.1a2.39,2.39,0,0,0-.37-1.38,1.24,1.24,0,0,0-1-.5,1.31,1.31,0,0,0-1.2.71v2.46a1.29,1.29,0,0,0,1.21.7,1.2,1.2,0,0,0,1-.5,2.54,2.54,0,0,0,.38-1.49Z"/><path id="Path_1881" data-name="Path 1881" class="cls-2" d="M211.42,454.38a3,3,0,0,1-.53,1.89,1.74,1.74,0,0,1-1.46.71,1.86,1.86,0,0,1-1.47-.59v2.48h-.88v-7.12h.8l.05.57a1.78,1.78,0,0,1,1.49-.66,1.72,1.72,0,0,1,1.46.7,3.11,3.11,0,0,1,.54,1.94Zm-.87-.1a2.33,2.33,0,0,0-.38-1.38,1.21,1.21,0,0,0-1-.5,1.3,1.3,0,0,0-1.2.71v2.46a1.29,1.29,0,0,0,1.2.7,1.19,1.19,0,0,0,1-.5A2.48,2.48,0,0,0,210.55,454.28Z"/><path id="Path_1882" data-name="Path 1882" class="cls-2" d="M213.49,456.89h-.87v-7.3h.87Z"/><path id="Path_1883" data-name="Path 1883" class="cls-2" d="M214.91,450.39A.47.47,0,0,1,215,450a.46.46,0,0,1,.38-.15.47.47,0,0,1,.39.15.52.52,0,0,1,.14.36.49.49,0,0,1-.45.5h-.08a.46.46,0,0,1-.38-.15A.45.45,0,0,1,214.91,450.39Zm1,6.5H215v-5.14h.88Z"/><path id="Path_1884" data-name="Path 1884" class="cls-2" d="M219.32,456.27a1.33,1.33,0,0,0,.83-.29,1,1,0,0,0,.38-.71h.84a1.71,1.71,0,0,1-.3.84,2.1,2.1,0,0,1-.75.64,2.28,2.28,0,0,1-1,.23,2.1,2.1,0,0,1-1.67-.7,2.77,2.77,0,0,1-.62-1.91v-.15a3.09,3.09,0,0,1,.27-1.34,2.15,2.15,0,0,1,.79-.9,2.28,2.28,0,0,1,1.22-.33,2.11,2.11,0,0,1,1.44.52,1.87,1.87,0,0,1,.61,1.35h-.83a1.19,1.19,0,0,0-.38-.82,1.15,1.15,0,0,0-.84-.32,1.25,1.25,0,0,0-1,.48,2.21,2.21,0,0,0-.36,1.39v.17a2.23,2.23,0,0,0,.36,1.37A1.25,1.25,0,0,0,219.32,456.27Z"/><path id="Path_1885" data-name="Path 1885" class="cls-2" d="M225.53,456.89a2,2,0,0,1-.13-.54,1.92,1.92,0,0,1-1.46.63,1.84,1.84,0,0,1-1.25-.42,1.53,1.53,0,0,1,.13-2.34,2.88,2.88,0,0,1,1.71-.45h.86v-.4a1,1,0,0,0-.28-.73,1,1,0,0,0-.81-.27,1.31,1.31,0,0,0-.79.23.75.75,0,0,0-.32.58h-.88a1.22,1.22,0,0,1,.27-.74,1.83,1.83,0,0,1,.75-.57,2.39,2.39,0,0,1,1-.21,2.08,2.08,0,0,1,1.4.44,1.62,1.62,0,0,1,.52,1.23v2.36a2.74,2.74,0,0,0,.18,1.13v.07Zm-1.46-.67a1.55,1.55,0,0,0,.78-.21,1.33,1.33,0,0,0,.54-.56V454.4h-.69c-1.08,0-1.61.31-1.61.94a.77.77,0,0,0,.27.65,1.06,1.06,0,0,0,.71.23Z"/><path id="Path_1886" data-name="Path 1886" class="cls-2" d="M228.84,450.51v1.24h1v.68h-1v3.19a.72.72,0,0,0,.13.47.52.52,0,0,0,.43.15,2,2,0,0,0,.42-.05v.7a2.18,2.18,0,0,1-.67.1,1.11,1.11,0,0,1-.89-.36,1.53,1.53,0,0,1-.3-1v-3.19H227v-.68H228v-1.24Z"/><path id="Path_1887" data-name="Path 1887" class="cls-2" d="M230.83,450.39A.52.52,0,0,1,231,450a.47.47,0,0,1,.39-.15.48.48,0,0,1,.52.51.49.49,0,0,1-.45.5h-.07a.47.47,0,0,1-.39-.15A.45.45,0,0,1,230.83,450.39Zm.95,6.5h-.88v-5.14h.88Z"/><path id="Path_1888" data-name="Path 1888" class="cls-2" d="M233,454.27a3.21,3.21,0,0,1,.3-1.36,2.26,2.26,0,0,1,.83-.93,2.22,2.22,0,0,1,1.21-.32,2.16,2.16,0,0,1,1.7.72,2.83,2.83,0,0,1,.65,1.93v.07a3.11,3.11,0,0,1-.29,1.34,2.18,2.18,0,0,1-.82.93,2.23,2.23,0,0,1-1.23.33,2.12,2.12,0,0,1-1.69-.72,2.73,2.73,0,0,1-.65-1.93Zm.89.1a2.1,2.1,0,0,0,.4,1.37,1.33,1.33,0,0,0,1.88.24,1.36,1.36,0,0,0,.24-.24,2.41,2.41,0,0,0,.4-1.47,2.23,2.23,0,0,0-.4-1.37,1.29,1.29,0,0,0-1.07-.53,1.28,1.28,0,0,0-1,.52,2.32,2.32,0,0,0-.4,1.49Z"/><path id="Path_1889" data-name="Path 1889" class="cls-2" d="M239.57,451.75l0,.65a1.91,1.91,0,0,1,1.54-.75c1.09,0,1.64.62,1.65,1.84v3.4h-.88v-3.4a1.17,1.17,0,0,0-.26-.82,1,1,0,0,0-.77-.26,1.25,1.25,0,0,0-.75.22,1.6,1.6,0,0,0-.5.6v3.67h-.88v-5.14Z"/></g><circle id="Ellipse_69" data-name="Ellipse 69" class="cls-7" cx="267.5" cy="351.5" r="42.5"/><g id="Group_2348" data-name="Group 2348"><path id="Path_1890" data-name="Path 1890" class="cls-2" d="M261.36,357.22A4.3,4.3,0,0,1,261,359a2.59,2.59,0,0,1-1,1.16,2.68,2.68,0,0,1-3.7-.79,3.24,3.24,0,0,1-.2-.36,4.24,4.24,0,0,1-.36-1.72v-.5a4.23,4.23,0,0,1,.35-1.76,2.57,2.57,0,0,1,2.43-1.58,2.71,2.71,0,0,1,1.47.4,2.61,2.61,0,0,1,1,1.16,4.35,4.35,0,0,1,.35,1.78Zm-.91-.45a3.16,3.16,0,0,0-.49-1.89,1.63,1.63,0,0,0-1.39-.65,1.59,1.59,0,0,0-1.36.65,3,3,0,0,0-.51,1.83v.51a3.09,3.09,0,0,0,.5,1.87,1.77,1.77,0,0,0,2.47.32,2.47,2.47,0,0,0,.28-.28,3.1,3.1,0,0,0,.5-1.85Z"/><path id="Path_1891" data-name="Path 1891" class="cls-2" d="M263.42,355.31l0,.65a1.85,1.85,0,0,1,1.54-.74c1.08,0,1.63.61,1.64,1.84v3.4h-.88v-3.4a1.24,1.24,0,0,0-.25-.83,1,1,0,0,0-.78-.26,1.19,1.19,0,0,0-.75.23,1.54,1.54,0,0,0-.5.6v3.66h-.88v-5.14Z"/><path id="Path_1892" data-name="Path 1892" class="cls-2" d="M268.91,360.45H268v-7.3h.88Z"/><path id="Path_1893" data-name="Path 1893" class="cls-2" d="M270.32,354a.53.53,0,0,1,.13-.36.53.53,0,0,1,.78.72.51.51,0,0,1-.39.14.48.48,0,0,1-.52-.42V354Zm.95,6.5h-.88v-5.14h.88Z"/><path id="Path_1894" data-name="Path 1894" class="cls-2" d="M273.51,355.31l0,.65a1.86,1.86,0,0,1,1.54-.74c1.08,0,1.63.61,1.64,1.84v3.4h-.88v-3.4a1.24,1.24,0,0,0-.25-.83,1,1,0,0,0-.78-.26,1.19,1.19,0,0,0-.75.23,1.54,1.54,0,0,0-.5.6v3.66h-.88v-5.14Z"/><path id="Path_1895" data-name="Path 1895" class="cls-2" d="M280.18,360.55a2.26,2.26,0,0,1-1.7-.69,2.57,2.57,0,0,1-.66-1.83v-.17a3.18,3.18,0,0,1,.3-1.36,2.24,2.24,0,0,1,.81-.94,2,2,0,0,1,1.14-.34,1.91,1.91,0,0,1,1.56.66,2.83,2.83,0,0,1,.55,1.89v.36H278.7a1.8,1.8,0,0,0,.45,1.23,1.39,1.39,0,0,0,1.08.47,1.59,1.59,0,0,0,.79-.19,2.06,2.06,0,0,0,.56-.5l.54.42A2.18,2.18,0,0,1,280.18,360.55Zm-.11-4.61a1.12,1.12,0,0,0-.89.39,1.87,1.87,0,0,0-.45,1.08h2.58v-.06a1.63,1.63,0,0,0-.37-1,1.08,1.08,0,0,0-.87-.37Z"/><path id="Path_1896" data-name="Path 1896" class="cls-2" d="M250.49,369.59h-2.9l-.65,1.81H246l2.64-6.92h.8l2.65,6.92h-.94Zm-2.62-.75h2.35L249,365.61Z"/><path id="Path_1897" data-name="Path 1897" class="cls-2" d="M252.67,368.78a3,3,0,0,1,.56-1.9,1.91,1.91,0,0,1,2.68-.3,2.09,2.09,0,0,1,.22.2v-2.67H257v7.3h-.81l-.05-.56a1.89,1.89,0,0,1-2.92-.08,3,3,0,0,1-.56-1.91Zm.87.1a2.27,2.27,0,0,0,.37,1.37,1.16,1.16,0,0,0,1,.5,1.3,1.3,0,0,0,1.22-.75v-2.36a1.29,1.29,0,0,0-1.21-.73,1.16,1.16,0,0,0-1,.5,2.54,2.54,0,0,0-.37,1.47Z"/><path id="Path_1898" data-name="Path 1898" class="cls-2" d="M259.19,366.26l0,.57a1.9,1.9,0,0,1,1.52-.67,1.47,1.47,0,0,1,1.47.83,1.92,1.92,0,0,1,1.64-.83c1.13,0,1.7.6,1.72,1.79v3.45h-.88V368a1.22,1.22,0,0,0-.25-.83,1.13,1.13,0,0,0-.85-.27,1.17,1.17,0,0,0-.81.29,1.16,1.16,0,0,0-.37.79v3.41h-.89V368a1,1,0,0,0-.82-1.12.66.66,0,0,0-.28,0,1.18,1.18,0,0,0-1.18.73v3.76h-.88v-5.14Z"/><path id="Path_1899" data-name="Path 1899" class="cls-2" d="M266.9,364.89a.53.53,0,0,1,.13-.36.6.6,0,0,1,.78,0,.56.56,0,0,1-.37.91.52.52,0,0,1-.54-.5v-.05Zm1,6.5H267v-5.14h.88Z"/><path id="Path_1900" data-name="Path 1900" class="cls-2" d="M272.25,370a.65.65,0,0,0-.27-.55,2.66,2.66,0,0,0-.94-.34,4.52,4.52,0,0,1-1.06-.34,1.65,1.65,0,0,1-.58-.47,1.2,1.2,0,0,1-.18-.66,1.35,1.35,0,0,1,.53-1.07,2.12,2.12,0,0,1,1.37-.44,2.21,2.21,0,0,1,1.42.45,1.45,1.45,0,0,1,.54,1.16h-.88a.79.79,0,0,0-.31-.62,1.09,1.09,0,0,0-.77-.26,1.17,1.17,0,0,0-.75.2.63.63,0,0,0-.27.55.52.52,0,0,0,.25.48,3.27,3.27,0,0,0,.91.31,4.47,4.47,0,0,1,1.07.35,1.51,1.51,0,0,1,.6.49,1.17,1.17,0,0,1,.2.7,1.29,1.29,0,0,1-.55,1.1,2.35,2.35,0,0,1-1.43.42,2.56,2.56,0,0,1-1.09-.22,1.7,1.7,0,0,1-.74-.61,1.46,1.46,0,0,1-.27-.85h.88a.89.89,0,0,0,.35.7,1.42,1.42,0,0,0,.87.26,1.49,1.49,0,0,0,.8-.2A.63.63,0,0,0,272.25,370Z"/><path id="Path_1901" data-name="Path 1901" class="cls-2" d="M277.27,370a.7.7,0,0,0-.27-.55,2.66,2.66,0,0,0-.94-.34,4.37,4.37,0,0,1-1.06-.34,1.57,1.57,0,0,1-.58-.47,1.21,1.21,0,0,1-.19-.66,1.33,1.33,0,0,1,.54-1.07,2.09,2.09,0,0,1,1.36-.44,2.17,2.17,0,0,1,1.42.45,1.45,1.45,0,0,1,.55,1.16h-.89a.78.78,0,0,0-.3-.62,1.09,1.09,0,0,0-.77-.26,1.17,1.17,0,0,0-.75.2.67.67,0,0,0-.28.55.55.55,0,0,0,.26.48,3.16,3.16,0,0,0,.91.31,4.4,4.4,0,0,1,1.06.35,1.62,1.62,0,0,1,.61.49,1.17,1.17,0,0,1,.2.7,1.32,1.32,0,0,1-.55,1.1,2.35,2.35,0,0,1-1.43.42,2.53,2.53,0,0,1-1.09-.22,1.78,1.78,0,0,1-.75-.61,1.45,1.45,0,0,1-.26-.85h.87a.93.93,0,0,0,.36.7,1.42,1.42,0,0,0,.87.26,1.49,1.49,0,0,0,.8-.2A.63.63,0,0,0,277.27,370Z"/><path id="Path_1902" data-name="Path 1902" class="cls-2" d="M279.29,364.89a.59.59,0,0,1,.13-.36.51.51,0,0,1,.39-.14.5.5,0,0,1,.39.14.49.49,0,0,1,.13.36.47.47,0,0,1-.13.36.51.51,0,0,1-.39.14.47.47,0,0,1-.52-.42v-.08Zm.95,6.5h-.88v-5.14h.88Z"/><path id="Path_1903" data-name="Path 1903" class="cls-2" d="M281.42,368.78a2.91,2.91,0,0,1,.3-1.36,2.17,2.17,0,0,1,.82-.93,2.27,2.27,0,0,1,1.21-.33,2.16,2.16,0,0,1,1.7.73,2.73,2.73,0,0,1,.65,1.93v.06a3,3,0,0,1-.29,1.35,2.11,2.11,0,0,1-.82.93,2.28,2.28,0,0,1-1.22.33,2.16,2.16,0,0,1-1.7-.73,2.79,2.79,0,0,1-.65-1.92Zm.88.1a2.23,2.23,0,0,0,.4,1.37,1.35,1.35,0,0,0,2.13,0,2.47,2.47,0,0,0,.39-1.47,2.23,2.23,0,0,0-.4-1.37,1.34,1.34,0,0,0-1.87-.26,2,2,0,0,0-.25.25,2.44,2.44,0,0,0-.4,1.48Z"/><path id="Path_1904" data-name="Path 1904" class="cls-2" d="M288,366.26l0,.64a1.87,1.87,0,0,1,1.54-.74c1.08,0,1.63.62,1.64,1.84v3.4h-.88V368a1.2,1.2,0,0,0-.25-.82,1.05,1.05,0,0,0-.78-.27,1.33,1.33,0,0,0-.75.23,1.61,1.61,0,0,0-.5.6v3.67h-.88v-5.15Z"/></g><g id="Group_2349" data-name="Group 2349"><path id="Path_1905" data-name="Path 1905" class="cls-2" d="M277,334.12,273.87,331v-5.59a1.94,1.94,0,0,0-1.9-1.95h-8.8a1.93,1.93,0,0,0-1.95,1.9V344.1a1.94,1.94,0,0,0,1.9,1.95h13.67a.56.56,0,0,0,.61-.49l1.21-6.2A5.87,5.87,0,0,0,277,334.12Zm-14-9.48h8.75a.57.57,0,0,1,.61.54v8.7a2.06,2.06,0,0,0-2.92,2.92h0l2.56,2.67a5.49,5.49,0,0,0-1.83,2.32h-7.9V325.25c.12-.24.37-.61.73-.61Zm-.61,19.46v-.85h7.42c-.12.48-.12,1-.25,1.58h-6.56a.69.69,0,0,1-.61-.73Zm14.84-5-1.1,5.59h-5.11a5.76,5.76,0,0,1,1.22-3.4,2.61,2.61,0,0,1,1.22-1,.65.65,0,0,0,.24-1.1L270.59,336a.77.77,0,1,1,1.08-1.11h0l3.17,3.17a.69.69,0,1,0,1-1L274,335.22v-2.55L276.3,335a5,5,0,0,1,1,4.13Z"/></g><circle id="Ellipse_70" data-name="Ellipse 70" class="cls-7" cx="348.78" cy="292.9" r="42.56"/><g id="Group_2350" data-name="Group 2350"><path id="Path_1906" data-name="Path 1906" class="cls-2" d="M341.65,296.33h-3v2.45h3.49v.75h-4.4v-6.92h4.35v.75h-3.44v2.22h3Z"/><path id="Path_1907" data-name="Path 1907" class="cls-2" d="M344.86,296.26l1.14-1.87h1l-1.68,2.54,1.73,2.6h-1l-1.19-1.92-1.18,1.92h-1l1.73-2.6-1.68-2.54h1Z"/><path id="Path_1908" data-name="Path 1908" class="cls-2" d="M351.13,299.52A1.63,1.63,0,0,1,351,299a2,2,0,0,1-1.47.64,1.81,1.81,0,0,1-1.24-.43,1.38,1.38,0,0,1-.49-1.09,1.47,1.47,0,0,1,.61-1.25,2.88,2.88,0,0,1,1.72-.44H351V296a1,1,0,0,0-.27-.74,1.15,1.15,0,0,0-.81-.27,1.23,1.23,0,0,0-.79.24.67.67,0,0,0-.32.57h-.89a1.24,1.24,0,0,1,.27-.74,1.83,1.83,0,0,1,.75-.57,2.55,2.55,0,0,1,1-.21,2,2,0,0,1,1.4.45,1.6,1.6,0,0,1,.52,1.22v2.36a2.71,2.71,0,0,0,.18,1.13v.08Zm-1.46-.67a1.56,1.56,0,0,0,.79-.21,1.3,1.3,0,0,0,.53-.56V297h-.69c-1.07,0-1.61.32-1.61,1a.82.82,0,0,0,.27.64,1,1,0,0,0,.71.23Z"/><path id="Path_1909" data-name="Path 1909" class="cls-2" d="M354.08,294.38l0,.57a1.89,1.89,0,0,1,1.52-.66,1.46,1.46,0,0,1,1.47.83,1.92,1.92,0,0,1,1.64-.83c1.13,0,1.7.6,1.72,1.79v3.44h-.87v-3.39a1.17,1.17,0,0,0-.26-.82,1.08,1.08,0,0,0-.84-.28,1.15,1.15,0,0,0-.81.3,1.16,1.16,0,0,0-.38.78v3.41h-.88v-3.37a1,1,0,0,0-.82-1.11.89.89,0,0,0-.28,0,1.17,1.17,0,0,0-1.18.74v3.75h-.88v-5.14Z"/><path id="Path_1910" data-name="Path 1910" class="cls-2" d="M322.36,303.55l2.27,5.65,2.26-5.65h1.18v6.92h-.91v-2.69l.08-2.91-2.27,5.6h-.7L322,304.88l.09,2.89v2.7h-.91v-6.92Z"/><path id="Path_1911" data-name="Path 1911" class="cls-2" d="M332.72,310.47a2,2,0,0,1-.13-.54,1.93,1.93,0,0,1-1.46.63,1.78,1.78,0,0,1-1.25-.43,1.37,1.37,0,0,1-.48-1.09,1.4,1.4,0,0,1,.61-1.24,2.81,2.81,0,0,1,1.71-.45h.86V307a1,1,0,0,0-.28-.73,1.09,1.09,0,0,0-.81-.28,1.32,1.32,0,0,0-.79.24.73.73,0,0,0-.32.58h-.88a1.19,1.19,0,0,1,.27-.75,1.85,1.85,0,0,1,.74-.56,2.32,2.32,0,0,1,1-.21,2,2,0,0,1,1.39.44,1.59,1.59,0,0,1,.53,1.22v2.37a2.69,2.69,0,0,0,.18,1.12v.08Zm-1.46-.67a1.56,1.56,0,0,0,.78-.22,1.3,1.3,0,0,0,.54-.55v-1h-.69c-1.08,0-1.62.31-1.62.94a.8.8,0,0,0,.28.65A1.06,1.06,0,0,0,331.26,309.8Z"/><path id="Path_1912" data-name="Path 1912" class="cls-2" d="M335.67,305.33l0,.64a1.9,1.9,0,0,1,1.54-.74c1.09,0,1.64.62,1.65,1.84v3.4H338v-3.4a1.21,1.21,0,0,0-.25-.82A1.08,1.08,0,0,0,337,306a1.33,1.33,0,0,0-.75.23,1.52,1.52,0,0,0-.5.6v3.67h-.88v-5.14Z"/><path id="Path_1913" data-name="Path 1913" class="cls-2" d="M343.38,310.47a2,2,0,0,1-.13-.54,1.93,1.93,0,0,1-1.46.63,1.78,1.78,0,0,1-1.25-.43,1.38,1.38,0,0,1-.49-1.09,1.44,1.44,0,0,1,.61-1.24,2.86,2.86,0,0,1,1.72-.45h.86V307a1,1,0,0,0-.28-.73,1.09,1.09,0,0,0-.81-.28,1.32,1.32,0,0,0-.79.24.73.73,0,0,0-.32.58h-.88a1.25,1.25,0,0,1,.27-.75,1.85,1.85,0,0,1,.74-.56,2.32,2.32,0,0,1,1-.21,2,2,0,0,1,1.39.44,1.59,1.59,0,0,1,.53,1.22v2.37a2.69,2.69,0,0,0,.18,1.12v.08Zm-1.46-.67a1.56,1.56,0,0,0,.78-.22,1.3,1.3,0,0,0,.54-.55v-1h-.69c-1.08,0-1.62.31-1.62.94a.8.8,0,0,0,.28.65A1.06,1.06,0,0,0,341.92,309.8Z"/><path id="Path_1914" data-name="Path 1914" class="cls-2" d="M345.29,307.86a3,3,0,0,1,.55-1.92,1.92,1.92,0,0,1,2.7-.28,1.36,1.36,0,0,1,.24.24l.05-.57h.8v5a2.14,2.14,0,0,1-.59,1.58,2.23,2.23,0,0,1-1.59.57,2.55,2.55,0,0,1-1.09-.24,1.78,1.78,0,0,1-.81-.65l.45-.52a1.73,1.73,0,0,0,1.38.7,1.26,1.26,0,0,0,1.36-1.38V310a1.78,1.78,0,0,1-1.44.6,1.73,1.73,0,0,1-1.46-.72A3.17,3.17,0,0,1,345.29,307.86Zm.88.1a2.31,2.31,0,0,0,.35,1.36,1.16,1.16,0,0,0,1,.5,1.3,1.3,0,0,0,1.23-.75v-2.35a1.33,1.33,0,0,0-1.21-.74,1.18,1.18,0,0,0-1,.5,2.48,2.48,0,0,0-.37,1.48Z"/><path id="Path_1915" data-name="Path 1915" class="cls-2" d="M353.09,310.56a2.21,2.21,0,0,1-1.7-.68,2.54,2.54,0,0,1-.66-1.84v-.16a3.1,3.1,0,0,1,.29-1.37,2.32,2.32,0,0,1,.82-.94,2.09,2.09,0,0,1,1.14-.34,2,2,0,0,1,1.55.66,2.88,2.88,0,0,1,.56,1.9v.36h-3.48a1.84,1.84,0,0,0,.44,1.23,1.4,1.4,0,0,0,1.08.47,1.65,1.65,0,0,0,.79-.19,2.1,2.1,0,0,0,.57-.5l.53.41A2.13,2.13,0,0,1,353.09,310.56ZM353,306a1.18,1.18,0,0,0-.9.38,1.91,1.91,0,0,0-.44,1.09h2.57v-.07a1.66,1.66,0,0,0-.36-1A1.1,1.1,0,0,0,353,306Z"/><path id="Path_1916" data-name="Path 1916" class="cls-2" d="M356.93,305.33l0,.57a1.93,1.93,0,0,1,1.52-.67,1.47,1.47,0,0,1,1.47.83,1.93,1.93,0,0,1,1.64-.83c1.13,0,1.7.6,1.72,1.79v3.45h-.88v-3.4a1.21,1.21,0,0,0-.25-.82,1.37,1.37,0,0,0-1.66,0,1.18,1.18,0,0,0-.37.79v3.41h-.89V307.1a1,1,0,0,0-.82-1.12.88.88,0,0,0-.28,0,1.18,1.18,0,0,0-1.18.73v3.76h-.88v-5.14Z"/><path id="Path_1917" data-name="Path 1917" class="cls-2" d="M366.77,310.56a2.21,2.21,0,0,1-1.7-.68,2.54,2.54,0,0,1-.66-1.84v-.16a3.1,3.1,0,0,1,.29-1.37,2.33,2.33,0,0,1,.82-.94,2.09,2.09,0,0,1,1.14-.34,1.93,1.93,0,0,1,1.55.66,2.82,2.82,0,0,1,.56,1.89v.37h-3.48a1.84,1.84,0,0,0,.44,1.23,1.4,1.4,0,0,0,1.08.47,1.65,1.65,0,0,0,.79-.19,2.1,2.1,0,0,0,.57-.5l.53.41A2.13,2.13,0,0,1,366.77,310.56Zm-.11-4.6a1.18,1.18,0,0,0-.9.38,1.91,1.91,0,0,0-.44,1.09h2.57v-.07a1.66,1.66,0,0,0-.36-1,1.1,1.1,0,0,0-.87-.36Z"/><path id="Path_1918" data-name="Path 1918" class="cls-2" d="M370.62,305.33l0,.64a1.9,1.9,0,0,1,1.54-.74c1.09,0,1.64.62,1.65,1.84v3.4H373v-3.4a1.21,1.21,0,0,0-.25-.82,1.08,1.08,0,0,0-.78-.27,1.33,1.33,0,0,0-.75.23,1.52,1.52,0,0,0-.5.6v3.67h-.88v-5.14Z"/><path id="Path_1919" data-name="Path 1919" class="cls-2" d="M376.35,304.09v1.24h1V306h-1v3.19a.72.72,0,0,0,.13.47.53.53,0,0,0,.44.15,1.4,1.4,0,0,0,.41-.06v.71a2.18,2.18,0,0,1-.67.1,1.11,1.11,0,0,1-.89-.36,1.53,1.53,0,0,1-.3-1V306h-.94v-.68h.94v-1.24Z"/></g><g id="Group_2351" data-name="Group 2351"><path id="Path_1920" data-name="Path 1920" class="cls-2" d="M346.9,271.13h-3.17a.61.61,0,0,0,0,1.22h3.17a.57.57,0,0,0,.6-.54.09.09,0,0,0,0-.07A.65.65,0,0,0,346.9,271.13Z"/><path id="Path_1921" data-name="Path 1921" class="cls-2" d="M346.9,274.29h-3.17a.61.61,0,0,0-.6.61.6.6,0,0,0,.6.61h3.17a.57.57,0,0,0,.6-.54.08.08,0,0,0,0-.07A.65.65,0,0,0,346.9,274.29Z"/><path id="Path_1922" data-name="Path 1922" class="cls-2" d="M346.9,277.46h-3.17a.61.61,0,0,0,0,1.21h3.17a.57.57,0,0,0,.6-.54.08.08,0,0,0,0-.07A.77.77,0,0,0,346.9,277.46Z"/><path id="Path_1923" data-name="Path 1923" class="cls-2" d="M355.41,276.36v-5.47a2.69,2.69,0,0,0-.85-2.07l-2.43-2.55h0a2.91,2.91,0,0,0-2.19-.85h-7.67a1.87,1.87,0,0,0-1.82,1.82v15.45a1.88,1.88,0,0,0,1.82,1.82h9.25a4.48,4.48,0,0,0,3.28,1.34,4.68,4.68,0,0,0,4.75-4.6v-.15A4.49,4.49,0,0,0,355.41,276.36Zm-13.74,6.33V267.12a.57.57,0,0,1,.53-.61h7.74a2.56,2.56,0,0,1,1.33.48l2.44,2.56h0a1.53,1.53,0,0,1,.48,1.21v5.48a4.74,4.74,0,0,0-4.13,4.74,4.23,4.23,0,0,0,.61,2.19h-8.4c-.24.12-.6-.24-.6-.49Zm13.13,1.82a3.53,3.53,0,1,1,3.53-3.53,3.45,3.45,0,0,1-3.38,3.53Z"/><path id="Path_1924" data-name="Path 1924" class="cls-2" d="M356.26,279.64a.6.6,0,0,0-.84.11v0l-1,1.21-.25-.48a.63.63,0,0,0-.85-.25.63.63,0,0,0-.24.86l.61,1.21a1.76,1.76,0,0,0,.48.37h.12a.89.89,0,0,0,.49-.25l1.58-1.94c.12-.37.12-.73-.12-.85Z"/><path id="Path_1925" data-name="Path 1925" class="cls-2" d="M350.06,272.35h.61a.61.61,0,0,0,0-1.22h-.61a.61.61,0,1,0,0,1.22Z"/><path id="Path_1926" data-name="Path 1926" class="cls-2" d="M351.27,274.9a.58.58,0,0,0-.53-.61h-.68a.61.61,0,0,0-.61.61.61.61,0,0,0,.61.61h.61a.57.57,0,0,0,.6-.54A.08.08,0,0,0,351.27,274.9Z"/></g></g></svg>