<?xml version="1.0" encoding="utf-8"?>
<!-- Generator: Adobe Illustrator 24.3.0, SVG Export Plug-In . SVG Version: 6.00 Build 0)  -->
<svg version="1.1" xmlns="http://www.w3.org/2000/svg" xmlns:xlink="http://www.w3.org/1999/xlink" x="0px" y="0px"
	 viewBox="0 0 537.31 452.14" style="enable-background:new 0 0 537.31 452.14;" xml:space="preserve">
<style type="text/css">
	.st0{fill:#EDEDED;}
	.st1{fill:#96C162;}
	.st2{fill:#33358E;}
	.st3{font-family:'Roboto-Medium';}
	.st4{font-size:12px;}
	.st5{fill:#FFFFFF;}
</style>
<g id="BACKGROUND">
</g>
<g id="OBJECTS">
	<g>
		<g id="Group_2356" transform="translate(441.491 172.601)">
			<path id="Path_1941" class="st0" d="M22.83,79.17L5.92,49.89c-1.77-3.06-1.77-6.84,0-9.9L22.83,10.7
				c1.77-3.06,5.04-4.95,8.58-4.95h33.82c3.54,0,6.81,1.89,8.58,4.95l16.91,29.29c1.77,3.06,1.77,6.84,0,9.9L73.8,79.17
				c-1.77,3.06-5.04,4.95-8.58,4.95H31.41C27.87,84.13,24.6,82.24,22.83,79.17z"/>
		</g>
		<g id="Group_2357" transform="translate(0 178.942)">
			<path id="Path_1942" class="st0" d="M22.83,79.17L5.92,49.89c-1.77-3.06-1.77-6.84,0-9.9L22.83,10.7
				c1.77-3.06,5.04-4.95,8.58-4.95h33.82c3.54,0,6.81,1.89,8.58,4.95l16.91,29.29c1.77,3.06,1.77,6.84,0,9.9L73.8,79.17
				c-1.77,3.06-5.04,4.95-8.58,4.95H31.41C27.87,84.13,24.6,82.24,22.83,79.17z"/>
		</g>
		<g id="Group_2358" transform="translate(341.035 367.081)">
			<path id="Path_1943" class="st0" d="M13.74,46.82L5.42,32.41c-1.46-2.53-1.46-5.64,0-8.16l8.32-14.42
				c1.46-2.53,4.15-4.08,7.07-4.08h16.65c2.92,0,5.61,1.56,7.07,4.08l8.32,14.42c1.46,2.53,1.46,5.64,0,8.16l-8.32,14.42
				c-1.46,2.53-4.15,4.08-7.07,4.08H20.81C17.9,50.9,15.2,49.35,13.74,46.82z"/>
		</g>
		<g id="Group_2359" transform="translate(137.032 20.207)">
			<path id="Path_1944" class="st0" d="M13.74,46.82L5.42,32.41c-1.46-2.53-1.46-5.64,0-8.16l8.32-14.42
				c1.46-2.53,4.15-4.08,7.07-4.08h16.65c2.92,0,5.61,1.56,7.07,4.08l8.32,14.42c1.46,2.53,1.46,5.64,0,8.16l-8.32,14.42
				c-1.46,2.53-4.15,4.08-7.07,4.08H20.81C17.9,50.9,15.2,49.35,13.74,46.82z"/>
		</g>
		<path id="Path_1945" class="st0" d="M97.63,213.16l-33.55-58.11c-1.94-3.36-1.94-7.51,0-10.87l33.55-58.11
			c1.94-3.36,5.53-5.44,9.41-5.44h67.1c3.88,0,7.47,2.07,9.41,5.44l33.55,58.11c1.94,3.36,1.94,7.51,0,10.87l-33.55,58.11
			c-1.94,3.36-5.53,5.44-9.41,5.44h-67.1C103.16,218.6,99.57,216.52,97.63,213.16z"/>
		<path id="Path_1946" class="st1" d="M226.44,286.05l-33.55-58.11c-1.94-3.36-1.94-7.51,0-10.87l33.55-58.11
			c1.94-3.36,5.53-5.44,9.41-5.44h67.1c3.88,0,7.47,2.07,9.41,5.44l33.55,58.11c1.94,3.36,1.94,7.51,0,10.87l-33.55,58.11
			c-1.94,3.36-5.53,5.44-9.41,5.44h-67.1C231.97,291.49,228.38,289.42,226.44,286.05z"/>
		<path id="Path_1947" class="st0" d="M353.17,209.68l-33.55-58.11c-1.94-3.36-1.94-7.51,0-10.87l33.55-58.11
			c1.94-3.36,5.53-5.44,9.41-5.44h67.1c3.88,0,7.47,2.07,9.41,5.44l33.55,58.11c1.94,3.36,1.94,7.51,0,10.87l-33.55,58.11
			c-1.94,3.36-5.53,5.44-9.41,5.44h-67.1C358.7,215.12,355.11,213.05,353.17,209.68z"/>
		<g id="Group_2360" transform="translate(184.491)">
			<path id="Path_1948" class="st0" d="M39.75,138.27L6.2,80.16c-1.94-3.36-1.94-7.51,0-10.87l33.55-58.11
				c1.94-3.36,5.53-5.44,9.41-5.44h67.1c3.88,0,7.47,2.07,9.41,5.44l33.55,58.11c1.94,3.36,1.94,7.51,0,10.87l-33.55,58.11
				c-1.94,3.36-5.53,5.44-9.41,5.44h-67.1C45.28,143.71,41.69,141.63,39.75,138.27z"/>
		</g>
		<g id="Group_2361" transform="translate(187.662 294.5)">
			<path id="Path_1949" class="st0" d="M39.75,138.27L6.2,80.16c-1.94-3.36-1.94-7.51,0-10.87l33.55-58.11
				c1.94-3.36,5.53-5.44,9.41-5.44h67.1c3.88,0,7.47,2.07,9.41,5.44l33.55,58.11c1.94,3.36,1.94,7.51,0,10.87l-33.55,58.11
				c-1.94,3.36-5.53,5.44-9.41,5.44h-67.1C45.28,143.71,41.69,141.63,39.75,138.27z"/>
		</g>
		<g id="Group_2362" transform="translate(315.891 219.246)">
			<path id="Path_1950" class="st0" d="M39.75,138.27L6.2,80.16c-1.94-3.36-1.94-7.51,0-10.87l33.55-58.11
				c1.94-3.36,5.53-5.44,9.41-5.44h67.1c3.88,0,7.47,2.07,9.41,5.44l33.55,58.11c1.94,3.36,1.94,7.51,0,10.87l-33.55,58.11
				c-1.94,3.36-5.53,5.44-9.41,5.44h-67.1C45.28,143.71,41.69,141.63,39.75,138.27z"/>
		</g>
		<g id="Group_2363" transform="translate(58.934 222.373)">
			<path id="Path_1951" class="st0" d="M39.75,138.27L6.2,80.16c-1.94-3.36-1.94-7.51,0-10.87l33.55-58.11
				c1.94-3.36,5.53-5.44,9.41-5.44h67.1c3.88,0,7.47,2.07,9.41,5.44l33.55,58.11c1.94,3.36,1.94,7.51,0,10.87l-33.55,58.11
				c-1.94,3.36-5.53,5.44-9.41,5.44h-67.1C45.28,143.71,41.69,141.63,39.75,138.27z"/>
		</g>
		<text transform="matrix(1 0 0 1 96.9667 327.9547)" class="st2 st3 st4">Live Bus Tracking</text>
		<text transform="matrix(1 0 0 1 112.6416 169.694)"><tspan x="0" y="0" class="st2 st3 st4">Bio-Metric</tspan><tspan x="-1.33" y="14.4" class="st2 st3 st4">Integration</tspan></text>
		<text transform="matrix(1 0 0 1 230.0454 100.3789)" class="st2 st3 st4">SMS Gateway</text>
		<text transform="matrix(1 0 0 1 373.8285 163.814)"><tspan x="0" y="0" class="st2 st3 st4">Barcode</tspan><tspan x="-6.98" y="14.4" class="st2 st3 st4">Integration</tspan></text>
		<text transform="matrix(1 0 0 1 347.6927 312.0065)"><tspan x="0" y="0" class="st2 st3 st4">Payment Gateway</tspan><tspan x="19.16" y="14.4" class="st2 st3 st4">Integration</tspan></text>
		<text transform="matrix(1 0 0 1 225.9723 396.3339)" class="st2 st3 st4">RFID Integration</text>
		<text transform="matrix(1 0 0 1 254.0443 241.9259)"><tspan x="0" y="0" class="st5 st3 st4">CCTV</tspan><tspan x="-17.43" y="14.4" class="st5 st3 st4">Surveillance</tspan></text>
		<g>
			<path class="st2" d="M149.13,300h1.48c1.68,0,3.05-1.37,3.05-3.05v-2.07h1.46v-16.89h4.38v-5.26c0-1.68-1.37-3.05-3.05-3.05
				h-1.32v-3.44c0-1.72-1.4-3.13-3.13-3.13H130.1c-1.72,0-3.13,1.4-3.13,3.13v3.44h-1.32c-1.68,0-3.05,1.37-3.05,3.05v5.26h4.38
				v16.89h1.46v2.07c0,1.68,1.37,3.05,3.05,3.05h1.48c1.68,0,3.05-1.37,3.05-3.05v-2.07h10.05v2.07
				C146.07,298.63,147.44,300,149.13,300z M155.12,271.39h1.32c0.73,0,1.32,0.59,1.32,1.32v3.53h-2.65V271.39z M126.98,276.25h-2.65
				v-3.53c0-0.73,0.59-1.32,1.32-1.32h1.32V276.25z M151.93,296.94c0,0.73-0.59,1.32-1.32,1.32h-1.48c-0.73,0-1.32-0.59-1.32-1.32
				v-2.07h4.13V296.94z M128.71,266.22c0-0.77,0.63-1.4,1.4-1.4h21.89c0.77,0,1.4,0.63,1.4,1.4v1.25h-24.68V266.22z M128.71,269.2
				h24.68v13.11l-0.19,0.03c-4.03,0.61-8.09,0.92-12.15,0.92s-8.12-0.31-12.15-0.92l-0.19-0.03V269.2z M134.29,296.94
				c0,0.73-0.59,1.32-1.32,1.32h-1.48c-0.73,0-1.32-0.59-1.32-1.32v-2.07h4.13V296.94z M144.24,293.14h-6.38v-2.65h6.38V293.14z
				 M145.97,293.14v-4.38h-9.84v4.38h-7.42v-2.65h4.41v-1.73h-4.41v-4.69l0.26,0.04c8,1.18,16.16,1.18,24.16,0l0.26-0.04v4.69h-4.41
				v1.73h4.41v2.65H145.97z"/>
		</g>
		<g>
			<g>
				<g>
					<path class="st2" d="M133.31,139.12c-1.18-2.11-1.8-4.7-1.8-7.51c0-4.71,4.08-8.55,9.09-8.55c5.02,0,9.09,3.84,9.09,8.55
						c0,0.54,0.44,0.97,0.97,0.97s0.97-0.44,0.97-0.97c0-5.8-4.95-10.5-11.04-10.5c-6.09,0-11.04,4.71-11.04,10.5
						c0,3.14,0.71,6.07,2.06,8.46c1.31,2.35,2.23,3.43,3.92,5.13c0.19,0.19,0.44,0.29,0.69,0.29c0.24,0,0.5-0.09,0.67-0.29
						c0.39-0.37,0.39-0.99,0.01-1.37C135.4,142.33,134.56,141.36,133.31,139.12z"/>
					<path class="st2" d="M129.76,111.65c3.34-1.82,6.98-2.75,10.85-2.75c3.88,0,7.12,0.83,10.85,2.76
						c0.15,0.07,0.29,0.11,0.45,0.11l0,0c0.35,0,0.69-0.19,0.87-0.53c0.24-0.48,0.06-1.07-0.42-1.31c-3.97-2.06-7.6-2.97-11.75-2.97
						c-4.19,0-8.15,1-11.79,2.98c-0.48,0.26-0.64,0.85-0.39,1.32C128.7,111.74,129.28,111.91,129.76,111.65z"/>
					<path class="st2" d="M140.52,116.37c-6.28,0-12.03,3.52-14.63,8.95c-0.89,1.84-1.33,3.96-1.33,6.3c0,2.63,0.47,5.14,1.42,7.7
						c0.19,0.51,0.75,0.76,1.26,0.57c0.51-0.19,0.76-0.75,0.57-1.26c-1.16-3.11-1.3-5.5-1.3-7.02c0-2.05,0.38-3.89,1.14-5.46
						c2.28-4.77,7.33-7.85,12.88-7.85c7.78,0,14.11,5.97,14.11,13.31c0,2.09-1.82,3.79-4.05,3.79s-4.05-1.7-4.05-3.79
						c0-3.17-2.69-5.74-6-5.74c-3.31,0-6,2.57-6,5.74c0,3.85,1.5,7.46,4.22,10.17c2.1,2.09,4.13,3.24,7.24,4.09
						c0.08,0.03,0.17,0.04,0.25,0.04c0.43,0,0.82-0.28,0.94-0.71c0.15-0.52-0.17-1.05-0.68-1.2c-2.75-0.75-4.54-1.76-6.38-3.59
						c-2.35-2.34-3.64-5.46-3.64-8.79c0-2.09,1.82-3.79,4.05-3.79s4.05,1.7,4.05,3.79c0,3.17,2.7,5.74,6,5.74s6-2.57,6-5.74
						C156.59,123.22,149.38,116.37,140.52,116.37z"/>
					<path class="st2" d="M157.95,120.4c-1.94-2.71-4.39-4.83-7.31-6.33c-6.14-3.16-13.97-3.15-20.09,0.02
						c-2.92,1.51-5.39,3.65-7.31,6.38c-0.31,0.44-0.2,1.04,0.23,1.35c0.18,0.12,0.37,0.18,0.56,0.18c0.3,0,0.6-0.14,0.8-0.4
						c1.74-2.47,3.97-4.41,6.61-5.78c5.58-2.88,12.72-2.89,18.31-0.02c2.63,1.34,4.85,3.27,6.6,5.73c0.31,0.44,0.93,0.54,1.36,0.22
						C158.16,121.44,158.26,120.84,157.95,120.4z"/>
					<path class="st2" d="M152.21,139.76c-0.78,0.14-1.57,0.19-2.04,0.19c-1.95,0-3.56-0.46-4.94-1.39
						c-2.37-1.61-3.78-4.2-3.78-6.93c0-0.54-0.44-0.97-0.97-0.97s-0.97,0.44-0.97,0.97c0,3.39,1.73,6.58,4.63,8.55
						c1.69,1.14,3.72,1.72,6.04,1.72c0.27,0,1.24-0.01,2.38-0.21c0.53-0.1,0.89-0.6,0.79-1.13
						C153.24,140.03,152.74,139.67,152.21,139.76z"/>
				</g>
			</g>
		</g>
		<g>
			<path class="st2" d="M267.21,41.35h-9.79c-0.52,0-0.94,0.42-0.94,0.94s0.42,0.94,0.94,0.94h9.79c0.52,0,0.94-0.42,0.94-0.94
				S267.72,41.35,267.21,41.35z"/>
			<path class="st2" d="M284.34,52.77h-8.04V40.65c0-2.32-1.89-4.21-4.21-4.21h-19.58c-2.32,0-4.21,1.89-4.21,4.21V73.3
				c0,0.52,0.42,0.94,0.94,0.94s0.94-0.42,0.94-0.94V48.12h24.23v4.65h-8.04c-0.97,0-1.76,0.79-1.76,1.76v1.51h-10.48
				c-0.52,0-0.94,0.42-0.94,0.94v8.16c0,0.52,0.42,0.94,0.94,0.94h10.48v3.96c0,0.32,0.16,0.61,0.43,0.79
				c0.27,0.17,0.61,0.2,0.9,0.07l7.16-3.18h1.31v5.59c0,0.52,0.42,0.94,0.94,0.94s0.94-0.42,0.94-0.94v-5.59h8.04
				c0.97,0,1.76-0.79,1.76-1.76V54.53C286.1,53.56,285.31,52.77,284.34,52.77z M250.19,40.65c0-1.28,1.04-2.32,2.32-2.32h19.58
				c1.28,0,2.32,1.04,2.32,2.32v5.59h-24.23V40.65z M284.22,54.65v11.18h-11.3c-0.13,0-0.26,0.03-0.38,0.08l-6.02,2.68V54.65
				L284.22,54.65z M264.63,57.92v6.28h-9.54v-6.28H264.63z"/>
		</g>
		<g>
			<g>
				<path class="st2" d="M379.64,109.81h-2.41c-0.26,0-0.46,0.21-0.46,0.46v29c0,0.26,0.21,0.46,0.46,0.46h2.41
					c0.26,0,0.46-0.21,0.46-0.46v-29C380.1,110.02,379.89,109.81,379.64,109.81z"/>
				<path class="st2" d="M385.33,109.81h-1.02c-0.26,0-0.46,0.21-0.46,0.46v29c0,0.26,0.21,0.46,0.46,0.46h1.02
					c0.26,0,0.46-0.21,0.46-0.46v-29C385.8,110.02,385.59,109.81,385.33,109.81z"/>
				<path class="st2" d="M390.47,109.81h-1.17c-0.26,0-0.46,0.21-0.46,0.46v29c0,0.26,0.21,0.46,0.46,0.46h1.17
					c0.26,0,0.46-0.21,0.46-0.46v-29C390.93,110.02,390.73,109.81,390.47,109.81z"/>
				<path class="st2" d="M396.29,109.81h-1.91c-0.26,0-0.46,0.21-0.46,0.46v29c0,0.26,0.21,0.46,0.46,0.46h1.91
					c0.26,0,0.46-0.21,0.46-0.46v-29C396.76,110.02,396.55,109.81,396.29,109.81z"/>
				<path class="st2" d="M401.74,109.81h-1.19c-0.26,0-0.46,0.21-0.46,0.46v29c0,0.26,0.21,0.46,0.46,0.46h1.19
					c0.26,0,0.46-0.21,0.46-0.46v-29C402.2,110.02,402,109.81,401.74,109.81z"/>
				<path class="st2" d="M407.73,109.81h-1.99c-0.26,0-0.46,0.21-0.46,0.46v29c0,0.26,0.21,0.46,0.46,0.46h1.99
					c0.26,0,0.46-0.21,0.46-0.46v-29C408.19,110.02,407.98,109.81,407.73,109.81z"/>
				<path class="st2" d="M415.04,109.81h-2.85c-0.26,0-0.46,0.21-0.46,0.46v29c0,0.26,0.21,0.46,0.46,0.46h2.85
					c0.26,0,0.46-0.21,0.46-0.46v-29C415.5,110.02,415.3,109.81,415.04,109.81z"/>
			</g>
		</g>
		<g>
			<rect x="405.02" y="278.09" class="st2" width="4.28" height="1.59"/>
			<rect x="399.65" y="278.09" class="st2" width="4.28" height="1.59"/>
			<rect x="394.28" y="278.09" class="st2" width="4.28" height="1.59"/>
			<path class="st2" d="M415.96,263.24l-13.28-13.28c-0.4-0.4-0.95-0.63-1.52-0.63c0,0,0,0,0,0c-0.56,0-1.11,0.23-1.5,0.63
				l-14.05,14.05h-7.31c-1.18,0-2.14,0.96-2.14,2.14v18.79c0,1.18,0.96,2.14,2.14,2.14h9.89l1.97,1.97c0.4,0.4,0.95,0.63,1.52,0.63
				c0,0,0,0,0,0c0.56,0,1.11-0.23,1.5-0.63l1.97-1.97h15.36c1.18,0,2.14-0.96,2.14-2.14v-15.36l3.31-3.31
				c0.4-0.39,0.63-0.94,0.64-1.51C416.6,264.2,416.37,263.64,415.96,263.24z M392.9,287.08l-0.85,0.85c-0.2,0.21-0.57,0.21-0.77,0
				l-0.84-0.85H392.9z M387.86,264.01l12.93-12.93c0.21-0.21,0.54-0.21,0.77,0l1.81,1.81l-11.12,11.12H387.86z M394.5,264.01
				l9.99-9.99l2.67,2.67l-7.32,7.32H394.5z M410.52,264.01h-8.42l6.19-6.19l6.55,6.55c0.1,0.1,0.16,0.24,0.16,0.39
				c0,0.14-0.06,0.28-0.16,0.38l-2.19,2.19v-1.18C412.65,264.97,411.69,264.01,410.52,264.01z M377.76,268.71v-2.56
				c0-0.3,0.25-0.55,0.55-0.55h32.21c0.3,0,0.55,0.25,0.55,0.55v2.56H377.76z M377.76,274.08v-3.78h33.3v3.78H377.76z
				 M411.06,284.94c0,0.3-0.25,0.55-0.55,0.55H378.3c-0.3,0-0.55-0.25-0.55-0.55v-9.27h33.3V284.94z"/>
			<path class="st2" d="M382.81,284.38c0.07-0.06,0.13-0.12,0.19-0.18c0.54,0.57,1.28,0.87,2.02,0.87c0.55,0,1.1-0.16,1.59-0.5
				c0.75-0.53,1.21-1.39,1.22-2.31c0-1.55-1.26-2.81-2.81-2.81c-0.12,0-0.27,0.01-0.43,0.04l-0.03,0c-0.6,0.1-1.14,0.39-1.56,0.83
				c-0.48-0.5-1.13-0.81-1.83-0.86c-0.74-0.05-1.47,0.19-2.04,0.68c-1.17,1.01-1.3,2.79-0.29,3.96
				C379.86,285.27,381.64,285.39,382.81,284.38z M380.99,283.47c-0.67,0-1.22-0.55-1.22-1.22c0-0.67,0.55-1.22,1.22-1.22
				c0.67,0,1.22,0.55,1.22,1.22C382.21,282.93,381.66,283.47,380.99,283.47z M383.82,282.23c0.01-0.6,0.45-1.1,1.04-1.18l0.01,0
				c0.04-0.01,0.08-0.01,0.12-0.01c0.01,0,0.01,0,0.02,0c0.67,0,1.22,0.55,1.22,1.22c0,0.26-0.09,0.51-0.24,0.71
				c-0.01,0.02-0.02,0.03-0.03,0.05c-0.01,0.02-0.02,0.03-0.02,0.03l-0.03,0.02c-0.23,0.25-0.56,0.4-0.9,0.4
				c-0.33-0.01-0.63-0.14-0.85-0.37C383.94,282.87,383.81,282.56,383.82,282.23z"/>
		</g>
		<g>
			<path class="st2" d="M284.15,346.59h-24.4c-2.31,0-4.19,1.88-4.19,4.19v14.64c0,2.31,1.88,4.19,4.19,4.19h24.4
				c2.31,0,4.19-1.88,4.19-4.19v-14.64C288.34,348.47,286.46,346.59,284.15,346.59z M257.43,350.78c0-1.28,1.04-2.32,2.31-2.32h24.4
				c1.28,0,2.31,1.04,2.31,2.32v14.64c0,1.28-1.04,2.31-2.31,2.31h-24.4c-1.28,0-2.31-1.04-2.31-2.31V350.78z"/>
			<path class="st2" d="M263,359.86h3.25c1.41,0,2.56-1.15,2.56-2.57v-3.25c0-1.42-1.15-2.57-2.56-2.57H263
				c-1.41,0-2.56,1.15-2.56,2.57v3.25C260.43,358.7,261.59,359.86,263,359.86z M266.94,357.29c0,0.38-0.31,0.69-0.69,0.69H263
				c-0.38,0-0.69-0.31-0.69-0.69v-3.25c0-0.38,0.31-0.69,0.69-0.69h3.25c0.38,0,0.69,0.31,0.69,0.69V357.29z"/>
			<path class="st2" d="M261.37,364.73h21.15c0.52,0,0.94-0.42,0.94-0.94s-0.42-0.94-0.94-0.94h-21.15c-0.52,0-0.94,0.42-0.94,0.94
				S260.86,364.73,261.37,364.73z"/>
			<path class="st2" d="M271.01,336.93v5.72c0,0.52,0.42,0.94,0.94,0.94c0.52,0,0.94-0.42,0.94-0.94v-5.72
				c1.4-0.41,2.44-1.69,2.44-3.23c0-1.86-1.52-3.38-3.38-3.38s-3.38,1.52-3.38,3.38C268.57,335.24,269.6,336.52,271.01,336.93z
				 M270.44,333.7c0-0.83,0.67-1.5,1.5-1.5s1.5,0.67,1.5,1.5s-0.67,1.5-1.5,1.5S270.44,334.53,270.44,333.7z"/>
			<path class="st2" d="M259.62,336.93v4.09c0,0.25,0.1,0.49,0.27,0.66l1.63,1.63c0.18,0.18,0.41,0.27,0.66,0.27s0.49-0.1,0.66-0.27
				c0.37-0.37,0.37-0.96,0-1.33l-1.35-1.35v-3.7c1.4-0.41,2.44-1.69,2.44-3.23c0-1.86-1.52-3.38-3.38-3.38s-3.38,1.52-3.38,3.38
				C257.18,335.24,258.22,336.52,259.62,336.93z M260.56,332.2c0.83,0,1.5,0.67,1.5,1.5s-0.67,1.5-1.5,1.5s-1.5-0.67-1.5-1.5
				S259.73,332.2,260.56,332.2z"/>
			<path class="st2" d="M282.39,336.93v3.7l-1.35,1.35c-0.37,0.37-0.37,0.96,0,1.33c0.18,0.18,0.41,0.27,0.66,0.27
				s0.49-0.1,0.66-0.27l1.63-1.63c0.17-0.18,0.27-0.42,0.27-0.66v-4.09c1.4-0.41,2.44-1.69,2.44-3.23c0-1.86-1.52-3.38-3.38-3.38
				s-3.38,1.52-3.38,3.38C279.95,335.24,280.99,336.52,282.39,336.93z M281.83,333.7c0-0.83,0.67-1.5,1.5-1.5s1.5,0.67,1.5,1.5
				s-0.67,1.5-1.5,1.5S281.83,334.53,281.83,333.7z"/>
		</g>
		<path class="st5" d="M292.17,193.1c-0.07-0.3-0.3-0.55-0.6-0.64l-35.15-10.92c-0.46-0.15-0.96,0.12-1.1,0.58l-4.7,15.12
			c-0.07,0.23-0.05,0.46,0.06,0.67c0.11,0.21,0.29,0.36,0.52,0.43l11.72,3.64l-1.28,4.13c-0.14,0.46,0.12,0.96,0.58,1.1l3.21,1
			l-1.07,3.85h-10.68l-0.04-0.45c-0.26-2.62-2.45-4.6-5.09-4.6h-1.04c-0.49,0-0.88,0.4-0.88,0.88v10.26c0,0.49,0.4,0.88,0.88,0.88
			h1.04c2.67,0,4.91-2.08,5.1-4.74l0.03-0.46h11.35c0.39,0,0.74-0.27,0.85-0.65l1.23-4.44l3.01,0.93c0.22,0.07,0.47,0.05,0.67-0.06
			c0.21-0.11,0.36-0.29,0.43-0.52l1.28-4.13l5.33,1.66c0.3,0.09,0.64,0.01,0.87-0.2l1.71-1.61l6.69,2.08
			c0.22,0.07,0.47,0.05,0.67-0.06c0.21-0.11,0.36-0.29,0.43-0.52l2.39-7.7c0.07-0.22,0.05-0.46-0.06-0.67
			c-0.11-0.21-0.29-0.36-0.52-0.43l-1.4-0.44l3.31-3.12C292.14,193.73,292.24,193.4,292.17,193.1L292.17,193.1z M251.89,213.91
			c0,1.7-1.27,3.13-2.96,3.33l-0.56,0.07v-8.58l0.56,0.07c1.69,0.2,2.96,1.63,2.96,3.33V213.91z M269.8,207.73l-6.21-1.93l1.02-3.29
			l6.21,1.93L269.8,207.73z M288.64,198.92l-1.87,6.02l-4.9-1.52l5.26-4.97L288.64,198.92z M277.86,204.78l-25.29-7.86l4.18-13.44
			l32.87,10.21L277.86,204.78z"/>
	</g>
</g>
</svg>
